<?xml version="1.0" encoding="UTF-8" standalone="no"?>
<svg
   xmlns:dc="http://purl.org/dc/elements/1.1/"
   xmlns:cc="http://creativecommons.org/ns#"
   xmlns:rdf="http://www.w3.org/1999/02/22-rdf-syntax-ns#"
   xmlns:svg="http://www.w3.org/2000/svg"
   xmlns="http://www.w3.org/2000/svg"
   xmlns:sodipodi="http://sodipodi.sourceforge.net/DTD/sodipodi-0.dtd"
   xmlns:inkscape="http://www.inkscape.org/namespaces/inkscape"
   version="1.1"
   id="svg815"
   width="512"
   height="512"
   viewBox="0 0 512 512"
   sodipodi:docname="acefluxflag.svg"
   inkscape:version="1.0.2-2 (e86c870879, 2021-01-15)">
  <metadata
     id="metadata821">
    <rdf:RDF>
      <cc:Work
         rdf:about="">
        <dc:format>image/svg+xml</dc:format>
        <dc:type
           rdf:resource="http://purl.org/dc/dcmitype/StillImage" />
        <dc:title></dc:title>
      </cc:Work>
    </rdf:RDF>
  </metadata>
  <defs
     id="defs819" />
  <sodipodi:namedview
     pagecolor="#151515"
     bordercolor="#666666"
     borderopacity="1"
     objecttolerance="10"
     gridtolerance="10"
     guidetolerance="10"
     inkscape:pageopacity="0"
     inkscape:pageshadow="2"
     inkscape:window-width="1920"
     inkscape:window-height="1017"
     id="namedview817"
     showgrid="false"
     inkscape:zoom="1.1159029"
     inkscape:cx="68.46286"
     inkscape:cy="171.3315"
     inkscape:window-x="-8"
     inkscape:window-y="-8"
     inkscape:window-maximized="1"
     inkscape:current-layer="g4627"
     showguides="false"
     inkscape:document-rotation="0"
     inkscape:pagecheckerboard="false" />
  <g
     id="g3285"
     transform="translate(-1.7922523,-7.1690843)">
    <g
       id="g4618"
       inkscape:export-xdpi="600"
       inkscape:export-ydpi="600">
      <g
         id="g4627"
         inkscape:export-xdpi="600"
         inkscape:export-ydpi="600">
        <g
           id="g4646"
           inkscape:export-xdpi="600"
           inkscape:export-ydpi="600">
          <g
             id="g4636"
             inkscape:export-xdpi="600"
             inkscape:export-ydpi="600">
            <path
               inkscape:connector-curvature="0"
               id="path1428"
               d="M 47.888958,94.814735 C 47.774518,94.424955 47.04738,81.525274 46.85396,67.131238 L 46.50229,40.960265 C 173.50178,94.051446 331.81573,-29.60649 493.8325,34.775888 V 61.63682 88.497752 C 331.20113,19.51867 205.49182,150.71774 47.888958,94.814735 Z"
               style="opacity:1;fill:#c62254;fill-opacity:1;stroke:none;stroke-width:0.265391;stroke-miterlimit:4;stroke-dasharray:none;stroke-dashoffset:0;stroke-opacity:1"
               sodipodi:nodetypes="csccccc" />
            <path
               inkscape:connector-curvature="0"
               id="path1430"
               d="m 54.390012,254.552 c -0.697343,-0.28125 -2.623068,-0.9489 -4.27926,-1.48437 l -3.011113,-0.97461 v 30.23826 30.23826 l 5.547405,1.69531 c 14.348373,4.3894 31.808649,7.29025 53.410626,8.87305 156.44623,12.14818 269.32254,-68.01828 387.97447,-16.79492 v -59.2734 l -3.01111,-1.63672 C 346.96586,188.83554 182.0322,278.94414 54.390012,254.552 Z"
               style="opacity:1;fill:#8b25ad;fill-opacity:1;stroke:none;stroke-width:0.263503;stroke-miterlimit:4;stroke-dasharray:none;stroke-dashoffset:0;stroke-opacity:1"
               sodipodi:nodetypes="ccccccccccc" />
            <path
               inkscape:connector-curvature="0"
               id="path1432"
               d="m 47.09972,146.40874 v -25.96315 c 0,-24.478624 0.0634,-25.936895 1.10891,-25.505404 0.6099,0.251712 1.96436,0.68173 3.0099,0.955596 142.51223,47.032338 292.46324,-75.616526 442.61386,-7.631477 V 140.80674 C 321.8398,75.267994 153.16461,215.35856 47.09972,146.40874 Z"
               style="opacity:1;fill:#c22679;fill-opacity:1;stroke:none;stroke-width:0.263444;stroke-miterlimit:4;stroke-dasharray:none;stroke-dashoffset:0;stroke-opacity:1"
               sodipodi:nodetypes="csscccc" />
            <path
               inkscape:connector-curvature="0"
               id="path1434"
               d="m 50.42645,253.56991 -3.32673,-1.36727 v -26.14449 -26.14449 c 72.05504,22.94094 144.43199,10.52061 208.34282,-4.87727 7.76875,-1.88772 14.80935,-3.43222 15.64577,-3.43222 0.83643,0 1.67839,-0.25503 1.87103,-0.56673 0.19264,-0.3117 1.56392,-0.72771 3.0473,-0.92447 1.48337,-0.19676 3.40991,-0.50162 4.2812,-0.67746 0.87128,-0.17584 3.50891,-0.64672 5.86138,-1.0464 2.35248,-0.39968 4.27746,-0.90911 4.27774,-1.13205 2.8e-4,-0.22295 1.33473,-0.49152 2.96545,-0.59681 1.63071,-0.1053 3.27009,-0.38323 3.64305,-0.61762 0.37297,-0.2344 1.39099,-0.50817 2.26228,-0.60839 0.87129,-0.10022 2.29703,-0.36662 3.16832,-0.59201 0.87128,-0.22539 2.10016,-0.34367 2.73085,-0.26285 0.63068,0.0808 1.48853,-0.13674 1.90632,-0.48348 0.4178,-0.34674 2.6107,-0.79924 4.87311,-1.00556 2.26241,-0.20632 4.96892,-0.64443 6.01447,-0.97358 1.04554,-0.32916 3.04158,-0.72991 4.43564,-0.89057 1.39406,-0.16066 6.66931,-0.86925 11.72277,-1.57464 56.16185,-5.93011 109.22632,-5.96924 159.8512,14.00871 -0.0649,17.85294 0.0234,35.17089 0.0317,53.40932 -162.7308,-55.64033 -304.50288,62.20142 -443.60567,6.50033 z"
               style="opacity:1;fill:#aa28ac;fill-opacity:1;stroke:none;stroke-width:0.263444;stroke-miterlimit:4;stroke-dasharray:none;stroke-dashoffset:0;stroke-opacity:1"
               sodipodi:nodetypes="cccccssssssssssssssscccc" />
            <path
               inkscape:connector-curvature="0"
               id="path1436"
               d="m 47.09972,199.6613 v -26.38115 -26.38116 l 1.42574,0.33767 c 169.27224,50.71769 276.27916,-71.613874 445.30693,-6.42992 0.0731,19.79644 0.14757,35.07475 0.16803,52.85352 -173.47668,-55.93527 -313.62681,59.44936 -446.9007,6.00104 z"
               style="opacity:1;fill:#c0279b;fill-opacity:1;stroke:none;stroke-width:0.263444;stroke-miterlimit:4;stroke-dasharray:none;stroke-dashoffset:0;stroke-opacity:1"
               sodipodi:nodetypes="ccccccc" />
            <path
               sodipodi:nodetypes="ccsscccsscccc"
               inkscape:connector-curvature="0"
               id="path1438"
               d="m 34.890823,262.15494 0.25015,-233.029707 -1.45464,-3.168317 c -0.80005,-1.742574 -2.3257,-4.256523 -3.39034,-5.586553 -1.06464,-1.33003 -1.522603,-2.217624 -1.283413,-2.45591 0.23918,-0.238287 2.260293,-0.81767 4.757083,-0.804039 13.666861,0.03304 14.964119,13.673492 15.30554,25.090036 0.376932,17.539246 0.359502,53.053226 0.52278,127.59805 0.166414,75.97624 0.14593,180.26931 -0.0455,231.76238 l -0.34808,93.62376 h -7.28185 -7.28186 z"
               style="opacity:1;fill:#6e8189;fill-opacity:1;stroke:none;stroke-width:0.263444;stroke-miterlimit:4;stroke-dasharray:none;stroke-dashoffset:0;stroke-opacity:1" />
            <path
               sodipodi:nodetypes="scccsscccs"
               inkscape:connector-curvature="0"
               id="path1440"
               d="M 20.82257,264.16996 C 21.041569,94.708847 21.011347,47.485023 22.025124,32.573454 c 0.136847,-6.462485 2.763465,-10.72507 6.987456,-14.659001 5.885521,6.402037 6.566345,6.192377 6.789098,13.702561 0.768888,13.532123 0.05572,49.641101 0.05552,154.967826 -1.63e-4,86.53956 -0.18986,191.38118 -0.42156,232.98141 L 35.01437,495.203 H 27.76919 20.524 Z"
               style="opacity:1;fill:#99a8ae;fill-opacity:1;stroke:none;stroke-width:0.26357;stroke-miterlimit:4;stroke-dasharray:none;stroke-dashoffset:0;stroke-opacity:1" />
          </g>
        </g>
      </g>
    </g>
  </g>
</svg>
