<?xml version="1.0" encoding="UTF-8" standalone="no"?>
<!-- Generator: Adobe Illustrator 21.0.0, SVG Export Plug-In . SVG Version: 6.00 Build 0)  -->

<svg
   xmlns:dc="http://purl.org/dc/elements/1.1/"
   xmlns:cc="http://creativecommons.org/ns#"
   xmlns:rdf="http://www.w3.org/1999/02/22-rdf-syntax-ns#"
   xmlns:svg="http://www.w3.org/2000/svg"
   xmlns="http://www.w3.org/2000/svg"
   xmlns:sodipodi="http://sodipodi.sourceforge.net/DTD/sodipodi-0.dtd"
   xmlns:inkscape="http://www.inkscape.org/namespaces/inkscape"
   version="1.1"
   id="Layer_1"
   x="0px"
   y="0px"
   width="64px"
   height="64px"
   viewBox="0 0 64 64"
   style="enable-background:new 0 0 64 64;"
   xml:space="preserve"
   sodipodi:docname="acespec-flag.svg"
   inkscape:version="0.92.4 (5da689c313, 2019-01-14)"><metadata
   id="metadata21"><rdf:RDF><cc:Work
       rdf:about=""><dc:format>image/svg+xml</dc:format><dc:type
         rdf:resource="http://purl.org/dc/dcmitype/StillImage" /><dc:title></dc:title></cc:Work></rdf:RDF></metadata><defs
   id="defs19" /><sodipodi:namedview
   pagecolor="#ffffff"
   bordercolor="#666666"
   borderopacity="1"
   objecttolerance="10"
   gridtolerance="10"
   guidetolerance="10"
   inkscape:pageopacity="0"
   inkscape:pageshadow="2"
   inkscape:window-width="1920"
   inkscape:window-height="1012"
   id="namedview17"
   showgrid="false"
   inkscape:zoom="3.6875"
   inkscape:cx="32.542373"
   inkscape:cy="32"
   inkscape:window-x="1080"
   inkscape:window-y="31"
   inkscape:window-maximized="1"
   inkscape:current-layer="Layer_1" />
<style
   type="text/css"
   id="style2">
	.st0{fill:#A3A3A3;}
	.st1{fill:#FFFFFF;}
	.st2{fill:#800080;}
	.st3{fill:#99A8AE;}
	.st4{fill:#6E8189;}
</style>
<path
   d="M4,4.25c0,4.13,0,6.96,0,11.09c19.33,7.81,38.67-7.81,58,0c0-6.8,0-4.28,0-11.09C42.67-3.55,23.33,12.06,4,4.25z"
   id="path4"
   style="fill:#141846;fill-opacity:1" />
<path
   class="st0"
   d="M4,13.13c0,4.13,0,6.96,0,11.09c19.33,7.81,38.67-7.81,58,0c0-4.13,0-6.96,0-11.09  C42.67,5.32,23.33,20.94,4,13.13z"
   id="path6"
   style="fill:#7557af;fill-opacity:1" />
<path
   class="st1"
   d="M4,22c0,4.13,0,6.96,0,11.09c19.33,7.81,38.67-7.81,58,0c0-6.8,0-4.28,0-11.09C42.67,14.19,23.33,29.81,4,22z"
   id="path8"
   style="fill:#d992b3;fill-opacity:1" />
<path
   class="st2"
   d="M4,30.87c0,3.17,0,5.8,0,8.87c19.33,7.81,38.67-7.81,58,0c0-8.6,0-0.66,0-8.87C42.67,23.06,23.33,38.68,4,30.87  z"
   id="path10"
   style="fill:#ffecee;fill-opacity:1" />
<path
   class="st3"
   d="M2,4.12V62l4,0V4.12C6,1.29,2,1.29,2,4.12z"
   id="path12" />
<path
   class="st4"
   d="M2.99,2.27c0.57,0.32,1,0.91,1,1.82L4,61.97l2,0V4.09C6,2.18,4.18,1.6,2.99,2.27z"
   id="path14" />
</svg>