<?xml version="1.0" encoding="UTF-8" standalone="no"?>
<!-- Created with Inkscape (http://www.inkscape.org/) -->

<svg
   xmlns:dc="http://purl.org/dc/elements/1.1/"
   xmlns:cc="http://creativecommons.org/ns#"
   xmlns:rdf="http://www.w3.org/1999/02/22-rdf-syntax-ns#"
   xmlns:svg="http://www.w3.org/2000/svg"
   xmlns="http://www.w3.org/2000/svg"
   xmlns:sodipodi="http://sodipodi.sourceforge.net/DTD/sodipodi-0.dtd"
   xmlns:inkscape="http://www.inkscape.org/namespaces/inkscape"
   version="1.1"
   id="svg815"
   width="512"
   height="512"
   viewBox="0 0 512 512"
   sodipodi:docname="aegosexuellflag.svg"
   inkscape:version="0.92.4 (5da689c313, 2019-01-14)"
   inkscape:export-filename="aegosexualflag.png"
   inkscape:export-xdpi="600"
   inkscape:export-ydpi="600">
  <metadata
     id="metadata821">
    <rdf:RDF>
      <cc:Work
         rdf:about="">
        <dc:format>image/svg+xml</dc:format>
        <dc:type
           rdf:resource="http://purl.org/dc/dcmitype/StillImage" />
        <dc:title></dc:title>
      </cc:Work>
    </rdf:RDF>
  </metadata>
  <defs
     id="defs819" />
  <sodipodi:namedview
     pagecolor="#ffffff"
     bordercolor="#666666"
     borderopacity="1"
     objecttolerance="10"
     gridtolerance="10"
     guidetolerance="10"
     inkscape:pageopacity="0"
     inkscape:pageshadow="2"
     inkscape:window-width="1920"
     inkscape:window-height="1001"
     id="namedview817"
     showgrid="false"
     inkscape:zoom="1.1159029"
     inkscape:cx="109.07149"
     inkscape:cy="326.62123"
     inkscape:window-x="-9"
     inkscape:window-y="-9"
     inkscape:window-maximized="1"
     inkscape:current-layer="svg815"
     showguides="false"
     inkscape:pagecheckerboard="true" />
  <g
     id="g1786">
    <g
       transform="translate(-1.7922523,-7.1690843)"
       id="g3285">
      <g
         transform="matrix(0.80564271,0,0,0.90333911,9.7472211,3.8278173)"
         id="g1578">
        <path
           sodipodi:nodetypes="ccccccc"
           style="opacity:1;fill:#81007f;fill-opacity:1;stroke:#000000;stroke-width:0;stroke-miterlimit:4;stroke-dasharray:none;stroke-dashoffset:0;stroke-opacity:1"
           d="m 50.296469,306.86529 1.057724,-33.11008 c 71.500117,29.01692 168.504537,8.44952 217.264087,3.94321 18.39894,21.40308 38.16156,41.84016 57.03588,62.89582 l 2.76777,3.15408 c -87.59603,17.5367 -184.46339,34.71257 -276.778614,8.40753 z"
           id="path1520"
           inkscape:connector-curvature="0" />
        <path
           sodipodi:nodetypes="ccccccc"
           style="opacity:1;fill:#81007f;fill-opacity:1;stroke:#000000;stroke-width:0;stroke-miterlimit:4;stroke-dasharray:none;stroke-dashoffset:0;stroke-opacity:1"
           d="m 362.37293,306.86529 51.48173,-55.73148 c 93.37883,-8.89818 154.89294,-2.19558 193.77326,18.84846 v 36.88302 l 0.17715,39.33841 C 538.23577,323.40599 477.53444,316.39107 328.1322,343.74832 Z"
           id="path1522"
           inkscape:connector-curvature="0" />
        <path
           style="opacity:1;fill:#81007f;fill-opacity:1;stroke:#000000;stroke-width:0;stroke-miterlimit:4;stroke-dasharray:none;stroke-dashoffset:0;stroke-opacity:1"
           d="M 50.988473,40.131777 C 196.04523,98.272745 424.69054,-32.609277 607.80507,34.767892 579.82395,64.146161 580.31799,70.166676 556.18628,94.848323 404.05311,70.052688 213.31709,148.77164 135.70963,131.41616 107.82526,100.82474 80.354065,71.83686 50.988473,40.131777 Z"
           id="path1524"
           inkscape:connector-curvature="0"
           sodipodi:nodetypes="ccccc" />
        <path
           style="opacity:1;fill:#959595;fill-opacity:1;stroke:#000000;stroke-width:0;stroke-miterlimit:4;stroke-dasharray:none;stroke-dashoffset:0;stroke-opacity:1"
           d="m 50.237149,158.18054 1.117044,-41.67091 c 30.164479,10.35356 59.151047,15.19398 84.355437,14.90653 28.42917,30.7599 48.57911,51.04101 68.29715,75.07802 -60.37493,8.17723 -98.6969,3.64277 -152.652587,-12.45108 z"
           id="path1526"
           inkscape:connector-curvature="0"
           sodipodi:nodetypes="cccccc" />
        <path
           style="opacity:1;fill:#959595;fill-opacity:1;stroke:#000000;stroke-width:0;stroke-miterlimit:4;stroke-dasharray:none;stroke-dashoffset:0;stroke-opacity:1"
           d="m 488.91439,167.43091 c 28.98817,-34.76815 34.04948,-36.16729 67.27189,-72.582587 32.08269,6.120637 37.8668,10.801417 51.44231,16.400337 l -0.0874,47.6149 0.0874,29.91858 C 584.0542,173.37289 511.90145,167.46682 488.91439,167.43091 Z"
           id="path1528"
           inkscape:connector-curvature="0"
           sodipodi:nodetypes="cccccc" />
        <path
           style="opacity:1;fill:#959595;fill-opacity:1;stroke:#000000;stroke-width:0;stroke-miterlimit:4;stroke-dasharray:none;stroke-dashoffset:0;stroke-opacity:1"
           d="m 228.19685,232.81595 -24.19007,-26.32177 c 101.66977,-8.93761 180.4986,-42.53515 284.90761,-39.06327 -24.50779,26.77777 -52.49858,54.75332 -75.05973,83.7029 -51.97433,6.78933 -95.22729,17.74334 -145.23638,26.56461 z"
           id="path1530"
           inkscape:connector-curvature="0"
           sodipodi:nodetypes="cccccc" />
        <path
           style="opacity:1;fill:#ffffff;fill-opacity:1;stroke:#000000;stroke-width:0;stroke-miterlimit:4;stroke-dasharray:none;stroke-dashoffset:0;stroke-opacity:1"
           d="m 50.296469,233.60081 1.057724,-39.55771 c 43.503712,15.23621 93.026317,20.07526 152.652587,12.45108 22.63269,24.09497 42.31272,45.97051 64.6115,71.20424 -83.96192,13.13031 -162.88767,17.68136 -217.264087,-3.94321 z"
           id="path1532"
           inkscape:connector-curvature="0"
           sodipodi:nodetypes="cccccc" />
        <path
           style="opacity:1;fill:#ffffff;fill-opacity:1;stroke:#000000;stroke-width:0;stroke-miterlimit:4;stroke-dasharray:none;stroke-dashoffset:0;stroke-opacity:1"
           d="m 135.70963,131.41616 c 155.10295,2.76997 265.16519,-60.880587 420.47665,-36.567837 l -57.80026,63.438967 -9.47163,9.14362 C 376.61762,163.36988 305.20963,201.61382 204.00678,206.49418 180.70779,179.68719 159.0301,156.84219 135.70963,131.41616 Z"
           id="path1534"
           inkscape:connector-curvature="0"
           sodipodi:nodetypes="cccccc" />
        <path
           style="opacity:1;fill:#ffffff;fill-opacity:1;stroke:#000000;stroke-width:0;stroke-miterlimit:4;stroke-dasharray:none;stroke-dashoffset:0;stroke-opacity:1"
           d="m 400.18702,265.98244 c 23.01805,-24.88605 64.39028,-72.50225 88.72737,-98.55153 47.90948,2.75483 79.06732,4.38881 118.7142,21.35123 l -6.7e-4,44.2317 v 36.96845 c -46.2829,-21.98632 -83.49845,-24.13657 -193.77326,-18.84848 z"
           id="path1536"
           inkscape:connector-curvature="0"
           sodipodi:nodetypes="ccccccc" />
        <path
           style="opacity:1;fill:#000000;fill-opacity:1;stroke:#000000;stroke-width:0;stroke-miterlimit:4;stroke-dasharray:none;stroke-dashoffset:0;stroke-opacity:1"
           d="m 268.61828,277.69842 c 44.89041,-6.52761 103.48107,-22.30138 145.23638,-26.56461 -23.02183,26.07292 -63.42526,69.05696 -85.72246,92.61451 -24.56017,-26.31884 -27.19355,-27.50677 -59.51392,-66.0499 z"
           id="path1538"
           inkscape:connector-curvature="0"
           sodipodi:nodetypes="cccc" />
        <path
           style="opacity:1;fill:#000000;fill-opacity:1;stroke:#000000;stroke-width:0;stroke-miterlimit:4;stroke-dasharray:none;stroke-dashoffset:0;stroke-opacity:1"
           d="m 50.80149,40.071012 c 7.463118,7.765649 84.90814,90.455958 84.90814,91.345148 -26.19574,0.98413 -52.702074,-3.68304 -84.355437,-14.90653 C 51.670219,90.561122 49.479227,65.817217 50.80149,40.071012 Z"
           id="path1542"
           inkscape:connector-curvature="0"
           sodipodi:nodetypes="cccc" />
        <path
           style="opacity:1;fill:#000000;fill-opacity:1;stroke:#000000;stroke-width:0;stroke-miterlimit:4;stroke-dasharray:none;stroke-dashoffset:0;stroke-opacity:1"
           d="m 607.80507,34.767892 c -21.33917,22.766376 -36.60242,43.318825 -51.61879,60.080431 26.00887,5.848267 35.69349,9.210167 51.44231,16.400337 -0.31597,-25.948502 1.49875,-50.734571 0.17648,-76.480768 z"
           id="path1542-1"
           inkscape:connector-curvature="0"
           sodipodi:nodetypes="cccc" />
      </g>
    </g>
    <path
       sodipodi:nodetypes="ccsscccsscccc"
       inkscape:connector-curvature="0"
       id="path1438-7-9"
       d="m 35.3281,249.95252 0.2502,-233.029717 -1.4547,-3.16831 c -0.8,-1.74258 -2.3257,-4.25653 -3.3903,-5.58656 -1.0646,-1.33003 -1.5226,-2.21762 -1.2834,-2.45591 0.2392,-0.23828 2.2603,-0.81767 4.7571,-0.80404 13.6668,0.033 14.9641,13.6735 15.3055,25.09004 0.3769,17.53925 0.3595,53.05323 0.5228,127.598057 0.1664,75.97624 0.1459,180.26931 -0.045,231.7624 l -0.3481,93.6237 h -7.2818 -7.2819 z"
       style="opacity:1;fill:#6e8189;fill-opacity:1;stroke:none;stroke-width:0.2634443;stroke-miterlimit:4;stroke-dasharray:none;stroke-dashoffset:0;stroke-opacity:1" />
    <path
       sodipodi:nodetypes="scccsscccs"
       inkscape:connector-curvature="0"
       id="path1440-2-4"
       d="m 21.2599,251.96754 c 0.219,-169.461117 0.1887,-216.684947 1.2025,-231.596517 0.1369,-6.46248 2.7635,-10.72507 6.9875,-14.659 5.8855,6.40204 6.5663,6.19238 6.7891,13.70256 0.7689,13.53213 0.056,49.64111 0.055,154.967837 -2e-4,86.53956 -0.1899,191.38116 -0.4216,232.98136 l -0.4212,75.6368 H 28.206 20.9608 Z"
       style="opacity:1;fill:#99a8ae;fill-opacity:1;stroke:none;stroke-width:0.26357049;stroke-miterlimit:4;stroke-dasharray:none;stroke-dashoffset:0;stroke-opacity:1" />
  </g>
</svg>
