<?xml version="1.0" encoding="UTF-8" standalone="no"?>
<svg
   xmlns:dc="http://purl.org/dc/elements/1.1/"
   xmlns:cc="http://creativecommons.org/ns#"
   xmlns:rdf="http://www.w3.org/1999/02/22-rdf-syntax-ns#"
   xmlns:svg="http://www.w3.org/2000/svg"
   xmlns="http://www.w3.org/2000/svg"
   xmlns:sodipodi="http://sodipodi.sourceforge.net/DTD/sodipodi-0.dtd"
   xmlns:inkscape="http://www.inkscape.org/namespaces/inkscape"
   version="1.1"
   id="svg815"
   width="512"
   height="512"
   viewBox="0 0 512 512"
   sodipodi:docname="alloaceflag.svg"
   inkscape:version="1.0.2-2 (e86c870879, 2021-01-15)">
  <metadata
     id="metadata821">
    <rdf:RDF>
      <cc:Work
         rdf:about="">
        <dc:format>image/svg+xml</dc:format>
        <dc:type
           rdf:resource="http://purl.org/dc/dcmitype/StillImage" />
        <dc:title></dc:title>
      </cc:Work>
    </rdf:RDF>
  </metadata>
  <defs
     id="defs819" />
  <sodipodi:namedview
     pagecolor="#ffffff"
     bordercolor="#666666"
     borderopacity="1"
     objecttolerance="10"
     gridtolerance="10"
     guidetolerance="10"
     inkscape:pageopacity="0"
     inkscape:pageshadow="2"
     inkscape:window-width="1920"
     inkscape:window-height="1001"
     id="namedview817"
     showgrid="false"
     inkscape:zoom="0.55795144"
     inkscape:cx="132.48131"
     inkscape:cy="242.27505"
     inkscape:window-x="-9"
     inkscape:window-y="-9"
     inkscape:window-maximized="1"
     inkscape:current-layer="g952"
     showguides="false"
     inkscape:pagecheckerboard="true"
     inkscape:document-rotation="0" />
  <g
     id="g929"
     inkscape:export-xdpi="96"
     inkscape:export-ydpi="96">
    <g
       id="g952">
      <g
         id="g943"
         inkscape:export-xdpi="96"
         inkscape:export-ydpi="96">
        <path
           inkscape:connector-curvature="0"
           id="path1428"
           d="m 98.9074,127.82193 c -1.5683,-0.3488 -5.9229,-0.88946 -9.6769,-1.20145 -3.754,-0.31197 -6.9787,-0.86791 -7.1661,-1.2354 -0.1874,-0.36748 -1.2765,-0.66816 -2.4202,-0.66816 -2.4182,0 -13.6777,-2.82363 -24.0097,-6.02109 C 51.714,117.48254 43.0498,113.03662 42.8252,112.12288 42.7108,111.65736 42.4589,97.211 42.2655,80.01985 l -0.3517,-31.25663 7.7716,3.34151 c 12.9413,5.56428 25.708,8.55722 45.7368,10.72218 17.5823,1.90051 55.9926,0.93361 70.9703,-1.78655 2.4396,-0.44306 5.5763,-0.98545 6.9703,-1.2053 14.9624,-2.35967 27.4975,-4.65173 31.0495,-5.67741 1.3941,-0.40254 3.6753,-0.91299 5.0693,-1.13432 2.8192,-0.44759 13.455,-2.9526 20.2773,-4.77584 2.4396,-0.65197 4.8633,-1.28376 5.3861,-1.40397 0.5228,-0.12023 2.0911,-0.48088 3.4851,-0.80147 1.3941,-0.3206 3.9409,-1.06732 5.6596,-1.65939 1.7187,-0.59206 4.0544,-1.07648 5.1903,-1.07648 1.136,0 2.2209,-0.30483 2.4109,-0.67741 0.1899,-0.37257 2.2741,-0.92617 4.6314,-1.23019 2.3573,-0.30405 4.5712,-0.77684 4.9197,-1.05065 0.3485,-0.27383 2.4872,-0.91109 4.7525,-1.41617 2.2653,-0.50506 5.5446,-1.30146 7.2871,-1.76979 1.7426,-0.46832 5.0218,-1.28705 7.2872,-1.81941 2.2653,-0.53235 4.5465,-1.17984 5.0693,-1.43887 0.5227,-0.25904 2.8039,-0.82424 5.0693,-1.25601 9.8857,-1.88423 17.1937,-3.55452 20.9109,-4.77934 1.2198,-0.40193 4.3564,-1.03542 6.9703,-1.40775 2.6138,-0.37232 9.4574,-1.3758 15.2079,-2.22993 20.9285,-3.10858 28.2561,-3.58172 55.1287,-3.55958 28.2073,0.0233 35.7114,0.65185 54.9599,4.60406 10.2736,2.10943 22.933,5.58117 23.9626,6.57154 0.3658,0.35187 1.8629,0.8719 3.3268,1.15562 1.4639,0.28374 2.6616,0.77884 2.6616,1.10026 0,0.32141 1.0331,0.8193 2.2958,1.10641 1.2627,0.28713 2.7598,0.81494 3.3268,1.17295 0.5669,0.35801 2.0289,1.15213 3.2487,1.76473 1.2198,0.61261 3.1445,1.59006 4.2772,2.17211 l 2.0594,1.05831 v 32.08066 32.08066 l -3.6436,-2.21976 C 472.3889,95.26983 450.8131,88.69905 425.5581,85.0331 413.7315,83.31637 369.3148,83.05269 355.541,84.61744 c -35.4062,4.02224 -59.9798,9.22031 -104.2376,22.04941 -30.6818,8.89381 -56.5809,14.89839 -77.8624,18.05197 -18.0788,2.679 -25.4114,3.20939 -47.9198,3.46619 -13.0693,0.14912 -25.0455,-0.0143 -26.6138,-0.36308 z"
           style="display:inline;fill:#d60000;fill-opacity:1;stroke:none;stroke-width:0.290033;stroke-miterlimit:4;stroke-dasharray:none;stroke-dashoffset:0;stroke-opacity:1" />
        <path
           inkscape:connector-curvature="0"
           id="path1430"
           d="m 395.15324,205.12142 c -23.09667,-0.16388 -53.153,2.04923 -71.54932,5.55077 -2.09154,0.39812 -5.65585,1.02832 -7.92174,1.39965 -2.2658,0.37131 -4.9751,0.85627 -6.02087,1.07799 -1.04576,0.22171 -3.32846,0.66745 -5.07147,0.98889 -1.74291,0.32144 -3.5972,0.77151 -4.12009,0.99973 -0.52288,0.22822 -2.66141,0.71601 -4.75294,1.08451 -5.00809,0.88235 -10.24533,2.01754 -12.99322,2.81669 -1.22003,0.35482 -4.64217,1.16488 -7.60521,1.79954 -2.96304,0.63468 -6.24301,1.42529 -7.28878,1.75826 -1.04577,0.33296 -3.1844,0.81605 -4.75305,1.07364 -1.56865,0.25759 -3.85134,0.75021 -5.07147,1.09538 -3.50332,0.99114 -21.11982,5.34217 -29.47146,7.27859 -18.85122,4.37084 -47.37799,9.41847 -62.43015,11.0472 -2.96304,0.32061 -8.52371,0.95828 -12.35826,1.41702 -4.0312,0.48233 -16.73008,0.84094 -30.10641,0.84762 -20.01916,0.01 -24.670429,-0.19808 -34.542938,-1.54309 -15.165135,-2.06601 -32.57807,-6.11025 -39.29598,-9.12594 -0.697145,-0.31296 -2.622518,-1.0559 -4.27825,-1.65175 L 42.5111,231.95161 v 33.64801 33.64801 l 5.546169,1.88648 c 14.345217,4.88436 31.801643,8.11232 53.398851,9.8736 8.04871,0.65638 52.14113,-0.24164 62.11172,-1.2649 22.80933,-2.34089 46.91808,-6.16464 67.50152,-10.70817 4.53169,-1.00031 9.09518,-1.97052 10.14094,-2.15598 1.04577,-0.18544 11.16993,-2.71676 22.49921,-5.62466 44.36146,-11.38626 67.39824,-15.50127 100.14178,-17.88677 21.43674,-1.56175 56.7465,-1.12751 59.72834,0.7346 0.60527,0.378 2.45756,0.71068 4.11809,0.73894 3.03813,0.0519 4.85592,0.34939 14.74553,2.41024 2.96304,0.61745 6.45626,1.30053 7.76347,1.51918 1.30721,0.21865 2.37748,0.64179 2.37748,0.9389 0,0.29713 1.49686,0.76122 3.32696,1.03017 1.83009,0.26895 4.61048,0.91824 6.17913,1.44529 11.84757,3.9806 20.51374,7.09858 23.61076,8.49351 l 3.64339,1.64089 v -32.97862 -32.97862 l -3.01043,-1.82128 c -15.92477,-9.63362 -44.38605,-16.66818 -76.53092,-18.91261 -4.36013,-0.30443 -9.31983,-0.46858 -14.64985,-0.5064 z"
           style="fill:#7f007f;fill-opacity:1;stroke:none;stroke-width:0.277932;stroke-miterlimit:4;stroke-dasharray:none;stroke-dashoffset:0;stroke-opacity:1" />
        <path
           inkscape:connector-curvature="0"
           id="path1432"
           d="m 97.0063,189.10488 c -19.6431,-2.01246 -39.001,-6.99172 -50.0825,-12.88232 l -4.4126,-2.34555 v -30.86574 c 0,-29.10088 0.063,-30.83451 1.1089,-30.32155 0.6099,0.29925 1.9644,0.81046 3.0099,1.13605 1.0456,0.32557 3.6119,1.32154 5.703,2.21324 4.705,2.00628 14.187,4.90313 20.9109,6.38845 41.8923,9.25409 93.9964,5.35476 160.9505,-12.04497 4.1822,-1.08685 9.6,-2.46982 12.0396,-3.07329 2.4396,-0.60346 5.5762,-1.38973 6.9703,-1.74726 1.3941,-0.35753 4.3881,-1.05812 6.6535,-1.55687 2.2653,-0.49874 4.5465,-1.10116 5.0693,-1.33874 0.5227,-0.23756 2.8039,-0.85055 5.0693,-1.36218 2.2653,-0.51164 6.4,-1.49243 9.1881,-2.17955 17.6977,-4.36153 20.2183,-4.96121 25.3465,-6.03013 2.7881,-0.58116 6.6376,-1.38888 8.5545,-1.79495 32.7823,-6.94478 58.7848,-9.6207 85.5445,-8.80342 19.4185,0.59307 37.8747,3.06405 51.0099,6.82935 2.4396,0.69934 5.4337,1.55605 6.6535,1.90379 4.8588,1.38517 7.9813,2.40293 9.1881,2.99485 0.6971,0.34185 2.8357,1.17935 4.7525,1.8611 4.574,1.62682 11.5305,4.68605 15.6832,6.89691 l 3.3267,1.77115 v 31.23192 31.23202 l -4.5544,-2.67589 c -6.0586,-3.55961 -21.1895,-9.46514 -30.6139,-11.94846 -19.043,-5.01781 -38.6812,-7.25359 -63.6832,-7.2503 -42.7683,0.005 -80.6007,6.17293 -136.8713,22.31219 -40.2528,11.54511 -67.6452,17.29895 -98.8515,20.76394 -9.6827,1.07512 -49.269,1.54623 -57.6633,0.68621 z"
           style="fill:#f85958;fill-opacity:1;stroke:none;stroke-width:0.287242;stroke-miterlimit:4;stroke-dasharray:none;stroke-dashoffset:0;stroke-opacity:1" />
        <path
           inkscape:connector-curvature="0"
           id="path1436"
           d="m 100.36531,248.16293 c -12.735597,-1.18299 -26.001062,-3.73365 -39.129479,-7.52371 -9.951514,-2.87291 -9.829008,-2.82941 -14.357965,-5.09824 l -2.366766,-1.1856 v -30.42365 -30.42367 l 1.42008,0.38942 c 0.780954,0.21417 5.385805,1.74464 10.232881,3.40104 15.247581,5.21053 29.797671,8.07756 48.934689,9.6423 10.94949,0.89528 42.20798,0.42402 50.17409,-0.75644 2.77701,-0.41149 8.17308,-1.14412 11.9913,-1.62805 17.98286,-2.27917 31.29115,-4.67086 50.48972,-9.07368 2.77691,-0.63684 7.03705,-1.60813 9.46686,-2.15842 4.97218,-1.12609 13.09038,-3.05674 17.35579,-4.12756 1.56201,-0.39212 4.68613,-1.12741 6.94234,-1.63393 2.25631,-0.50652 4.52826,-1.12179 5.04896,-1.36726 0.5207,-0.24546 2.36677,-0.65634 4.10228,-0.91305 1.73561,-0.25671 4.00765,-0.75445 5.04896,-1.10608 1.0414,-0.35163 4.30745,-1.1775 7.25796,-1.83526 2.95042,-0.65774 6.35849,-1.49678 7.5734,-1.86452 1.2149,-0.36774 3.77101,-1.01515 5.68012,-1.43869 1.90911,-0.42354 5.74316,-1.2732 8.52008,-1.88815 2.77701,-0.61492 6.32701,-1.41272 7.88902,-1.77289 19.11281,-4.40698 41.52075,-8.0783 57.74759,-9.46143 4.85962,-0.41421 11.12249,-1.07827 13.91743,-1.47567 6.56625,-0.93362 28.09414,-0.93225 34.64615,0.002 2.79494,0.39863 8.34777,1.05476 12.33969,1.45811 10.44224,1.05512 23.44367,3.31816 25.30098,4.40391 0.55158,0.32245 2.61437,0.8194 4.58394,1.10434 1.96967,0.28495 3.73615,0.80848 3.92559,1.16343 0.18943,0.35494 0.98712,0.64535 1.77266,0.64535 0.78543,0 2.68568,0.45402 4.22279,1.00894 1.53711,0.55493 4.49868,1.58238 6.58139,2.28323 2.08271,0.70086 4.27986,1.56219 4.88263,1.91411 0.60277,0.3519 1.41181,0.63982 1.79796,0.63982 0.38614,0 1.59706,0.45729 2.69086,1.01617 1.09379,0.55889 3.26674,1.56692 4.82875,2.24003 1.5621,0.67312 3.90507,1.75893 5.20682,2.4129 l 2.36667,1.18903 v 30.55139 c 0,16.80325 -0.13864,30.55138 -0.30816,30.55138 -0.16952,0 -2.79653,-1.19566 -5.83788,-2.65705 -28.64382,-13.76343 -66.54764,-20.16004 -106.3283,-17.94386 -35.63147,1.98504 -69.69994,7.73822 -109.6803,18.52179 -20.58458,5.55211 -28.36424,7.51173 -37.13939,9.35506 -1.85603,0.38986 -3.90229,0.90281 -4.54749,1.13989 -1.6882,0.62043 -4.88004,1.30926 -23.6342,5.10064 -3.12401,0.63157 -7.24212,1.43981 -9.15123,1.7961 -3.09165,0.577 -5.30424,0.96198 -14.83136,2.58064 -5.24517,0.89117 -19.84964,2.64992 -27.13819,3.26816 -8.88789,0.7539 -42.29144,0.73898 -50.48972,-0.0226 z"
           style="fill:#ffffff;fill-opacity:1;stroke:none;stroke-width:0.282342;stroke-miterlimit:4;stroke-dasharray:none;stroke-dashoffset:0;stroke-opacity:1" />
        <path
           sodipodi:nodetypes="ccsscccsscccc"
           inkscape:connector-curvature="0"
           id="path1438"
           d="M 30.3023,264.04743 30.5525,31.01772 29.0978,27.8494 c -0.8,-1.74257 -2.3257,-4.25652 -3.3903,-5.58655 -1.0646,-1.33003 -1.5226,-2.21763 -1.2834,-2.45591 0.2392,-0.23829 2.2603,-0.81767 4.7571,-0.80404 13.6668,0.033 14.9641,13.67349 15.3055,25.09004 0.3769,17.53924 0.3595,53.05322 0.5228,127.59805 0.1664,75.97624 0.1459,180.26931 -0.045,231.76238 l -0.3481,93.62372 h -7.2818 -7.2819 z"
           style="fill:#6e8189;fill-opacity:1;stroke:none;stroke-width:0.263444;stroke-miterlimit:4;stroke-dasharray:none;stroke-dashoffset:0;stroke-opacity:1" />
        <path
           sodipodi:nodetypes="scccsscccs"
           inkscape:connector-curvature="0"
           id="path1440"
           d="m 16.2341,266.06245 c 0.219,-169.46112 0.1888,-216.68494 1.2025,-231.59651 0.1369,-6.46249 2.7635,-10.72507 6.9875,-14.659 5.8855,6.40204 6.5663,6.19238 6.7891,13.70256 0.7689,13.53212 0.056,49.6411 0.055,154.96783 -2e-4,86.53956 -0.1899,191.38118 -0.4216,232.98141 l -0.4212,75.63675 H 23.1802 15.935 Z"
           style="fill:#99a8ae;fill-opacity:1;stroke:none;stroke-width:0.26357;stroke-miterlimit:4;stroke-dasharray:none;stroke-dashoffset:0;stroke-opacity:1" />
      </g>
    </g>
  </g>
</svg>
