<?xml version="1.0" encoding="UTF-8" standalone="no"?>
<!-- Created with Inkscape (http://www.inkscape.org/) -->

<svg
   xmlns:dc="http://purl.org/dc/elements/1.1/"
   xmlns:cc="http://creativecommons.org/ns#"
   xmlns:rdf="http://www.w3.org/1999/02/22-rdf-syntax-ns#"
   xmlns:svg="http://www.w3.org/2000/svg"
   xmlns="http://www.w3.org/2000/svg"
   xmlns:sodipodi="http://sodipodi.sourceforge.net/DTD/sodipodi-0.dtd"
   xmlns:inkscape="http://www.inkscape.org/namespaces/inkscape"
   version="1.1"
   id="svg815"
   width="512"
   height="509"
   viewBox="0 0 512 509"
   sodipodi:docname="aroaceflag.svg"
   inkscape:version="0.92.4 (5da689c313, 2019-01-14)"
   inkscape:export-filename="aroaceflag.png"
   inkscape:export-xdpi="600"
   inkscape:export-ydpi="600">
  <metadata
     id="metadata821">
    <rdf:RDF>
      <cc:Work
         rdf:about="">
        <dc:format>image/svg+xml</dc:format>
        <dc:type
           rdf:resource="http://purl.org/dc/dcmitype/StillImage" />
        <dc:title></dc:title>
      </cc:Work>
    </rdf:RDF>
  </metadata>
  <defs
     id="defs819" />
  <sodipodi:namedview
     pagecolor="#ffffff"
     bordercolor="#666666"
     borderopacity="1"
     objecttolerance="10"
     gridtolerance="10"
     guidetolerance="10"
     inkscape:pageopacity="0"
     inkscape:pageshadow="2"
     inkscape:window-width="1920"
     inkscape:window-height="1001"
     id="namedview817"
     showgrid="false"
     inkscape:zoom="1.1159029"
     inkscape:cx="366.12173"
     inkscape:cy="305.41054"
     inkscape:window-x="-9"
     inkscape:window-y="-9"
     inkscape:window-maximized="1"
     inkscape:current-layer="svg815"
     showguides="false" />
  <g
     id="g7487">
    <path
       inkscape:connector-curvature="0"
       id="path1428"
       d="m 103.49587,104.18378 c -1.56832,-0.28778 -5.92292,-0.73385 -9.67689,-0.99126 -3.75398,-0.2574 -6.97873,-0.71608 -7.16611,-1.01928 -0.18739,-0.30319 -1.27647,-0.55126 -2.42019,-0.55126 -2.41817,0 -13.67768,-2.32965 -24.00964,-4.967728 C 56.30252,95.653216 47.63833,91.985091 47.41371,91.231209 47.29927,90.847127 47.04738,78.928083 46.85396,64.744448 l -0.35167,-25.788425 7.7716,2.756925 c 12.94129,4.590837 25.70803,7.060172 45.73683,8.84639 17.58229,1.568031 55.99262,0.770277 70.9703,-1.474002 2.4396,-0.365554 5.57623,-0.813054 6.97029,-0.994445 14.96238,-1.946861 27.49751,-3.837923 31.04951,-4.684162 1.39406,-0.332124 3.67525,-0.753272 5.06931,-0.935883 2.81919,-0.369292 13.45496,-2.436065 20.27722,-3.940328 2.43961,-0.537916 4.86337,-1.059177 5.38614,-1.158357 0.52277,-0.09918 2.09109,-0.396745 3.48515,-0.661254 1.39406,-0.26451 3.94087,-0.880598 5.65956,-1.369084 1.71871,-0.488487 4.05435,-0.888157 5.19033,-0.888157 1.13598,0 2.22086,-0.251505 2.41083,-0.5589 0.18998,-0.307395 2.27414,-0.764138 4.63146,-1.014984 2.35732,-0.250845 4.57119,-0.640925 4.9197,-0.866842 0.34852,-0.225918 2.48713,-0.7517 4.75248,-1.168406 2.26534,-0.416706 5.54455,-1.073784 7.28713,-1.460175 1.74257,-0.386391 5.02178,-1.061891 7.28712,-1.501112 2.26535,-0.439222 4.54654,-0.973441 5.06931,-1.187155 0.52277,-0.213713 2.80396,-0.680038 5.06931,-1.036277 9.88576,-1.554594 17.19371,-2.932673 20.91089,-3.943221 1.2198,-0.331614 4.35643,-0.854271 6.9703,-1.16146 2.61386,-0.30719 9.45742,-1.135108 15.20792,-1.839819 20.92855,-2.564751 28.25611,-2.955109 55.12871,-2.936852 28.20732,0.01917 35.7114,0.537816 54.95989,3.798602 10.27361,1.740397 22.93302,4.604773 23.96264,5.421894 0.3658,0.290309 1.86283,0.71936 3.32673,0.953446 1.4639,0.234087 2.66163,0.642582 2.66163,0.907767 0,0.265185 1.03313,0.67597 2.29583,0.912855 1.26271,0.236886 2.75974,0.672371 3.32674,0.967746 0.56699,0.295375 2.02892,0.950576 3.24872,1.456002 1.2198,0.505426 3.14455,1.311878 4.27723,1.792113 l 2.0594,0.873157 v 26.468299 26.468298 l -3.64356,-1.831414 C 476.97739,77.326515 455.4016,71.905266 430.14656,68.880654 c -11.8266,-1.416386 -56.24322,-1.633936 -70.01703,-0.342938 -35.40624,3.318569 -59.97986,7.607256 -104.23762,18.191967 -30.68184,7.337886 -56.58096,12.291977 -77.86241,14.893857 -18.07885,2.21033 -25.41136,2.64792 -47.91977,2.8598 -13.06931,0.12303 -25.04555,-0.0118 -26.61386,-0.29956 z"
       style="opacity:1;fill:#3da542;fill-opacity:1;stroke:none;stroke-width:0.2634443;stroke-miterlimit:4;stroke-dasharray:none;stroke-dashoffset:0;stroke-opacity:1" />
    <path
       inkscape:connector-curvature="0"
       id="path1430"
       d="m 399.82004,224.98169 c -23.10185,-0.14727 -53.16485,1.84157 -71.56524,4.98828 -2.09202,0.35777 -5.65711,0.92411 -7.92348,1.25781 -2.26636,0.33369 -4.97621,0.7695 -6.02222,0.96875 -1.04602,0.19925 -3.32923,0.59982 -5.07258,0.88868 -1.74335,0.28887 -3.59798,0.69333 -4.12098,0.89843 -0.52301,0.20509 -2.66206,0.64345 -4.75409,0.97461 -5.00917,0.79293 -10.2476,1.81309 -12.99605,2.53125 -1.22035,0.31887 -4.64321,1.04684 -7.60691,1.61719 -2.96371,0.57036 -6.24437,1.28085 -7.29038,1.58008 -1.04602,0.29922 -3.18507,0.73336 -4.75409,0.96484 -1.56902,0.23149 -3.85222,0.67419 -5.07258,0.98438 -3.50412,0.8907 -21.1245,4.80082 -29.47804,6.54101 -18.85538,3.92792 -47.38854,8.46404 -62.44397,9.92772 -2.9637,0.28812 -8.52563,0.86117 -12.36101,1.27343 -4.0321,0.43345 -16.73381,0.75572 -30.11308,0.76172 -20.02365,0.009 -24.67595,-0.17801 -34.550624,-1.38672 -15.16855,-1.85665 -32.585336,-5.49106 -39.304704,-8.20115 -0.697343,-0.28125 -2.623068,-0.9489 -4.27926,-1.48437 l -3.011113,-0.97461 v 30.23826 30.23826 l 5.547405,1.69531 c 14.348373,4.3894 31.808649,7.29025 53.410626,8.87305 8.05053,0.58986 52.15276,-0.21716 62.12548,-1.13672 22.81445,-2.10368 46.92857,-5.53994 67.51654,-9.62305 4.53272,-0.89894 9.09722,-1.77084 10.14322,-1.9375 1.04601,-0.16665 11.17241,-2.44146 22.50421,-5.05468 44.37127,-10.23243 67.41316,-13.93044 100.16399,-16.0742 21.44151,-1.40349 56.75907,-1.01325 59.74158,0.66016 0.60544,0.33969 2.45812,0.63866 4.11903,0.66406 3.03878,0.0466 4.85698,0.31398 14.74879,2.16599 2.96372,0.55488 6.4577,1.16874 7.76519,1.36524 1.30751,0.19649 2.37802,0.57675 2.37802,0.84375 0,0.26702 1.49715,0.68408 3.32767,0.92578 1.83051,0.24169 4.61147,0.82519 6.18049,1.29883 11.85024,3.57722 20.5183,6.37924 23.61604,7.63281 l 3.64422,1.47461 v -29.6367 -29.6367 l -3.01111,-1.63672 c -15.92831,-8.65739 -44.39597,-14.9791 -76.54795,-16.99609 -4.36105,-0.27358 -9.32185,-0.42109 -14.65304,-0.45508 z"
       style="opacity:1;fill:#690d80;fill-opacity:1;stroke:none;stroke-width:0.26350322;stroke-miterlimit:4;stroke-dasharray:none;stroke-dashoffset:0;stroke-opacity:1" />
    <path
       inkscape:connector-curvature="0"
       id="path1432"
       d="M 101.59477,156.21789 C 81.95166,154.52508 62.5938,150.3367 51.51226,145.38174 l -4.41254,-1.973 v -25.96315 c 0,-24.478624 0.0634,-25.936895 1.10891,-25.505404 0.6099,0.251712 1.96436,0.68173 3.0099,0.955596 1.04555,0.273866 3.61189,1.111633 5.70297,1.8617 4.70503,1.687612 14.187,4.124338 20.9109,5.373738 41.89226,7.78421 93.99642,4.50423 160.95049,-10.131794 4.18218,-0.914222 9.6,-2.077536 12.0396,-2.585142 2.4396,-0.507606 5.57624,-1.168986 6.9703,-1.469733 1.39406,-0.300747 4.38812,-0.890059 6.65346,-1.309582 2.26535,-0.419524 4.54654,-0.926269 5.06931,-1.126101 0.52277,-0.199832 2.80396,-0.715451 5.06931,-1.14582 2.26534,-0.430369 6.4,-1.255384 9.18812,-1.833366 17.69768,-3.668762 20.21829,-4.173185 25.34653,-5.072329 2.78812,-0.488845 6.63762,-1.168279 8.55446,-1.509851 32.78234,-5.841696 58.78481,-8.092586 85.54455,-7.405117 19.41847,0.498869 37.8747,2.577365 51.0099,5.744614 2.43961,0.588253 5.43366,1.308881 6.65347,1.601394 4.85878,1.165154 7.98125,2.021259 9.18812,2.519151 0.69703,0.287559 2.83564,0.992033 4.75247,1.565498 4.57401,1.368422 11.53053,3.941743 15.68317,5.801437 l 3.32673,1.489826 v 26.271175 26.27126 l -4.55443,-2.25086 c -6.05857,-2.99422 -21.18946,-7.96174 -30.61389,-10.05062 -19.04295,-4.2208 -38.68113,-6.10147 -63.68316,-6.09869 -42.76828,0.005 -80.60072,5.19245 -136.87129,18.76821 -40.25278,9.71134 -67.64527,14.55127 -98.85149,17.46589 -9.68278,0.90436 -49.26904,1.30063 -57.66336,0.57722 z"
       style="opacity:1;fill:#a7d379;fill-opacity:1;stroke:none;stroke-width:0.2634443;stroke-miterlimit:4;stroke-dasharray:none;stroke-dashoffset:0;stroke-opacity:1" />
    <path
       inkscape:connector-curvature="0"
       id="path1434"
       d="M 101.59477,261.44103 C 81.4793,259.70937 63.23039,255.83224 50.42645,250.56991 l -3.32673,-1.36727 v -26.14449 -26.14449 l 4.59406,1.90051 c 10.47118,4.3318 25.05664,7.73232 42.29703,9.86132 12.88624,1.59131 50.47538,1.58523 66.85148,-0.0108 30.68552,-2.99066 58.84782,-7.94087 94.60025,-16.6283 7.76875,-1.88772 14.80935,-3.43222 15.64577,-3.43222 0.83643,0 1.67839,-0.25503 1.87103,-0.56673 0.19264,-0.3117 1.56392,-0.72771 3.0473,-0.92447 1.48337,-0.19676 3.40991,-0.50162 4.2812,-0.67746 0.87128,-0.17584 3.50891,-0.64672 5.86138,-1.0464 2.35248,-0.39968 4.27746,-0.90911 4.27774,-1.13205 2.8e-4,-0.22295 1.33473,-0.49152 2.96545,-0.59681 1.63071,-0.1053 3.27009,-0.38323 3.64305,-0.61762 0.37297,-0.2344 1.39099,-0.50817 2.26228,-0.60839 0.87129,-0.10022 2.29703,-0.36662 3.16832,-0.59201 0.87128,-0.22539 2.10016,-0.34367 2.73085,-0.26285 0.63068,0.0808 1.48853,-0.13674 1.90632,-0.48348 0.4178,-0.34674 2.6107,-0.79924 4.87311,-1.00556 2.26241,-0.20632 4.96892,-0.64443 6.01447,-0.97358 1.04554,-0.32916 3.04158,-0.72991 4.43564,-0.89057 1.39406,-0.16066 6.66931,-0.86925 11.72277,-1.57464 46.21384,-6.45083 95.8081,-5.36104 127.36634,2.79877 3.31089,0.85607 6.73267,1.71397 7.60396,1.90642 3.78836,0.83682 13.03622,4.23905 18.63833,6.85693 l 6.07454,2.83865 v 26.34028 c 0,14.48716 -0.15822,26.34028 -0.35159,26.34028 -0.19338,0 -1.54784,-0.53812 -3.0099,-1.19582 -11.39968,-5.12809 -29.0426,-10.29631 -44.79692,-13.12257 -9.98721,-1.79166 -12.77131,-2.11252 -36.11882,-4.16266 -10.36091,-0.90979 -39.96865,0.17846 -53.22772,1.95642 -2.61386,0.3505 -8.60198,1.09318 -13.30693,1.6504 -27.20478,3.22194 -47.83371,6.99286 -84.91089,15.52148 -37.10527,8.5351 -64.59111,13.24752 -94.41584,16.1875 -12.20602,1.20321 -51.79923,1.76009 -62.09901,0.87341 z"
       style="opacity:1;fill:#a395a6;fill-opacity:1;stroke:none;stroke-width:0.2634443;stroke-miterlimit:4;stroke-dasharray:none;stroke-dashoffset:0;stroke-opacity:1" />
    <path
       inkscape:connector-curvature="0"
       id="path1436"
       d="m 103.17893,208.63419 c -12.78689,-1.0258 -26.10581,-3.23754 -39.28713,-6.524 -9.99158,-2.49118 -9.86859,-2.45346 -14.41584,-4.42082 l -2.37624,-1.02807 v -26.38115 -26.38116 l 1.42574,0.33767 c 0.78416,0.18571 5.40753,1.51282 10.27416,2.94913 15.30893,4.51819 29.91771,7.00427 49.13178,8.36109 10.99357,0.77632 42.37801,0.36768 50.37624,-0.65592 2.78812,-0.35682 8.20594,-0.9921 12.0396,-1.41173 18.05525,-1.97632 31.41719,-4.05022 50.69307,-7.86803 2.78812,-0.55222 7.06535,-1.39445 9.50495,-1.87162 4.99228,-0.97646 13.14314,-2.65058 17.42575,-3.57911 1.56831,-0.34003 4.70495,-0.97761 6.97029,-1.41683 2.26535,-0.43922 4.54654,-0.97273 5.06931,-1.18559 0.52277,-0.21285 2.37624,-0.56913 4.11881,-0.79173 1.74258,-0.2226 4.02376,-0.6542 5.06931,-0.95911 1.04554,-0.30491 4.32475,-1.02104 7.28713,-1.5914 2.96237,-0.57035 6.38416,-1.2979 7.60396,-1.61678 1.2198,-0.31887 3.78614,-0.88026 5.70297,-1.24752 1.91683,-0.36727 5.76633,-1.10403 8.55445,-1.63726 2.78812,-0.53322 6.35248,-1.22502 7.9208,-1.53733 19.18979,-3.8214 41.68796,-7.00491 57.98019,-8.20425 4.87921,-0.35918 11.16727,-0.935 13.97348,-1.2796 6.59271,-0.80956 28.2073,-0.80837 34.78572,0.002 2.80621,0.34566 8.3814,0.91462 12.38932,1.26437 10.48439,0.91492 23.53819,2.87726 25.40293,3.81874 0.55379,0.27961 2.62489,0.71053 4.60244,0.95761 1.97754,0.24708 3.75117,0.70105 3.94139,1.00884 0.19022,0.30778 0.9911,0.5596 1.77974,0.5596 0.78863,0 2.69655,0.3937 4.23983,0.87488 1.54327,0.48119 4.51684,1.37212 6.60793,1.97985 2.09108,0.60773 4.29711,1.35462 4.90229,1.65977 0.60517,0.30514 1.41752,0.55481 1.80522,0.55481 0.3877,0 1.60346,0.39652 2.70167,0.88115 1.09822,0.48463 3.27992,1.35871 4.84824,1.94239 1.56832,0.58368 3.92079,1.52521 5.22772,2.09228 l 2.37624,1.03104 v 26.49192 c 0,14.57055 -0.13923,26.49191 -0.30941,26.49191 -0.17018,0 -2.8078,-1.03679 -5.86139,-2.30399 -28.75922,-11.93464 -66.8157,-17.48131 -106.75655,-15.5596 -35.77505,1.72128 -69.98079,6.71001 -110.12215,16.06073 -20.66751,4.81438 -28.4785,6.51362 -37.28904,8.11202 -1.86342,0.33806 -3.91799,0.78285 -4.56571,0.98843 -1.69504,0.53799 -4.89972,1.1353 -23.72941,4.4229 -3.13664,0.54765 -7.27129,1.2485 -9.18812,1.55745 -3.10413,0.50032 -5.32562,0.83415 -14.89109,2.23773 -5.26634,0.77276 -19.92959,2.29782 -27.24752,2.83392 -8.92373,0.65372 -42.46183,0.64078 -50.69307,-0.0196 z"
       style="opacity:1;fill:#ffffff;fill-opacity:1;stroke:none;stroke-width:0.2634443;stroke-miterlimit:4;stroke-dasharray:none;stroke-dashoffset:0;stroke-opacity:1" />
    <path
       sodipodi:nodetypes="ccsscccsscccc"
       inkscape:connector-curvature="0"
       id="path1438"
       d="m 34.890823,259.15494 0.25015,-233.029707 -1.45464,-3.168317 c -0.80005,-1.742574 -2.3257,-4.256523 -3.39034,-5.586553 -1.06464,-1.33003 -1.522603,-2.217624 -1.283413,-2.45591 0.23918,-0.238287 2.260293,-0.81767 4.757083,-0.804039 13.666861,0.03304 14.964119,13.673492 15.30554,25.090036 0.376932,17.539246 0.359502,53.053226 0.52278,127.59805 0.166414,75.97624 0.14593,180.26931 -0.0455,231.76238 l -0.34808,93.62376 h -7.28185 -7.28186 z"
       style="opacity:1;fill:#6e8189;fill-opacity:1;stroke:none;stroke-width:0.2634443;stroke-miterlimit:4;stroke-dasharray:none;stroke-dashoffset:0;stroke-opacity:1" />
    <path
       sodipodi:nodetypes="scccsscccs"
       inkscape:connector-curvature="0"
       id="path1440"
       d="M 20.82257,261.16996 C 21.041569,91.708847 21.011347,44.485023 22.025124,29.573454 c 0.136847,-6.462485 2.763465,-10.72507 6.987456,-14.659001 5.885521,6.402037 6.566345,6.192377 6.789098,13.702561 0.768888,13.532123 0.05572,49.641101 0.05552,154.967826 -1.63e-4,86.53956 -0.18986,191.38118 -0.42156,232.98141 L 35.01437,492.203 H 27.76919 20.524 Z"
       style="opacity:1;fill:#99a8ae;fill-opacity:1;stroke:none;stroke-width:0.26357049;stroke-miterlimit:4;stroke-dasharray:none;stroke-dashoffset:0;stroke-opacity:1" />
  </g>
</svg>
