<?xml version="1.0" encoding="UTF-8" standalone="no"?>
<!-- Created with Inkscape (http://www.inkscape.org/) -->

<svg
   xmlns:dc="http://purl.org/dc/elements/1.1/"
   xmlns:cc="http://creativecommons.org/ns#"
   xmlns:rdf="http://www.w3.org/1999/02/22-rdf-syntax-ns#"
   xmlns:svg="http://www.w3.org/2000/svg"
   xmlns="http://www.w3.org/2000/svg"
   xmlns:sodipodi="http://sodipodi.sourceforge.net/DTD/sodipodi-0.dtd"
   xmlns:inkscape="http://www.inkscape.org/namespaces/inkscape"
   version="1.1"
   id="svg815"
   width="512"
   height="512"
   viewBox="0 0 512 512"
   sodipodi:docname="autismprideflag.svg"
   inkscape:version="0.92.4 (5da689c313, 2019-01-14)"
   inkscape:export-filename="C:\Users\Lea Hermann\Documents\Queerness\Aspec_Deutschland\pride emojis\homemade emojis\autismprideflag.png"
   inkscape:export-xdpi="600"
   inkscape:export-ydpi="600">
  <metadata
     id="metadata821">
    <rdf:RDF>
      <cc:Work
         rdf:about="">
        <dc:format>image/svg+xml</dc:format>
        <dc:type
           rdf:resource="http://purl.org/dc/dcmitype/StillImage" />
        <dc:title></dc:title>
      </cc:Work>
    </rdf:RDF>
  </metadata>
  <defs
     id="defs819" />
  <sodipodi:namedview
     pagecolor="#ffffff"
     bordercolor="#666666"
     borderopacity="1"
     objecttolerance="10"
     gridtolerance="10"
     guidetolerance="10"
     inkscape:pageopacity="0"
     inkscape:pageshadow="2"
     inkscape:window-width="1920"
     inkscape:window-height="1001"
     id="namedview817"
     showgrid="false"
     inkscape:zoom="1.1159029"
     inkscape:cx="163.40458"
     inkscape:cy="298.84455"
     inkscape:window-x="-9"
     inkscape:window-y="-9"
     inkscape:window-maximized="1"
     inkscape:current-layer="svg815"
     showguides="false" />
  <g
     id="g1524"
     inkscape:export-xdpi="600"
     inkscape:export-ydpi="600">
    <path
       sodipodi:nodetypes="ccsscccsscccc"
       inkscape:connector-curvature="0"
       id="path1438"
       d="m 33.098571,254.98586 0.25015,-233.029711 -1.45464,-3.168317 c -0.80005,-1.742574 -2.3257,-4.256523 -3.39034,-5.586553 -1.06464,-1.33003 -1.522603,-2.217624 -1.283413,-2.45591 0.23918,-0.238287 2.260293,-0.8176703 4.757083,-0.8040393 13.666861,0.03304 14.964119,13.6734923 15.30554,25.0900363 0.376932,17.539246 0.359502,53.053226 0.52278,127.598054 0.166414,75.97624 0.14593,180.26931 -0.0455,231.76238 l -0.34808,93.62376 h -7.28185 -7.28186 z"
       style="opacity:1;fill:#6e8189;fill-opacity:1;stroke:none;stroke-width:0.2634443;stroke-miterlimit:4;stroke-dasharray:none;stroke-dashoffset:0;stroke-opacity:1" />
    <path
       sodipodi:nodetypes="scccsscccs"
       inkscape:connector-curvature="0"
       id="path1440"
       d="M 19.030318,257.00088 C 19.249317,87.539763 19.219095,40.315939 20.232872,25.40437 c 0.136847,-6.462485 2.763465,-10.72507 6.987456,-14.659001 5.885521,6.402037 6.566345,6.192377 6.789098,13.702561 0.768888,13.532123 0.05572,49.641101 0.05552,154.96783 -1.63e-4,86.53956 -0.18986,191.38118 -0.42156,232.98141 l -0.421268,75.63675 h -7.24518 -7.24519 z"
       style="opacity:1;fill:#99a8ae;fill-opacity:1;stroke:none;stroke-width:0.26357049;stroke-miterlimit:4;stroke-dasharray:none;stroke-dashoffset:0;stroke-opacity:1" />
    <g
       style="opacity:1"
       transform="matrix(1.014387,0,0,1.0501501,1040.8551,-632.51388)"
       id="g1511">
      <path
         sodipodi:nodetypes="ccccc"
         inkscape:connector-curvature="0"
         id="rect1459"
         d="m -979.48517,636 c 37.1936,14.58591 93.82257,16.37172 147.35954,6.63743 v 267.35431 c -59.30502,9.85262 -111.7386,4.01678 -146.99358,-5.74119 z"
         style="opacity:1;fill:#cc0000;fill-opacity:1;stroke:#000000;stroke-width:0;stroke-miterlimit:4;stroke-dasharray:none;stroke-dashoffset:0;stroke-opacity:1" />
      <path
         sodipodi:nodetypes="ccccc"
         inkscape:connector-curvature="0"
         id="rect1459-5"
         d="m -832.12563,642.63743 c 49.84864,-7.19055 95.94923,-19.05747 146.73488,-26.54972 v 267.95771 c -49.35334,5.66208 -96.49812,21.35091 -146.73488,25.94632 z"
         style="opacity:1;fill:#00cc00;fill-opacity:1;stroke:#000000;stroke-width:0;stroke-miterlimit:4;stroke-dasharray:none;stroke-dashoffset:0;stroke-opacity:1" />
      <path
         sodipodi:nodetypes="ccccc"
         inkscape:connector-curvature="0"
         id="rect1459-5-5"
         d="m -685.39075,616.08771 c 57.27893,-1.56481 92.47222,-7.18298 147.9843,15.14573 l -6e-5,267.89705 c -51.09493,-20.81515 -107.93213,-17.31011 -147.98424,-15.08507 z"
         style="opacity:1;fill:#0000cc;fill-opacity:1;stroke:#000000;stroke-width:0;stroke-miterlimit:4;stroke-dasharray:none;stroke-dashoffset:0;stroke-opacity:1" />
      <g
         aria-label="8"
         transform="matrix(0,0.81272282,-1.2304318,0,600.71287,16.468248)"
         style="font-style:normal;font-variant:normal;font-weight:normal;font-stretch:normal;font-size:355.36779785px;line-height:1.25;font-family:Calibri;-inkscape-font-specification:Calibri;font-variant-ligatures:normal;font-variant-caps:normal;font-variant-numeric:normal;font-feature-settings:normal;text-align:start;letter-spacing:0px;word-spacing:0px;writing-mode:lr-tb;text-anchor:start;opacity:1;fill:#ffffff;fill-opacity:1;stroke:none;stroke-width:1.85087395"
         id="text1501">
        <path
           d="m 943.82731,1219.3217 c -88.84921,-5.3429 -126.61928,-65.0302 -42.68996,-117.2974 -85.19626,-59.3676 -99.09254,-107.42896 -12.88828,-116.3982 105.12892,3.65528 121.74923,72.3813 51.68492,116.3647 71.43981,47.1032 112.71681,109.9254 3.89332,117.3309 z M 897.51985,1004.493 c -87.27592,5.0431 -14.12793,63.3185 23.92853,83.0452 46.4378,-26.8547 54.72963,-81.8716 -23.92853,-83.0452 z m 23.19819,110.5936 c -44.65007,28.1542 -61.20915,79.7543 21.65279,85.2098 80.96827,-4.9882 24.25566,-56.2764 -21.65279,-85.2098 z"
           style="fill:#ffffff;fill-opacity:1;stroke-width:1.85087395"
           id="path1503"
           inkscape:connector-curvature="0"
           sodipodi:nodetypes="ccccccccccc" />
      </g>
    </g>
  </g>
</svg>
