<?xml version="1.0" encoding="UTF-8" standalone="no"?>
<svg
   xmlns:dc="http://purl.org/dc/elements/1.1/"
   xmlns:cc="http://creativecommons.org/ns#"
   xmlns:rdf="http://www.w3.org/1999/02/22-rdf-syntax-ns#"
   xmlns:svg="http://www.w3.org/2000/svg"
   xmlns="http://www.w3.org/2000/svg"
   xmlns:sodipodi="http://sodipodi.sourceforge.net/DTD/sodipodi-0.dtd"
   xmlns:inkscape="http://www.inkscape.org/namespaces/inkscape"
   version="1.1"
   id="Layer_1"
   x="0px"
   y="0px"
   width="64px"
   height="64px"
   viewBox="0 0 64 64"
   style="enable-background:new 0 0 64 64;"
   xml:space="preserve"
   sodipodi:docname="bigender-flag.svg"
   inkscape:version="1.0.1 (c497b03c, 2020-09-10)"
   inkscape:export-filename="/Users/y.haupenthal/repos/github/foreign/pride-emoji-flags/png/bigender-flag.png"
   inkscape:export-xdpi="768"
   inkscape:export-ydpi="768"><metadata
   id="metadata1144"><rdf:RDF><cc:Work
       rdf:about=""><dc:format>image/svg+xml</dc:format><dc:type
         rdf:resource="http://purl.org/dc/dcmitype/StillImage" /><dc:title></dc:title></cc:Work></rdf:RDF></metadata><defs
   id="defs1142" /><sodipodi:namedview
   pagecolor="#ffffff"
   bordercolor="#666666"
   borderopacity="1"
   objecttolerance="10"
   gridtolerance="10"
   guidetolerance="10"
   inkscape:pageopacity="0"
   inkscape:pageshadow="2"
   inkscape:window-width="1792"
   inkscape:window-height="1075"
   id="namedview1140"
   showgrid="false"
   inkscape:zoom="11.484375"
   inkscape:cx="15.238095"
   inkscape:cy="32"
   inkscape:window-x="0"
   inkscape:window-y="24"
   inkscape:window-maximized="0"
   inkscape:current-layer="Layer_1" />
<style
   type="text/css"
   id="style1125">
	.st0{fill:#B9B9B9;}
	.st1{fill:#FFFFFF;}
	.st2{fill:#B8F483;}
	.st3{fill:#99A8AE;}
	.st4{fill:#6E8189;}
</style>
<path
   d="M4,4.31c19.33,8.01,38.67-8.01,58,0c0,11.79,0,23.58,0,35.37c-19.33-8.01-38.67,8.01-58,0C4,27.9,4,16.1,4,4.31z"
   id="path1127"
   style="fill:#c479a0;fill-opacity:1" />
<path
   style="fill:#eca6cb;fill-opacity:1"
   d="m 4,9.37 c 19.33,8.01 38.67,-8.01 58,0 0,8.42 0,16.85 0,25.27 -19.33,-8.01 -38.67,8.01 -58,0 C 4,26.21 4,17.79 4,9.37 Z"
   id="path1129" />
<path
   class="st1"
   d="M4,14.42c19.33,8.01,38.67-8.01,58,0c0,5.05,0,10.11,0,15.16c-19.33-8.01-38.67,8.01-58,0  C4,24.53,4,19.47,4,14.42z"
   id="path1131"
   style="fill:#d5c7e8;fill-opacity:1" />
<path
   class="st2"
   d="M4,19.47c19.33,8.01,38.67-8.01,58,0c0,1.68,0,3.37,0,5.05c-19.33-8.01-38.67,8.01-58,0  C4,22.84,4,21.16,4,19.47z"
   id="path1133"
   style="fill:#ffffff;fill-opacity:1" />
<path
   class="st3"
   d="M2,4.12V62l4,0V4.12C6,1.29,2,1.29,2,4.12z"
   id="path1135" />
<path
   class="st2"
   d="M 3.9999999,29.58 C 23.33,37.59 42.67,21.57 62,29.58 c 0,1.68 0,3.37 0,5.05 -19.33,-8.01 -38.67,8.01 -58.0000001,0 0,-1.68 0,-3.36 0,-5.05 z"
   id="path1133-2"
   style="fill:#9ac7e8;fill-opacity:1" /><path
   class="st2"
   d="m 4,34.64 c 19.33,8.01 38.67,-8.01 58,0 0,1.68 0,3.37 0,5.05 -19.33,-8.01 -38.67,8.01 -58,0 0,-1.68 0,-3.36 0,-5.05 z"
   id="path1133-4"
   style="fill:#6c83cf;fill-opacity:1" /><path
   class="st4"
   d="M2.99,2.27c0.57,0.32,1,0.91,1,1.82L4,61.97l2,0V4.09C6,2.18,4.18,1.6,2.99,2.27z"
   id="path1137" />
</svg>
