<?xml version="1.0" encoding="UTF-8" standalone="no"?>
<svg
   xmlns:dc="http://purl.org/dc/elements/1.1/"
   xmlns:cc="http://creativecommons.org/ns#"
   xmlns:rdf="http://www.w3.org/1999/02/22-rdf-syntax-ns#"
   xmlns:svg="http://www.w3.org/2000/svg"
   xmlns="http://www.w3.org/2000/svg"
   xmlns:sodipodi="http://sodipodi.sourceforge.net/DTD/sodipodi-0.dtd"
   xmlns:inkscape="http://www.inkscape.org/namespaces/inkscape"
   version="1.1"
   id="svg815"
   width="512"
   height="512"
   viewBox="0 0 512 512"
   sodipodi:docname="cupiosexualflag.svg"
   inkscape:version="1.0.2-2 (e86c870879, 2021-01-15)"
   inkscape:export-filename="C:\Users\leahermann\Documents\aspec\aspec_german\emojis\fraysexualflag.png"
   inkscape:export-xdpi="600"
   inkscape:export-ydpi="600">
  <metadata
     id="metadata821">
    <rdf:RDF>
      <cc:Work
         rdf:about="">
        <dc:format>image/svg+xml</dc:format>
        <dc:type
           rdf:resource="http://purl.org/dc/dcmitype/StillImage" />
        <dc:title></dc:title>
      </cc:Work>
    </rdf:RDF>
  </metadata>
  <defs
     id="defs819" />
  <sodipodi:namedview
     pagecolor="#ffffff"
     bordercolor="#666666"
     borderopacity="1"
     objecttolerance="10"
     gridtolerance="10"
     guidetolerance="10"
     inkscape:pageopacity="0"
     inkscape:pageshadow="2"
     inkscape:window-width="1920"
     inkscape:window-height="1017"
     id="namedview817"
     showgrid="false"
     inkscape:zoom="1.578125"
     inkscape:cx="221.63438"
     inkscape:cy="263.10368"
     inkscape:window-x="-8"
     inkscape:window-y="-8"
     inkscape:window-maximized="1"
     inkscape:current-layer="g3389"
     showguides="false"
     inkscape:pagecheckerboard="true"
     inkscape:document-rotation="0" />
  <g
     id="g3381">
    <g
       id="g1430"
       transform="translate(-1616.6281,-543.05801)">
      <g
         id="g3389"
         inkscape:export-xdpi="600"
         inkscape:export-ydpi="600">
        <g
           id="g3401"
           inkscape:export-xdpi="600"
           inkscape:export-ydpi="600">
          <path
             inkscape:connector-curvature="0"
             id="path1428"
             d="m 1715.5355,670.87994 c -1.5683,-0.3488 -5.9229,-0.88946 -9.6769,-1.20145 -3.754,-0.31197 -6.9787,-0.86791 -7.1661,-1.2354 -0.1874,-0.36748 -1.2765,-0.66816 -2.4202,-0.66816 -2.4182,0 -13.6777,-2.82363 -24.0097,-6.02109 -3.9205,-1.21329 -12.5847,-5.65921 -12.8093,-6.57295 -0.1144,-0.46552 -0.3663,-14.91188 -0.5597,-32.10303 l -0.3517,-31.25663 7.7716,3.34151 c 12.9413,5.56428 25.708,8.55722 45.7368,10.72218 17.5823,1.90051 55.9926,0.93361 70.9703,-1.78655 2.4396,-0.44306 5.5763,-0.98545 6.9703,-1.2053 14.9624,-2.35967 27.4975,-4.65173 31.0495,-5.67741 1.3941,-0.40254 3.6753,-0.91299 5.0693,-1.13432 2.8192,-0.44759 13.455,-2.9526 20.2773,-4.77584 2.4396,-0.65197 4.8633,-1.28376 5.3861,-1.40397 0.5228,-0.12023 2.0911,-0.48088 3.4851,-0.80147 1.3941,-0.3206 3.9409,-1.06732 5.6596,-1.65939 1.7187,-0.59206 4.0544,-1.07648 5.1903,-1.07648 1.136,0 2.2209,-0.30483 2.4109,-0.67741 0.1899,-0.37257 2.2741,-0.92617 4.6314,-1.23019 2.3573,-0.30405 4.5712,-0.77684 4.9197,-1.05065 0.3485,-0.27383 2.4872,-0.91109 4.7525,-1.41617 2.2653,-0.50506 5.5446,-1.30146 7.2871,-1.76979 1.7426,-0.46832 5.0218,-1.28705 7.2872,-1.81941 2.2653,-0.53235 4.5465,-1.17984 5.0693,-1.43887 0.5227,-0.25904 2.8039,-0.82424 5.0693,-1.25601 9.8857,-1.88423 17.1937,-3.55452 20.9109,-4.77934 1.2198,-0.40193 4.3564,-1.03542 6.9703,-1.40775 2.6138,-0.37232 9.4574,-1.3758 15.2079,-2.22993 20.9285,-3.10858 28.2561,-3.58172 55.1287,-3.55958 28.2073,0.0233 35.7114,0.65185 54.9599,4.60406 10.2736,2.10943 22.933,5.58117 23.9626,6.57154 0.3658,0.35187 1.8629,0.8719 3.3268,1.15562 1.4639,0.28374 2.6616,0.77884 2.6616,1.10026 0,0.32141 1.0331,0.8193 2.2958,1.10641 1.2627,0.28713 2.7598,0.81494 3.3268,1.17295 0.5669,0.35801 2.0289,1.15213 3.2487,1.76473 1.2198,0.61261 3.1445,1.59006 4.2772,2.17211 l 2.0594,1.05831 v 32.08066 32.08066 l -3.6436,-2.21976 c -13.2115,-8.0488 -34.7873,-14.61958 -60.0423,-18.28553 -11.8266,-1.71673 -56.2433,-1.98041 -70.0171,-0.41566 -35.4062,4.02224 -59.9798,9.22031 -104.2376,22.04941 -30.6818,8.89381 -56.5809,14.89839 -77.8624,18.05197 -18.0788,2.679 -25.4114,3.20939 -47.9198,3.46619 -13.0693,0.14912 -25.0455,-0.0143 -26.6138,-0.36308 z"
             style="opacity:1;fill:#9f9f9f;fill-opacity:1;stroke:none;stroke-width:0.290033;stroke-miterlimit:4;stroke-dasharray:none;stroke-dashoffset:0;stroke-opacity:1" />
          <path
             inkscape:connector-curvature="0"
             id="path1430"
             d="m 2011.8596,748.17943 c -23.1018,-0.16388 -53.1648,2.04923 -71.5652,5.55077 -2.092,0.39812 -5.6571,1.02832 -7.9235,1.39965 -2.2663,0.37131 -4.9762,0.85627 -6.0222,1.07799 -1.046,0.22171 -3.3292,0.66745 -5.0726,0.98889 -1.7433,0.32144 -3.598,0.77151 -4.121,0.99973 -0.523,0.22822 -2.662,0.71601 -4.754,1.08451 -5.0092,0.88235 -10.2476,2.01754 -12.9961,2.81669 -1.2203,0.35482 -4.6432,1.16488 -7.6069,1.79954 -2.9637,0.63468 -6.2444,1.42529 -7.2904,1.75826 -1.046,0.33296 -3.1851,0.81605 -4.7541,1.07364 -1.569,0.25759 -3.8522,0.75021 -5.0726,1.09538 -3.5041,0.99114 -21.1245,5.34217 -29.478,7.27859 -18.8554,4.37084 -47.3885,9.41847 -62.444,11.0472 -2.9637,0.32061 -8.5256,0.95828 -12.361,1.41702 -4.0321,0.48233 -16.7338,0.84094 -30.1131,0.84762 -20.0236,0.01 -24.6759,-0.19808 -34.5506,-1.54309 -15.1685,-2.06601 -32.5853,-6.11025 -39.3047,-9.12594 -0.6973,-0.31296 -2.6231,-1.0559 -4.2792,-1.65175 l -3.0112,-1.08451 v 33.64801 33.64801 l 5.5474,1.88648 c 14.3484,4.88436 31.8087,8.11232 53.4107,9.8736 8.0505,0.65638 52.1527,-0.24164 62.1255,-1.2649 22.8144,-2.34089 46.9285,-6.16464 67.5165,-10.70817 4.5327,-1.00031 9.0972,-1.97052 10.1432,-2.15598 1.046,-0.18544 11.1724,-2.71676 22.5042,-5.62466 73.3315,-18.87125 157.314,-39.4819 222.0408,-0.57594 l 3.6442,1.64089 v -32.97862 -32.97862 l -3.0111,-1.82128 c -15.9283,-9.63362 -44.3959,-16.66818 -76.5479,-18.91261 -4.3611,-0.30443 -9.3219,-0.46858 -14.6531,-0.5064 z"
             style="opacity:1;fill:#ffb2da;fill-opacity:1;stroke:none;stroke-width:0.277963;stroke-miterlimit:4;stroke-dasharray:none;stroke-dashoffset:0;stroke-opacity:1"
             sodipodi:nodetypes="sssssssssssssscscscccccssssccccccss" />
          <path
             inkscape:connector-curvature="0"
             id="path1432"
             d="m 1713.6344,732.16289 c -19.6431,-2.01246 -39.001,-6.99172 -50.0825,-12.88232 l -4.4126,-2.34555 v -30.86574 c 0,-29.10088 0.063,-30.83451 1.1089,-30.32155 0.6099,0.29925 1.9644,0.81046 3.0099,1.13605 1.0456,0.32557 3.6119,1.32154 5.703,2.21324 4.705,2.00628 14.187,4.90313 20.9109,6.38845 41.8923,9.25409 93.9964,5.35476 160.9505,-12.04497 4.1822,-1.08685 9.6,-2.46982 12.0396,-3.07329 2.4396,-0.60346 5.5762,-1.38973 6.9703,-1.74726 1.3941,-0.35753 4.3881,-1.05812 6.6535,-1.55687 2.2653,-0.49874 4.5465,-1.10116 5.0693,-1.33874 0.5227,-0.23756 2.8039,-0.85055 5.0693,-1.36218 2.2653,-0.51164 6.4,-1.49243 9.1881,-2.17955 17.6977,-4.36153 20.2183,-4.96121 25.3465,-6.03013 2.7881,-0.58116 6.6376,-1.38888 8.5545,-1.79495 32.7823,-6.94478 58.7848,-9.6207 85.5445,-8.80342 19.4185,0.59307 37.8747,3.06405 51.0099,6.82935 2.4396,0.69934 5.4337,1.55605 6.6535,1.90379 4.8588,1.38517 7.9813,2.40293 9.1881,2.99485 0.6971,0.34185 2.8357,1.17935 4.7525,1.8611 4.574,1.62682 11.5305,4.68605 15.6832,6.89691 l 3.3267,1.77115 c -0.1444,20.39126 0.113,40.7788 0.3544,61.16786 -77.6761,-25.85379 -162.7024,-18.69434 -236.0772,1.73362 -40.2528,11.54511 -67.6452,17.29895 -98.8515,20.76394 -9.6827,1.07512 -49.269,1.54623 -57.6633,0.68621 z"
             style="opacity:1;fill:#c7bfe6;fill-opacity:1;stroke:none;stroke-width:0.287242;stroke-miterlimit:4;stroke-dasharray:none;stroke-dashoffset:0;stroke-opacity:1"
             sodipodi:nodetypes="sccscccssssssssscsssssscccss" />
          <path
             inkscape:connector-curvature="0"
             id="path1436"
             d="m 1717.0118,791.22094 c -12.7397,-1.18299 -26.0096,-3.73365 -39.1423,-7.52371 -9.9548,-2.87291 -9.8323,-2.82941 -14.3628,-5.09824 l -2.3675,-1.1856 v -30.42365 -30.42367 l 1.4205,0.38942 c 0.7813,0.21417 5.3877,1.74464 10.2363,3.40104 15.2527,5.21053 29.8075,8.07756 48.9509,9.6423 10.953,0.89528 42.2219,0.42402 50.1906,-0.75644 2.7779,-0.41149 8.1758,-1.14412 11.9952,-1.62805 17.9888,-2.27917 31.3015,-4.67086 50.5064,-9.07368 2.7779,-0.63684 7.0394,-1.60813 9.47,-2.15842 4.9738,-1.12609 13.0947,-3.05674 17.3615,-4.12756 1.5625,-0.39212 4.6877,-1.12741 6.9447,-1.63393 2.257,-0.50652 4.5296,-1.12179 5.0506,-1.36726 0.5209,-0.24546 2.3675,-0.65634 4.1035,-0.91305 1.7363,-0.25671 4.0091,-0.75445 5.0507,-1.10608 1.0418,-0.35163 4.3089,-1.1775 7.2604,-1.83526 2.9514,-0.65774 6.3606,-1.49678 7.5759,-1.86452 1.2152,-0.36774 3.7722,-1.01515 5.682,-1.43869 1.9097,-0.42354 5.745,-1.2732 8.5229,-1.88815 2.7779,-0.61492 6.3291,-1.41272 7.8916,-1.77289 63.9044,-11.55302 135.3246,-15.34624 186.8735,10.54427 v 30.55139 c 0,16.80325 0.015,29.88921 -0.1547,29.88921 -35.6744,-16.27334 -79.4138,-21.50575 -112.3568,-19.93874 -35.6432,1.98504 -69.7229,7.73822 -109.7164,18.52179 -20.5914,5.55211 -28.3736,7.51173 -37.1517,9.35506 -1.8566,0.38986 -3.9035,0.90281 -4.549,1.13989 -1.6887,0.62043 -4.8816,1.30926 -23.642,5.10064 -3.125,0.63157 -7.2444,1.43981 -9.1542,1.7961 -3.0927,0.577 -5.3059,0.96198 -14.8362,2.58064 -5.2469,0.89117 -19.8562,2.64992 -27.1472,3.26816 -8.8908,0.7539 -42.3054,0.73898 -50.5064,-0.0226 z"
             style="opacity:1;fill:#ffffff;fill-opacity:1;stroke:none;stroke-width:0.282389;stroke-miterlimit:4;stroke-dasharray:none;stroke-dashoffset:0;stroke-opacity:1"
             sodipodi:nodetypes="csscccscsscsssssscssssccsccsscsssscc" />
          <path
             sodipodi:nodetypes="ccsscccsscccc"
             inkscape:connector-curvature="0"
             id="path1438"
             d="m 1646.9304,807.10544 0.2502,-233.02971 -1.4547,-3.16832 c -0.8,-1.74257 -2.3257,-4.25652 -3.3903,-5.58655 -1.0646,-1.33003 -1.5226,-2.21763 -1.2834,-2.45591 0.2392,-0.23829 2.2603,-0.81767 4.7571,-0.80404 13.6668,0.033 14.9641,13.67349 15.3055,25.09004 0.3769,17.53924 0.3595,53.05322 0.5228,127.59805 0.1664,75.97624 0.1459,180.26931 -0.045,231.76238 l -0.3481,93.62372 h -7.2818 -7.2819 z"
             style="opacity:1;fill:#6e8189;fill-opacity:1;stroke:none;stroke-width:0.263444;stroke-miterlimit:4;stroke-dasharray:none;stroke-dashoffset:0;stroke-opacity:1" />
          <path
             sodipodi:nodetypes="scccsscccs"
             inkscape:connector-curvature="0"
             id="path1440"
             d="m 1632.8622,809.12046 c 0.219,-169.46112 0.1888,-216.68494 1.2025,-231.59651 0.1369,-6.46249 2.7635,-10.72507 6.9875,-14.659 5.8855,6.40204 6.5663,6.19238 6.7891,13.70256 0.7689,13.53212 0.056,49.6411 0.055,154.96783 -2e-4,86.53956 -0.1899,191.38118 -0.4216,232.98141 l -0.4212,75.63675 h -7.2452 -7.2452 z"
             style="opacity:1;fill:#99a8ae;fill-opacity:1;stroke:none;stroke-width:0.26357;stroke-miterlimit:4;stroke-dasharray:none;stroke-dashoffset:0;stroke-opacity:1" />
        </g>
      </g>
    </g>
  </g>
</svg>
