<?xml version="1.0" encoding="UTF-8" standalone="no"?>
<!-- Created with Inkscape (http://www.inkscape.org/) -->

<svg
   xmlns:dc="http://purl.org/dc/elements/1.1/"
   xmlns:cc="http://creativecommons.org/ns#"
   xmlns:rdf="http://www.w3.org/1999/02/22-rdf-syntax-ns#"
   xmlns:svg="http://www.w3.org/2000/svg"
   xmlns="http://www.w3.org/2000/svg"
   xmlns:sodipodi="http://sodipodi.sourceforge.net/DTD/sodipodi-0.dtd"
   xmlns:inkscape="http://www.inkscape.org/namespaces/inkscape"
   version="1.1"
   id="svg815"
   width="512"
   height="509"
   viewBox="0 0 512 509"
   sodipodi:docname="demiboyflag.svg"
   inkscape:version="0.92.4 (5da689c313, 2019-01-14)"
   inkscape:export-filename="demiboyflag.png"
   inkscape:export-xdpi="600"
   inkscape:export-ydpi="600">
  <metadata
     id="metadata821">
    <rdf:RDF>
      <cc:Work
         rdf:about="">
        <dc:format>image/svg+xml</dc:format>
        <dc:type
           rdf:resource="http://purl.org/dc/dcmitype/StillImage" />
        <dc:title />
      </cc:Work>
    </rdf:RDF>
  </metadata>
  <defs
     id="defs819" />
  <sodipodi:namedview
     pagecolor="#ffffff"
     bordercolor="#666666"
     borderopacity="1"
     objecttolerance="10"
     gridtolerance="10"
     guidetolerance="10"
     inkscape:pageopacity="0"
     inkscape:pageshadow="2"
     inkscape:window-width="1920"
     inkscape:window-height="1001"
     id="namedview817"
     showgrid="false"
     inkscape:zoom="0.55795145"
     inkscape:cx="-448.74336"
     inkscape:cy="433.65285"
     inkscape:window-x="-9"
     inkscape:window-y="-9"
     inkscape:window-maximized="1"
     inkscape:current-layer="layer1"
     showguides="false"
     inkscape:snap-global="false" />
  <g
     inkscape:groupmode="layer"
     id="layer1"
     inkscape:label="Layer 1">
    <g
       id="g2099"
       inkscape:export-filename="demiboyflag.png"
       inkscape:export-xdpi="600"
       inkscape:export-ydpi="600">
      <path
         inkscape:connector-curvature="0"
         id="path1428"
         d="m 103.49587,86.330769 c -1.56832,-0.229664 -5.92292,-0.585653 -9.67689,-0.791081 -3.75398,-0.20542 -6.97873,-0.571472 -7.16611,-0.813443 -0.18739,-0.241963 -1.27647,-0.439936 -2.42019,-0.439936 -2.41817,0 -13.67768,-1.859192 -24.00964,-3.964527 C 56.30252,79.522898 47.63833,76.595528 47.41371,75.993888 47.29927,75.687369 47.04738,66.1753 46.85396,54.855959 l -0.35167,-20.580616 7.7716,2.200181 c 12.94129,3.663747 25.70803,5.634415 45.73683,7.059918 17.58229,1.251377 55.99262,0.614724 70.9703,-1.176337 2.4396,-0.291732 5.57623,-0.648863 6.97029,-0.793623 14.96238,-1.553705 27.49751,-3.062879 31.04951,-3.738225 1.39406,-0.265054 3.67525,-0.601154 5.06931,-0.746888 2.81919,-0.294715 13.45496,-1.944117 20.27722,-3.144603 2.43961,-0.429288 4.86337,-0.845283 5.38614,-0.924435 0.52277,-0.07915 2.09109,-0.316625 3.48515,-0.527718 1.39406,-0.211093 3.94087,-0.702766 5.65956,-1.092606 1.71871,-0.38984 4.05435,-0.708799 5.19033,-0.708799 1.13598,0 2.22086,-0.200715 2.41083,-0.446034 0.18998,-0.245318 2.27414,-0.609825 4.63146,-0.810014 2.35732,-0.200189 4.57119,-0.511495 4.9197,-0.691789 0.34852,-0.180295 2.48713,-0.599899 4.75248,-0.932454 2.26534,-0.332555 5.54455,-0.85694 7.28713,-1.165302 1.74257,-0.308362 5.02178,-0.847449 7.28712,-1.197972 2.26535,-0.350524 4.54654,-0.776861 5.06931,-0.947416 0.52277,-0.170556 2.80396,-0.542709 5.06931,-0.827008 9.88576,-1.240654 17.19371,-2.340438 20.91089,-3.146913 1.2198,-0.264646 4.35643,-0.681756 6.9703,-0.92691 2.61386,-0.245155 9.45742,-0.90588 15.20792,-1.468279 20.92855,-2.046816 28.25611,-2.358344 55.12871,-2.343774 28.20732,0.0153 35.7114,0.429208 54.95989,3.031499 10.27361,1.388935 22.93302,3.674868 23.96264,4.326977 0.3658,0.231683 1.86283,0.57409 3.32673,0.760903 1.4639,0.186815 2.66163,0.512817 2.66163,0.72445 0,0.211632 1.03313,0.539462 2.29583,0.728509 1.26271,0.189049 2.75974,0.53659 3.32674,0.772316 0.56699,0.235726 2.02892,0.758613 3.24872,1.161972 1.2198,0.403358 3.14455,1.046952 4.27723,1.430207 l 2.0594,0.696829 v 21.123194 21.123194 l -3.64356,-1.461572 c -13.21155,-5.299663 -34.78734,-9.626125 -60.04238,-12.039936 -11.8266,-1.130356 -56.24322,-1.303973 -70.01703,-0.273684 -35.40624,2.648405 -59.97986,6.071019 -104.23762,14.518215 -30.68184,5.856047 -56.58096,9.809691 -77.86241,11.886138 -18.07885,1.763967 -25.41136,2.113189 -47.91977,2.282281 -13.06931,0.09819 -25.04555,-0.0094 -26.61386,-0.239066 z"
         style="opacity:1;fill:#7f7f7f;fill-opacity:1;stroke:none;stroke-width:0.23534533;stroke-miterlimit:4;stroke-dasharray:none;stroke-dashoffset:0;stroke-opacity:1" />
      <path
         inkscape:connector-curvature="0"
         id="path1428-8"
         d="m 103.49558,127.18825 c -1.56832,-0.22966 -5.92292,-0.58565 -9.67689,-0.79108 -3.75398,-0.20542 -6.978731,-0.57147 -7.166111,-0.81344 -0.18739,-0.24197 -1.27647,-0.43994 -2.42019,-0.43994 -2.41817,0 -13.67768,-1.85919 -24.009639,-3.96453 -3.92052,-0.79888 -12.58471,-3.72625 -12.80933,-4.32789 -0.11444,-0.30652 -0.36633,-9.81859 -0.55975,-21.137937 L 46.502,75.132816 l 7.7716,2.200181 c 12.94129,3.663747 25.708029,5.634415 45.73683,7.059916 17.58229,1.25138 55.99262,0.61473 70.9703,-1.176335 2.4396,-0.291732 5.57623,-0.648863 6.97029,-0.793623 14.96238,-1.553705 27.49751,-3.062879 31.04951,-3.738225 1.39406,-0.265054 3.67525,-0.601154 5.06931,-0.746888 2.81919,-0.294715 13.45496,-1.944117 20.27722,-3.144603 2.43961,-0.429288 4.86337,-0.845283 5.38614,-0.924435 0.52277,-0.07915 2.09109,-0.316625 3.48515,-0.527718 1.39406,-0.211093 3.94087,-0.702766 5.65956,-1.092606 1.71871,-0.38984 4.05435,-0.708799 5.19033,-0.708799 1.13598,0 2.22086,-0.200715 2.41083,-0.446034 0.18998,-0.245318 2.27414,-0.609825 4.63146,-0.810014 2.35732,-0.200189 4.57119,-0.511495 4.9197,-0.691789 0.34852,-0.180295 2.48713,-0.599899 4.75248,-0.932454 2.26534,-0.332555 5.54455,-0.85694 7.28713,-1.165302 1.74257,-0.308362 5.02178,-0.847449 7.28712,-1.197972 2.26535,-0.350524 4.54654,-0.776861 5.06931,-0.947416 0.52277,-0.170556 2.80396,-0.542709 5.06931,-0.827008 9.88576,-1.240654 17.19371,-2.340438 20.91089,-3.146913 1.2198,-0.264646 4.35643,-0.681756 6.9703,-0.92691 2.61386,-0.245155 9.45742,-0.90588 15.20792,-1.468279 20.92855,-2.046816 28.25611,-2.358344 55.12871,-2.343774 28.20732,0.0153 35.7114,0.429208 54.95989,3.031499 10.27361,1.388935 22.93302,3.674868 23.96264,4.326977 0.3658,0.231683 1.86283,0.57409 3.32673,0.760903 1.4639,0.186815 2.66163,0.512817 2.66163,0.72445 0,0.211632 1.03313,0.539462 2.29583,0.728509 1.26271,0.189049 2.75974,0.53659 3.32674,0.772316 0.56699,0.235726 2.02892,0.758613 3.24872,1.161972 1.2198,0.403358 3.14455,1.046952 4.27723,1.430207 l 2.0594,0.696829 v 21.123195 21.123197 l -3.64356,-1.46157 c -13.21155,-5.29966 -34.78734,-9.62612 -60.04238,-12.039937 -11.8266,-1.13036 -56.24322,-1.30398 -70.01703,-0.27369 -35.40624,2.648417 -59.97986,6.071027 -104.23762,14.518227 -30.68184,5.85604 -56.58096,9.80969 -77.86241,11.88613 -18.07885,1.76397 -25.41136,2.11319 -47.91977,2.28229 -13.06931,0.0982 -25.04555,-0.009 -26.61386,-0.23907 z"
         style="opacity:1;fill:#c4c4c4;fill-opacity:1;stroke:none;stroke-width:0.23534533;stroke-miterlimit:4;stroke-dasharray:none;stroke-dashoffset:0;stroke-opacity:1" />
      <path
         inkscape:connector-curvature="0"
         id="path1428-1"
         d="m 103.49558,167.7427 c -1.56832,-0.22966 -5.92292,-0.58565 -9.67689,-0.79108 -3.75398,-0.20542 -6.97873,-0.57147 -7.16611,-0.81344 -0.18739,-0.24197 -1.27647,-0.43994 -2.42019,-0.43994 -2.41817,0 -13.67768,-1.85919 -24.00964,-3.96453 -3.92052,-0.79888 -12.58471,-3.72625 -12.80933,-4.32789 -0.11444,-0.30652 -0.36633,-9.81859 -0.55975,-21.13793 l -0.35167,-20.58062 7.7716,2.20019 c 12.94129,3.66374 25.70803,5.63441 45.73683,7.05991 17.58229,1.25138 55.99262,0.61473 70.9703,-1.17633 2.4396,-0.29174 5.57623,-0.64887 6.97029,-0.79363 14.96238,-1.5537 27.49751,-3.06288 31.04951,-3.73822 1.39406,-0.26506 3.67525,-0.60116 5.06931,-0.74689 2.81919,-0.29471 13.45496,-1.94412 20.27722,-3.1446 2.43961,-0.42929 4.86337,-0.84529 5.38614,-0.92444 0.52277,-0.0791 2.09109,-0.31662 3.48515,-0.52772 1.39406,-0.21109 3.94087,-0.70276 5.65956,-1.0926 1.71871,-0.38984 4.05435,-0.7088 5.19033,-0.7088 1.13598,0 2.22086,-0.20072 2.41083,-0.44603 0.18998,-0.24532 2.27414,-0.60983 4.63146,-0.81002 2.35732,-0.20019 4.57119,-0.51149 4.9197,-0.69179 0.34852,-0.18029 2.48713,-0.5999 4.75248,-0.93245 2.26534,-0.33256 5.54455,-0.85694 7.28713,-1.1653 1.74257,-0.30837 5.02178,-0.84745 7.28712,-1.19798 2.26535,-0.35052 4.54654,-0.77686 5.06931,-0.94741 0.52277,-0.17056 2.80396,-0.54271 5.06931,-0.82701 9.88576,-1.24065 17.19371,-2.34044 20.91089,-3.14691 1.2198,-0.26465 4.35643,-0.68176 6.9703,-0.92691 2.61386,-0.24516 9.45742,-0.90588 15.20792,-1.468284 20.92855,-2.04682 28.25611,-2.35835 55.12871,-2.34378 28.20732,0.0153 35.7114,0.42921 54.95989,3.031504 10.27361,1.38894 22.93302,3.67487 23.96264,4.32698 0.3658,0.23168 1.86283,0.57409 3.32673,0.7609 1.4639,0.18682 2.66163,0.51282 2.66163,0.72445 0,0.21164 1.03313,0.53947 2.29583,0.72851 1.26271,0.18905 2.75974,0.53659 3.32674,0.77232 0.56699,0.23572 2.02892,0.75861 3.24872,1.16197 1.2198,0.40336 3.14455,1.04695 4.27723,1.43021 l 2.0594,0.69683 v 21.12319 21.12319 l -3.64356,-1.46157 c -13.21155,-5.29966 -34.78734,-9.62612 -60.04238,-12.03993 -11.8266,-1.13036 -56.24322,-1.30398 -70.01703,-0.27369 -35.40624,2.64841 -59.97986,6.07102 -104.23762,14.51822 -30.68184,5.85604 -56.58096,9.80969 -77.86241,11.88614 -18.07885,1.76396 -25.41136,2.11318 -47.91977,2.28228 -13.06931,0.0982 -25.04555,-0.009 -26.61386,-0.23907 z"
         style="opacity:1;fill:#9ad9eb;fill-opacity:1;stroke:none;stroke-width:0.23534533;stroke-miterlimit:4;stroke-dasharray:none;stroke-dashoffset:0;stroke-opacity:1" />
      <path
         inkscape:connector-curvature="0"
         id="path1428-3"
         d="m 103.49558,250.11894 c -1.56832,-0.22967 -5.92292,-0.58566 -9.67689,-0.79108 -3.75398,-0.20542 -6.97873,-0.57148 -7.16611,-0.81345 -0.18739,-0.24196 -1.27647,-0.43993 -2.42019,-0.43993 -2.41817,0 -13.67768,-1.8592 -24.00964,-3.96453 -3.92052,-0.79888 -12.58471,-3.72625 -12.80933,-4.32789 -0.11444,-0.30652 -0.36633,-9.81859 -0.55975,-21.13793 l -0.35167,-20.58062 7.7716,2.20018 c 12.94129,3.66375 25.70803,5.63442 45.73683,7.05992 17.58229,1.25138 55.99262,0.61472 70.9703,-1.17634 2.4396,-0.29173 5.57623,-0.64886 6.97029,-0.79362 14.96238,-1.55371 27.49751,-3.06288 31.04951,-3.73823 1.39406,-0.26505 3.67525,-0.60115 5.06931,-0.74688 2.81919,-0.29472 13.45496,-1.94412 20.27722,-3.14461 2.43961,-0.42928 4.86337,-0.84528 5.38614,-0.92443 0.52277,-0.0791 2.09109,-0.31663 3.48515,-0.52772 1.39406,-0.21109 3.94087,-0.70277 5.65956,-1.09261 1.71871,-0.38984 4.05435,-0.70879 5.19033,-0.70879 1.13598,0 2.22086,-0.20072 2.41083,-0.44604 0.18998,-0.24532 2.27414,-0.60982 4.63146,-0.81001 2.35732,-0.20019 4.57119,-0.5115 4.9197,-0.69179 0.34852,-0.1803 2.48713,-0.5999 4.75248,-0.93246 2.26534,-0.33255 5.54455,-0.85694 7.28713,-1.1653 1.74257,-0.30836 5.02178,-0.84745 7.28712,-1.19797 2.26535,-0.35052 4.54654,-0.77686 5.06931,-0.94742 0.52277,-0.17055 2.80396,-0.54271 5.06931,-0.827 9.88576,-1.24066 17.19371,-2.34044 20.91089,-3.14692 1.2198,-0.26464 4.35643,-0.68175 6.9703,-0.92691 2.61386,-0.24515 9.45742,-0.90588 15.20792,-1.46828 20.92855,-2.04681 28.25611,-2.35834 55.12871,-2.34377 28.20732,0.0153 35.7114,0.42921 54.95989,3.0315 10.27361,1.38893 22.93302,3.67487 23.96264,4.32698 0.3658,0.23168 1.86283,0.57409 3.32673,0.7609 1.4639,0.18681 2.66163,0.51282 2.66163,0.72445 0,0.21163 1.03313,0.53946 2.29583,0.72851 1.26271,0.18905 2.75974,0.53659 3.32674,0.77231 0.56699,0.23573 2.02892,0.75862 3.24872,1.16198 1.2198,0.40335 3.14455,1.04695 4.27723,1.4302 l 2.0594,0.69683 v 21.1232 21.12319 l -3.64356,-1.46157 c -13.21155,-5.29966 -34.78734,-9.62613 -60.04238,-12.03994 -11.8266,-1.13035 -56.24322,-1.30397 -70.01703,-0.27368 -35.40624,2.6484 -59.97986,6.07102 -104.23762,14.51821 -30.68184,5.85605 -56.58096,9.80969 -77.86241,11.88614 -18.07885,1.76397 -25.41136,2.11319 -47.91977,2.28228 -13.06931,0.0982 -25.04555,-0.009 -26.61386,-0.23906 z"
         style="opacity:1;fill:#9ad9eb;fill-opacity:1;stroke:none;stroke-width:0.23534533;stroke-miterlimit:4;stroke-dasharray:none;stroke-dashoffset:0;stroke-opacity:1" />
      <path
         inkscape:connector-curvature="0"
         id="path1428-9"
         d="m 103.49559,208.93082 c -1.56832,-0.22967 -5.92293,-0.58566 -9.6769,-0.79108 -3.75398,-0.20542 -6.97873,-0.57148 -7.16611,-0.81345 -0.18739,-0.24196 -1.27647,-0.43993 -2.42019,-0.43993 -2.41817,0 -13.67768,-1.8592 -24.00964,-3.96453 -3.92052,-0.79888 -12.58471,-3.72625 -12.80933,-4.32789 -0.11444,-0.30652 -0.36633,-9.81859 -0.55975,-21.13793 l -0.35167,-20.58062 7.7716,2.20018 c 12.94129,3.66375 25.70803,5.63442 45.73683,7.05992 17.5823,1.25138 55.99263,0.61472 70.97031,-1.17634 2.4396,-0.29173 5.57623,-0.64886 6.97029,-0.79362 14.96237,-1.55371 27.4975,-3.06288 31.0495,-3.73823 1.39406,-0.26505 3.67525,-0.60115 5.06931,-0.74688 2.81919,-0.29472 13.45496,-1.94412 20.27722,-3.14461 2.43961,-0.42928 4.86337,-0.84528 5.38614,-0.92443 0.52277,-0.0791 2.09109,-0.31663 3.48515,-0.52772 1.39406,-0.21109 3.94087,-0.70277 5.65956,-1.09261 1.71871,-0.38984 4.05435,-0.70879 5.19033,-0.70879 1.13598,0 2.22086,-0.20072 2.41083,-0.44604 0.18998,-0.24532 2.27414,-0.60982 4.63146,-0.81001 2.35732,-0.20019 4.57119,-0.5115 4.9197,-0.69179 0.34852,-0.1803 2.48713,-0.5999 4.75248,-0.93246 2.26534,-0.33255 5.54455,-0.85694 7.28713,-1.1653 1.74257,-0.30836 5.02178,-0.84745 7.28712,-1.19797 2.26535,-0.35052 4.54654,-0.77686 5.06931,-0.94742 0.52277,-0.17055 2.80396,-0.5427 5.06931,-0.827 9.88576,-1.24066 17.19371,-2.34044 20.91089,-3.14692 1.2198,-0.26464 4.35643,-0.68175 6.9703,-0.92691 2.61386,-0.24515 9.45742,-0.90588 15.20792,-1.46828 20.92855,-2.04681 28.25611,-2.35834 55.12871,-2.34377 28.20732,0.0153 35.7114,0.42921 54.95989,3.0315 10.27361,1.38893 22.93302,3.67487 23.96264,4.32698 0.3658,0.23168 1.86283,0.57409 3.32673,0.7609 1.4639,0.18681 2.66163,0.51282 2.66163,0.72445 0,0.21163 1.03313,0.53946 2.29583,0.72851 1.26271,0.18905 2.75974,0.53659 3.32674,0.77231 0.56699,0.23573 2.02892,0.75862 3.24872,1.16198 1.2198,0.40335 3.14455,1.04695 4.27723,1.4302 l 2.0594,0.69683 v 21.1232 21.12319 l -3.64356,-1.46157 c -13.21155,-5.29966 -34.78734,-9.62613 -60.04238,-12.03994 -11.8266,-1.13035 -56.24322,-1.30397 -70.01703,-0.27368 -35.40624,2.6484 -59.97986,6.07102 -104.23762,14.51821 -30.68184,5.85605 -56.58096,9.80969 -77.8624,11.88614 -18.07885,1.76397 -25.41136,2.11319 -47.91977,2.28228 -13.06931,0.0982 -25.04555,-0.009 -26.61386,-0.23906 z"
         style="opacity:1;fill:#ffffff;fill-opacity:1;stroke:none;stroke-width:0.23534533;stroke-miterlimit:4;stroke-dasharray:none;stroke-dashoffset:0;stroke-opacity:1" />
      <path
         inkscape:connector-curvature="0"
         id="path1428-10"
         d="m 103.49558,289.40606 c -1.56832,-0.22966 -5.92292,-0.58565 -9.67689,-0.79108 -3.75398,-0.20542 -6.97873,-0.57147 -7.16611,-0.81344 -0.18739,-0.24196 -1.27647,-0.43994 -2.42019,-0.43994 -2.41817,0 -13.67768,-1.85919 -24.00964,-3.96452 -3.92052,-0.79889 -12.58471,-3.72626 -12.80933,-4.3279 -0.11444,-0.30652 -0.36633,-9.81858 -0.55975,-21.13793 l -0.35167,-20.58061 7.7716,2.20018 c 12.94129,3.66375 25.70803,5.63441 45.73683,7.05992 17.58229,1.25137 55.99262,0.61472 70.9703,-1.17634 2.4396,-0.29173 5.57623,-0.64886 6.97029,-0.79362 14.96238,-1.55371 27.49751,-3.06288 31.04951,-3.73823 1.39406,-0.26505 3.67525,-0.60115 5.06931,-0.74689 2.81919,-0.29471 13.45496,-1.94411 20.27722,-3.1446 2.43961,-0.42929 4.86337,-0.84528 5.38614,-0.92443 0.52277,-0.0791 2.09109,-0.31663 3.48515,-0.52772 1.39406,-0.21109 3.94087,-0.70277 5.65956,-1.09261 1.71871,-0.38984 4.05435,-0.7088 5.19033,-0.7088 1.13598,0 2.22086,-0.20071 2.41083,-0.44603 0.18998,-0.24532 2.27414,-0.60983 4.63146,-0.81001 2.35732,-0.20019 4.57119,-0.5115 4.9197,-0.69179 0.34852,-0.1803 2.48713,-0.5999 4.75248,-0.93246 2.26534,-0.33255 5.54455,-0.85694 7.28713,-1.1653 1.74257,-0.30836 5.02178,-0.84745 7.28712,-1.19797 2.26535,-0.35053 4.54654,-0.77686 5.06931,-0.94742 0.52277,-0.17055 2.80396,-0.54271 5.06931,-0.82701 9.88576,-1.24065 17.19371,-2.34043 20.91089,-3.14691 1.2198,-0.26464 4.35643,-0.68175 6.9703,-0.92691 2.61386,-0.24515 9.45742,-0.90588 15.20792,-1.46828 20.92855,-2.04681 28.25611,-2.35834 55.12871,-2.34377 28.20732,0.0153 35.7114,0.42921 54.95989,3.0315 10.27361,1.38893 22.93302,3.67487 23.96264,4.32697 0.3658,0.23169 1.86283,0.57409 3.32673,0.76091 1.4639,0.18681 2.66163,0.51281 2.66163,0.72445 0,0.21163 1.03313,0.53946 2.29583,0.72851 1.26271,0.18905 2.75974,0.53659 3.32674,0.77231 0.56699,0.23573 2.02892,0.75862 3.24872,1.16197 1.2198,0.40336 3.14455,1.04696 4.27723,1.43021 l 2.0594,0.69683 v 21.12319 21.1232 l -3.64356,-1.46157 c -13.21155,-5.29967 -34.78734,-9.62613 -60.04238,-12.03994 -11.8266,-1.13036 -56.24322,-1.30397 -70.01703,-0.27368 -35.40624,2.6484 -59.97986,6.07102 -104.23762,14.51821 -30.68184,5.85605 -56.58096,9.80969 -77.86241,11.88614 -18.07885,1.76397 -25.41136,2.11319 -47.91977,2.28228 -13.06931,0.0982 -25.04555,-0.009 -26.61386,-0.23907 z"
         style="opacity:1;fill:#c4c4c4;fill-opacity:1;stroke:none;stroke-width:0.23534533;stroke-miterlimit:4;stroke-dasharray:none;stroke-dashoffset:0;stroke-opacity:1" />
      <path
         inkscape:connector-curvature="0"
         id="path1428-4"
         d="m 103.49558,329.96051 c -1.56832,-0.22966 -5.92292,-0.58565 -9.67689,-0.79108 -3.75398,-0.20542 -6.97873,-0.57147 -7.16611,-0.81344 -0.18739,-0.24196 -1.27647,-0.43994 -2.42019,-0.43994 -2.41817,0 -13.67768,-1.85919 -24.00964,-3.96452 -3.92052,-0.79889 -12.58471,-3.72626 -12.80933,-4.3279 -0.11444,-0.30652 -0.36633,-9.81859 -0.55975,-21.13793 l -0.35167,-20.58061 7.7716,2.20018 c 12.94129,3.66375 25.70803,5.63441 45.73683,7.05992 17.58229,1.25137 55.99262,0.61472 70.9703,-1.17634 2.4396,-0.29173 5.57623,-0.64886 6.97029,-0.79362 14.96238,-1.55371 27.49751,-3.06288 31.04951,-3.73823 1.39406,-0.26505 3.67525,-0.60115 5.06931,-0.74689 2.81919,-0.29471 13.45496,-1.94411 20.27722,-3.1446 2.43961,-0.42929 4.86337,-0.84528 5.38614,-0.92443 0.52277,-0.0791 2.09109,-0.31663 3.48515,-0.52772 1.39406,-0.2111 3.94087,-0.70277 5.65956,-1.09261 1.71871,-0.38984 4.05435,-0.7088 5.19033,-0.7088 1.13598,0 2.22086,-0.20071 2.41083,-0.44603 0.18998,-0.24532 2.27414,-0.60983 4.63146,-0.81002 2.35732,-0.20018 4.57119,-0.51149 4.9197,-0.69178 0.34852,-0.1803 2.48713,-0.5999 4.75248,-0.93246 2.26534,-0.33255 5.54455,-0.85694 7.28713,-1.1653 1.74257,-0.30836 5.02178,-0.84745 7.28712,-1.19797 2.26535,-0.35053 4.54654,-0.77686 5.06931,-0.94742 0.52277,-0.17056 2.80396,-0.54271 5.06931,-0.82701 9.88576,-1.24065 17.19371,-2.34044 20.91089,-3.14691 1.2198,-0.26465 4.35643,-0.68176 6.9703,-0.92691 2.61386,-0.24516 9.45742,-0.90588 15.20792,-1.46828 20.92855,-2.04682 28.25611,-2.35834 55.12871,-2.34377 28.20732,0.0153 35.7114,0.4292 54.95989,3.0315 10.27361,1.38893 22.93302,3.67486 23.96264,4.32697 0.3658,0.23169 1.86283,0.57409 3.32673,0.76091 1.4639,0.18681 2.66163,0.51281 2.66163,0.72445 0,0.21163 1.03313,0.53946 2.29583,0.7285 1.26271,0.18905 2.75974,0.5366 3.32674,0.77232 0.56699,0.23573 2.02892,0.75861 3.24872,1.16197 1.2198,0.40336 3.14455,1.04696 4.27723,1.43021 l 2.0594,0.69683 v 21.12319 21.1232 l -3.64356,-1.46157 c -13.21155,-5.29967 -34.78734,-9.62613 -60.04238,-12.03994 -11.8266,-1.13036 -56.24322,-1.30397 -70.01703,-0.27368 -35.40624,2.6484 -59.97986,6.07101 -104.23762,14.51821 -30.68184,5.85605 -56.58096,9.80969 -77.86241,11.88614 -18.07885,1.76397 -25.41136,2.11319 -47.91977,2.28228 -13.06931,0.0982 -25.04555,-0.009 -26.61386,-0.23907 z"
         style="opacity:1;fill:#7f7f7f;fill-opacity:1;stroke:none;stroke-width:0.23534533;stroke-miterlimit:4;stroke-dasharray:none;stroke-dashoffset:0;stroke-opacity:1" />
      <path
         sodipodi:nodetypes="ccsscccsscccc"
         inkscape:connector-curvature="0"
         id="path1438"
         d="m 34.890823,259.15494 0.25015,-233.029707 -1.45464,-3.168317 c -0.80005,-1.742574 -2.3257,-4.256523 -3.39034,-5.586553 -1.06464,-1.33003 -1.522603,-2.217624 -1.283413,-2.45591 0.23918,-0.238287 2.260293,-0.81767 4.757083,-0.804039 13.666861,0.03304 14.964119,13.673492 15.30554,25.090036 0.376932,17.539246 0.359502,53.053226 0.52278,127.59805 0.166414,75.97624 0.14593,180.26931 -0.0455,231.76238 l -0.34808,93.62376 h -7.28185 -7.28186 z"
         style="opacity:1;fill:#6e8189;fill-opacity:1;stroke:none;stroke-width:0.2634443;stroke-miterlimit:4;stroke-dasharray:none;stroke-dashoffset:0;stroke-opacity:1" />
      <path
         sodipodi:nodetypes="scccsscccs"
         inkscape:connector-curvature="0"
         id="path1440"
         d="M 20.82257,261.16996 C 21.041569,91.708847 21.011347,44.485023 22.025124,29.573454 c 0.136847,-6.462485 2.763465,-10.72507 6.987456,-14.659001 5.885521,6.402037 6.566345,6.192377 6.789098,13.702561 0.768888,13.532123 0.05572,49.641101 0.05552,154.967826 -1.63e-4,86.53956 -0.18986,191.38118 -0.42156,232.98141 L 35.01437,492.203 H 27.76919 20.524 Z"
         style="opacity:1;fill:#99a8ae;fill-opacity:1;stroke:none;stroke-width:0.26357049;stroke-miterlimit:4;stroke-dasharray:none;stroke-dashoffset:0;stroke-opacity:1" />
    </g>
  </g>
</svg>
