<?xml version="1.0" encoding="UTF-8" standalone="no"?>
<!-- Generator: Adobe Illustrator 21.0.0, SVG Export Plug-In . SVG Version: 6.00 Build 0)  -->

<svg
   xmlns:dc="http://purl.org/dc/elements/1.1/"
   xmlns:cc="http://creativecommons.org/ns#"
   xmlns:rdf="http://www.w3.org/1999/02/22-rdf-syntax-ns#"
   xmlns:svg="http://www.w3.org/2000/svg"
   xmlns="http://www.w3.org/2000/svg"
   xmlns:sodipodi="http://sodipodi.sourceforge.net/DTD/sodipodi-0.dtd"
   xmlns:inkscape="http://www.inkscape.org/namespaces/inkscape"
   version="1.1"
   id="Layer_1"
   x="0px"
   y="0px"
   width="64px"
   height="64px"
   viewBox="0 0 64 64"
   style="enable-background:new 0 0 64 64;"
   xml:space="preserve"
   sodipodi:docname="lesbian2-flag.svg"
   inkscape:version="0.92.4 (5da689c313, 2019-01-14)"
   inkscape:export-filename="/home/nils/Documents/pride-emoji-flags/png/lesbian2-flag.png"
   inkscape:export-xdpi="818.8432"
   inkscape:export-ydpi="818.8432"><metadata
   id="metadata21"><rdf:RDF><cc:Work
       rdf:about=""><dc:format>image/svg+xml</dc:format><dc:type
         rdf:resource="http://purl.org/dc/dcmitype/StillImage" /><dc:title></dc:title></cc:Work></rdf:RDF></metadata><defs
   id="defs19" /><sodipodi:namedview
   pagecolor="#ffffff"
   bordercolor="#666666"
   borderopacity="1"
   objecttolerance="10"
   gridtolerance="10"
   guidetolerance="10"
   inkscape:pageopacity="0"
   inkscape:pageshadow="2"
   inkscape:window-width="1920"
   inkscape:window-height="1012"
   id="namedview17"
   showgrid="false"
   showguides="false"
   inkscape:zoom="8"
   inkscape:cx="18.208627"
   inkscape:cy="27.279939"
   inkscape:window-x="1080"
   inkscape:window-y="31"
   inkscape:window-maximized="1"
   inkscape:current-layer="layer4" />
<style
   type="text/css"
   id="style2">
	.st0{fill:#B9B9B9;}
	.st1{fill:#FFFFFF;}
	.st2{fill:#B8F483;}
	.st3{fill:#99A8AE;}
	.st4{fill:#6E8189;}
</style>
<path
   d="M4,4.31c19.33,8.01,38.67-8.01,58,0c0,11.79,0,23.58,0,35.37c-19.33-8.01-38.67,8.01-58,0C4,27.9,4,16.1,4,4.31z"
   id="path4"
   style="fill:#d62c00;fill-opacity:1" />
<path
   class="st0"
   d="M4,9.37c19.33,8.01,38.67-8.01,58,0c0,8.42,0,16.85,0,25.27c-19.33-8.01-38.67,8.01-58,0  C4,26.21,4,17.79,4,9.37z"
   id="path6"
   style="fill:#ef7527;fill-opacity:1" />
<path
   class="st1"
   d="M4,14.42c19.33,8.01,38.67-8.01,58,0c0,5.05,0,10.11,0,15.16c-19.33-8.01-38.67,8.01-58,0  C4,24.53,4,19.47,4,14.42z"
   id="path8"
   style="fill:#fe9957;fill-opacity:1" />
<path
   class="st2"
   d="M4,19.47c19.33,8.01,38.67-8.01,58,0c0,1.68,0,3.37,0,5.05c-19.33-8.01-38.67,8.01-58,0  C4,22.84,4,21.16,4,19.47z"
   id="path10"
   style="fill:#ffffff" />
<path
   class="st3"
   d="M2,4.12V62l4,0V4.12C6,1.29,2,1.29,2,4.12z"
   id="path12" />
<path
   class="st4"
   d="M2.99,2.27c0.57,0.32,1,0.91,1,1.82L4,61.97l2,0V4.09C6,2.18,4.18,1.6,2.99,2.27z"
   id="path14" />
<g
   inkscape:groupmode="layer"
   id="layer1"
   inkscape:label="Layer 1"
   style="display:inline"><path
     style="fill:#b65591;fill-opacity:0.94117647;stroke-width:0.06779661"
     d="m 14.431244,31.840303 c -0.167797,-0.01417 -0.732203,-0.05837 -1.254237,-0.09823 C 11.003429,31.57613 8.5273203,31.105032 6.5566667,30.482503 L 6.0244643,30.314381 v -2.512779 c 0,-2.198494 0.012638,-2.507929 0.1010405,-2.474006 0.6883942,0.264162 2.8601989,0.802035 4.1362472,1.024392 5.447152,0.949187 10.825586,0.606306 20.169492,-1.285824 1.398305,-0.283155 3.594915,-0.727769 4.881356,-0.98803 4.73031,-0.956994 7.555687,-1.40218 10.813559,-1.703861 1.468139,-0.13595 5.960541,-0.114638 7.288136,0.03458 2.870548,0.322632 5.232548,0.870161 7.627119,1.768022 l 0.949152,0.355892 0.01779,2.495043 0.01779,2.495044 -0.153387,-0.0354 c -0.08436,-0.01947 -0.56525,-0.188417 -1.06864,-0.375439 -2.20592,-0.819555 -4.667743,-1.381027 -7.38983,-1.685411 -1.33855,-0.149676 -5.754377,-0.17028 -7.254237,-0.03385 -3.239755,0.294699 -6.306359,0.784233 -11.389831,1.818201 -8.889881,1.808185 -11.061284,2.177314 -14.711864,2.50095 -1.108703,0.09829 -4.946727,0.185867 -5.627119,0.1284 z"
     id="path4632"
     inkscape:connector-curvature="0" /><path
     style="fill:#b65591;fill-opacity:0;stroke-width:0.06779661"
     d="M 14.631353,36.895378 C 11.986798,36.780448 9.4575144,36.379357 7.1343691,35.706513 6.5618451,35.540694 6.0779022,35.405025 6.0589404,35.405025 c -0.018962,0 -0.034476,-1.14225 -0.034476,-2.538334 v -2.538334 l 0.4915254,0.167784 c 0.6888745,0.235149 2.7759165,0.741772 3.7457622,0.909272 1.793583,0.309767 3.049186,0.417619 5.301809,0.455408 2.732547,0.04584 4.601914,-0.06832 7.545649,-0.460797 2.400178,-0.320008 4.585109,-0.72314 11.322034,-2.088981 7.72701,-1.566569 10.845119,-1.973966 15.105782,-1.97365 2.403194,1.79e-4 3.491213,0.05937 5.06371,0.275463 2.268224,0.311706 4.267284,0.818314 6.59322,1.670876 l 0.830508,0.304419 v 2.501657 c 0,1.375912 -0.02631,2.501658 -0.05847,2.501658 -0.03216,0 -0.276019,-0.08971 -0.541908,-0.199353 -1.429196,-0.589353 -3.892363,-1.270639 -5.738604,-1.587237 -5.478587,-0.939482 -10.763086,-0.595403 -20.218084,1.31642 -1.483444,0.299956 -3.746136,0.7574 -5.028206,1.016543 -7.144047,1.444013 -11.606296,1.940133 -15.807838,1.757539 z"
     id="path4634"
     inkscape:connector-curvature="0" /><path
     style="fill:#d161a7;fill-opacity:1;stroke-width:0.0625"
     d="M 13.898747,31.782075 C 10.942155,31.531352 9.0858779,31.20365 6.8206217,30.532524 l -0.765625,-0.226832 v -2.424513 c 0,-1.613541 0.021776,-2.437972 0.065103,-2.46475 0.035807,-0.02213 0.2537752,0.01694 0.4843751,0.08682 1.8801074,0.569741 4.4218092,1.050553 6.7005222,1.267531 1.28129,0.122005 4.86836,0.104025 6.40625,-0.03211 3.573856,-0.316361 6.637957,-0.81611 13.293819,-2.168198 6.305716,-1.280959 8.659237,-1.686637 12.018681,-2.071668 1.154197,-0.132285 1.506273,-0.143129 4.59375,-0.141496 3.129362,0.0017 3.411873,0.01095 4.40625,0.145025 2.339116,0.315382 4.11856,0.718986 6.09375,1.382154 0.704687,0.236598 1.414843,0.487594 1.578125,0.557769 l 0.296875,0.127591 v 2.465096 2.465097 l -1.546875,-0.523907 c -3.126527,-1.058915 -5.607377,-1.528339 -8.765625,-1.658623 -5.091803,-0.210047 -8.423157,0.172924 -17.71875,2.036938 -9.369697,1.878873 -11.747571,2.251833 -15.347407,2.407179 -1.305993,0.05636 -4.146378,0.06868 -4.715093,0.02045 z"
     id="path4644"
     inkscape:connector-curvature="0" /><path
     style="fill:#b65591;fill-opacity:1;stroke-width:0.03125"
     d="M 15.359431,36.935436 C 12.099585,36.842833 9.2332352,36.387902 6.4766189,35.525608 L 6.0156814,35.381423 v -2.522268 -2.522267 l 0.3359375,0.106929 c 2.5666958,0.816974 5.2788871,1.281549 8.2890621,1.419845 0.979317,0.04499 3.252455,0.01975 4.265625,-0.04736 3.754651,-0.248721 7.141273,-0.780363 13.75,-2.158513 7.933194,-1.654349 11.90515,-2.24842 15.5625,-2.327628 1.479007,-0.03203 3.883563,0.0077 4.6875,0.07744 2.548213,0.221072 4.871463,0.695475 7.181791,1.466508 0.514053,0.171557 1.4017,0.499576 1.782844,0.658828 l 0.11349,0.04742 v 2.515206 c 0,1.383363 -0.0057,2.515205 -0.0127,2.515205 -0.007,0 -0.242534,-0.08993 -0.523437,-0.199854 -2.303432,-0.901352 -4.723703,-1.508479 -7.291985,-1.8292 -0.552056,-0.06894 -1.252353,-0.135563 -2.0625,-0.196218 -0.725028,-0.05428 -3.979943,-0.05416 -4.796875,1.88e-4 -4.003215,0.266286 -7.056768,0.743184 -14.046875,2.193813 -7.022064,1.457262 -10.245438,1.983698 -13.671875,2.232871 -1.316204,0.09571 -3.223362,0.151355 -4.21875,0.123078 z"
     id="path4646"
     inkscape:connector-curvature="0" /><path
     style="fill:#a50262;fill-opacity:1;stroke-width:0.04419417"
     d="M 14.168202,41.917012 C 11.468884,41.764698 8.6180674,41.254832 6.3789791,40.523918 L 6.0364742,40.412113 v -2.493342 c 0,-1.393725 0.01704,-2.493342 0.038638,-2.493342 0.021251,0 0.1256596,0.03102 0.2320195,0.06894 0.4099732,0.146157 1.7311779,0.504283 2.4914786,0.675341 4.3657617,0.982237 9.0838247,1.046351 14.9364567,0.202972 2.315784,-0.33371 4.46944,-0.732587 9.151665,-1.694974 7.542529,-1.550294 10.4626,-2.013346 14.227472,-2.256129 1.09879,-0.07086 4.305064,-0.05736 5.370347,0.02261 3.173517,0.238227 6.118427,0.88688 8.87198,1.954165 l 0.629767,0.2441 v 2.49071 c 0,1.36989 -0.01646,2.49071 -0.03657,2.49071 -0.02012,0 -0.164301,-0.05215 -0.320408,-0.115891 -2.804195,-1.144966 -6.165127,-1.873938 -9.652241,-2.093531 -0.905155,-0.057 -3.628969,-0.05711 -4.574853,-1.77e-4 -3.554925,0.213942 -7.127313,0.744522 -12.506951,1.857563 -8.453862,1.749095 -11.345243,2.241776 -14.893437,2.537786 -1.822886,0.152075 -4.249954,0.196757 -5.833631,0.107395 z"
     id="path4650"
     inkscape:connector-curvature="0" /></g><g
   inkscape:groupmode="layer"
   id="layer2"
   inkscape:label="Layer 2"
   style="display:none"><path
     inkscape:connector-curvature="0"
     d="m 4,4.3100001 c 19.33,8.0099999 38.67,-8.01 58,0 C 62,16.1 62,27.89 62,39.68 42.67,31.67 23.33,47.69 4,39.68 4,27.9 4,16.1 4,4.3100001 Z"
     id="path4-5"
     style="fill:#d62c00;fill-opacity:1" /><path
     inkscape:connector-curvature="0"
     class="st0"
     d="m 4,9.3700001 c 19.33,8.0099999 38.67,-8.01 58,0 C 62,17.79 62,26.22 62,34.64 42.67,26.63 23.33,42.65 4,34.64 4,26.21 4,17.79 4,9.3700001 Z"
     id="path6-3"
     style="fill:#ef7527;fill-opacity:1" /><path
     inkscape:connector-curvature="0"
     class="st1"
     d="m 4,14.42 c 19.33,8.01 38.67,-8.0099999 58,0 0,5.05 0,10.11 0,15.16 -19.33,-8.01 -38.67,8.01 -58,0 0,-5.05 0,-10.11 0,-15.16 z"
     id="path8-5"
     style="fill:#fe9957;fill-opacity:1" /><path
     inkscape:connector-curvature="0"
     class="st2"
     d="m 4,19.47 c 19.33,8.01 38.67,-8.01 58,0 0,1.68 0,3.37 0,5.05 -19.33,-8.01 -38.67,8.01 -58,0 0,-1.68 0,-3.36 0,-5.05 z"
     id="path10-6"
     style="fill:#ffffff" /><path
     inkscape:connector-curvature="0"
     class="st4"
     d="m 2.99,2.27 c 0.57,0.32 1,0.91 1,1.82 L 4,61.97 H 6 V 4.09 C 6,2.18 4.18,1.6 2.99,2.27 Z"
     id="path14-2"
     style="fill:#6e8189" /></g><g
   inkscape:groupmode="layer"
   id="layer3"
   inkscape:label="Layer 3"
   style="display:none"><path
     style="fill:none;stroke:#000000;stroke-width:1px;stroke-linecap:butt;stroke-linejoin:miter;stroke-opacity:1"
     d="m 4.6101695,22.372881 c 0.180791,0 0.3623963,-0.01714 0.5423729,0 0.2959028,0.02818 0.5845983,0.118636 0.8813559,0.135594 2.4831711,0.141895 0.5189182,-0.206322 3.2542373,0.135593 0.5014239,0.06268 0.9880994,0.22741 1.4915254,0.271186 0.540334,0.04699 1.084746,0 1.627119,0 1.062147,0 2.124293,0 3.18644,0 0.271187,0 0.542373,0 0.81356,0 0.158192,0 0.317169,-0.01574 0.474576,0 0.136781,0.01368 0.271533,0.04321 0.40678,0.0678 0.113373,0.02061 0.224224,0.05736 0.338983,0.0678 0.247566,0.02251 0.498695,-0.02745 0.745762,0 0.09261,0.01029 0.178472,0.05853 0.271187,0.0678 0.124294,0.01243 0.600753,-0.01036 0.745763,0 0.204121,0.01458 0.405783,0.05758 0.610169,0.0678 0.248277,0.01241 0.498295,-0.02357 0.745763,0 0.229426,0.02185 0.44854,0.113743 0.677966,0.135593 0.247468,0.02357 0.497175,0 0.745763,0 0.158192,0 0.316384,0 0.474576,0 0.180791,0 0.361934,0.01128 0.542373,0 0.595495,-0.03722 0.45034,-0.111382 1.016949,-0.0678 0.137059,0.01054 0.269791,0.05638 0.40678,0.0678 0.135124,0.01126 0.271186,0 0.406779,0 0.361582,0 0.723164,0 1.084746,0 0.338983,0 0.677966,0 1.016949,0 0.20339,0 0.40678,0 0.61017,0 0.0452,0 0.09174,0.01096 0.135593,0 0.04902,-0.01226 0.08604,-0.05789 0.135593,-0.0678 0.06648,-0.0133 0.135593,0 0.20339,0 0.20339,0 0.40678,0 0.610169,0 0.0678,0 0.13593,0.0067 0.20339,0 0.11882,-0.01188 0.656681,-0.08853 0.81356,-0.135593 0.116566,-0.03497 0.219247,-0.113823 0.338983,-0.135593 0.177562,-0.03228 0.484261,0.02152 0.677966,0 0.641292,-0.07126 0.125074,-0.01909 0.474576,-0.135593 0.02144,-0.0071 0.0452,0 0.0678,0 0.0678,0 0.135593,0 0.203389,0 0.0452,0 0.09174,0.01096 0.135594,0 0.349101,-0.08728 -0.123897,-0.06947 0.338983,-0.135594 0.08949,-0.01278 0.181699,0.01278 0.271186,0 0.07075,-0.01011 0.135593,-0.0452 0.20339,-0.0678 0.0904,-0.0226 0.178579,-0.05751 0.271186,-0.0678 0.112304,-0.01248 0.225989,0 0.338983,0 0.0678,0 0.13691,0.0133 0.20339,0 0.04955,-0.0099 0.08604,-0.05789 0.135593,-0.0678 0.124268,-0.02485 0.349551,0.02501 0.474577,0 0.07008,-0.01402 0.134675,-0.04816 0.20339,-0.0678 0.08959,-0.0256 0.18279,-0.03833 0.271186,-0.0678 0.04794,-0.01598 0.08604,-0.05789 0.135593,-0.0678 0.06648,-0.0133 0.135593,0 0.20339,0 0.0678,-0.0226 0.133314,-0.05378 0.20339,-0.0678 0.04432,-0.0089 0.09039,0 0.135593,0 0.0226,0 0.04758,0.01011 0.0678,0 0.05717,-0.02858 0.07842,-0.107008 0.135593,-0.135593 0.02021,-0.01011 0.04758,0.01011 0.0678,0 0.02858,-0.01429 0.03921,-0.0535 0.0678,-0.0678 0.02021,-0.01011 0.04758,0.01011 0.0678,0 0.02858,-0.01429 0.03679,-0.06005 0.0678,-0.0678 0.06577,-0.01644 0.135594,0 0.20339,0 0.225989,0 0.451978,0 0.677966,0 0.271187,0 0.542373,0 0.81356,0 0.406779,0 0.813979,0.01847 1.220339,0 0.633853,-0.02881 2.395529,-0.186114 3.118644,-0.271187 0.316384,-0.0452 0.632768,-0.0904 0.949152,-0.135593 0.135593,0 0.272016,0.01497 0.40678,0 0.07103,-0.0079 0.133314,-0.05378 0.20339,-0.0678 0.04432,-0.0089 0.09517,0.02021 0.135593,0 0.02021,-0.01011 -0.01598,-0.05182 0,-0.0678 0.01598,-0.01598 0.04758,0.01011 0.0678,0 0.02858,-0.01429 0.03679,-0.06005 0.0678,-0.0678 0.06577,-0.01644 0.136516,0.01115 0.20339,0 0.582963,-0.09716 -0.302458,-0.06519 0.542373,-0.135593 0.157646,-0.01314 0.31685,0.01213 0.474576,0 0.623752,-0.04798 0.185385,-0.07333 0.745763,-0.135593 0.08984,-0.01 0.180791,0 0.271186,0 0.112995,0 0.225989,0 0.338983,0 0.0678,0 0.136275,0.0096 0.20339,0 0.09224,-0.01318 0.178472,-0.05852 0.271187,-0.0678 0.13492,-0.01349 0.271186,0 0.406779,0 0.180791,0 0.361582,0 0.542373,0 0.225989,0 0.452996,0.02143 0.677966,0 0.251525,-0.02396 0.494488,-0.109143 0.745763,-0.135593 0.179798,-0.01893 0.361582,0 0.542373,0 0.0904,0 0.180791,0 0.271186,0 0.0452,0 0.09271,0.01429 0.135594,0 0.03032,-0.01011 0.03921,-0.0535 0.0678,-0.0678 0.02063,-0.01032 0.172857,0 0.20339,0 0.158192,0 0.316384,0 0.474576,0 0.497175,0 0.994351,0 1.491526,0 0.158192,0 0.316384,0 0.474576,0 0.135593,0 0.271743,0.01228 0.40678,0 0.114758,-0.01043 0.224909,-0.0515 0.338983,-0.0678 0.10096,-0.01442 0.299111,0 0.406779,0 0.0452,0 0.0904,0 0.135594,0 0.0452,0 0.09175,-0.01096 0.135593,0 0.04902,0.01226 0.08575,0.05949 0.135593,0.0678 0.08917,0.01486 0.180884,-0.0041 0.271186,0 0.406987,0.0185 0.813876,0.04008 1.220339,0.0678 0.167523,0.01142 3.149839,0.239883 3.389831,0.271186 2.251317,0.29365 0.8191,0.272085 3.322034,0.677966 2.194793,0.355913 -0.128261,-0.201556 0.949152,0.0678 0.0904,0.0226 0.178729,0.05624 0.271187,0.0678 0.134546,0.01682 0.273031,-0.02229 0.406779,0 0.09191,0.01532 0.178729,0.05624 0.271187,0.0678 0.201819,0.02523 0.408024,-0.02246 0.610169,0 0.185216,0.02058 0.357158,0.115014 0.542373,0.135593 0.112304,0.01248 0.226276,-0.0081 0.338983,0 0.204122,0.01458 0.406235,0.0508 0.61017,0.0678 0.06756,0.0056 0.135593,0 0.20339,0 0.0904,0.0226 0.179276,0.05248 0.271186,0.0678 0.08917,0.01486 0.180791,0 0.271187,0 0.0226,0 0.0678,-0.0226 0.0678,0 0,0.0226 -0.0452,0 -0.0678,0 -0.135594,0 -0.271187,0 -0.40678,0 -0.158192,0 -0.316384,0 -0.474576,0 -0.20339,0 -0.407176,0.01269 -0.61017,0 -0.872502,-0.05453 -0.113193,-0.05777 -0.813559,-0.135594 -0.123343,-0.0137 -0.275919,0 -0.40678,0"
     id="path4612"
     inkscape:connector-curvature="0" /><path
     style="fill:none;stroke:#000000;stroke-width:1px;stroke-linecap:butt;stroke-linejoin:miter;stroke-opacity:1"
     d="m 66.508506,22.237267 c -0.06781,0.271193 -0.135614,0.542387 -0.203421,0.81358 -0.0452,0.112995 -0.103572,0.221573 -0.135593,0.338983 -0.03617,0.13262 -0.03003,0.274606 -0.0678,0.40678 -0.05304,0.185656 -0.142331,0.359197 -0.20339,0.542373 -0.06218,0.186533 -0.376385,1.256558 -0.40678,1.423729 -0.04465,0.245586 -0.03077,0.498911 -0.0678,0.745763 -0.03091,0.206046 -0.113782,0.402963 -0.135593,0.610169 -0.02366,0.224747 0,0.451977 0,0.677966 0,0.61017 0,1.220339 0,1.830509 0,0.612509 0.02824,1.222259 -0.0678,1.830508 -0.05046,0.319607 -0.145508,0.630805 -0.20339,0.949153 -0.02459,0.135246 -0.02737,0.275395 -0.0678,0.406779 -0.05061,0.164497 -0.148965,0.311301 -0.20339,0.474577 -0.03645,0.109361 -0.05949,0.415529 -0.135593,0.542372 -0.03289,0.05481 -0.107008,0.07842 -0.135594,0.135594 -0.392864,0.785728 0.08457,-0.05031 -0.0678,0.406779 -0.03196,0.09588 -0.103634,0.175308 -0.135593,0.271187 -0.03644,0.109319 -0.03136,0.229664 -0.0678,0.338983 -0.03196,0.09588 -0.09578,0.178293 -0.135593,0.271186 -0.0563,0.131372 -0.08541,0.272952 -0.135594,0.40678 -0.04273,0.11395 -0.106077,0.220918 -0.135593,0.338983 -0.01644,0.06577 0.01863,0.138202 0,0.20339 -0.02777,0.09718 -0.09806,0.17735 -0.135593,0.271186 -0.05308,0.132705 -0.07645,0.276663 -0.135593,0.40678 -0.05453,0.119962 -0.154451,0.216635 -0.20339,0.338983 -0.0428,0.10699 -0.02734,0.231088 -0.0678,0.338983 -0.02861,0.07629 -0.09915,0.130511 -0.135593,0.20339 -0.03196,0.06392 -0.04126,0.137037 -0.0678,0.20339 -0.01877,0.04692 -0.04903,0.08868 -0.0678,0.135593 -0.02654,0.06635 -0.03234,0.141342 -0.0678,0.20339 -0.319043,0.558325 -0.06514,0.0066 -0.474576,0.474576 -0.08677,0.09917 -0.124326,0.233565 -0.20339,0.338983 -0.05753,0.0767 -0.140992,0.130593 -0.20339,0.20339 -0.07353,0.08579 -0.12349,0.191287 -0.203389,0.271186 -0.03573,0.03573 -0.09986,0.03206 -0.135594,0.0678 -0.03573,0.03573 -0.03206,0.09986 -0.0678,0.135593 -0.03573,0.03573 -0.105274,0.02737 -0.135594,0.0678 -0.04288,0.05717 -0.03103,0.14211 -0.0678,0.20339 -0.03289,0.05481 -0.0904,0.0904 -0.135593,0.135593 -0.0678,0.0678 -0.12537,0.147661 -0.20339,0.20339 -0.08224,0.05874 -0.187095,0.07953 -0.271187,0.135593 -0.05318,0.03546 -0.0904,0.0904 -0.135593,0.135593 -0.0904,0.0904 -0.171361,0.191326 -0.271186,0.271187 -0.06363,0.0509 -0.139764,0.08469 -0.20339,0.135593 -0.04991,0.03993 -0.0904,0.0904 -0.135593,0.135593 -0.0452,0.0452 -0.09724,0.08446 -0.135594,0.135593 -0.06064,0.08085 -0.07495,0.190334 -0.135593,0.271187 -0.03835,0.05114 -0.0904,0.0904 -0.135593,0.135593 -0.112994,0.112994 -0.216223,0.236683 -0.338983,0.338983 -0.291444,0.24287 -0.101013,0.05051 -0.40678,0.20339 -0.247676,0.06728 -0.394943,0.290888 -0.610169,0.406779 -1.676443,0.9027 0.37017,-0.28678 -1.152543,0.474577 -0.101065,0.05053 -0.173079,0.147329 -0.271186,0.203389 -0.06205,0.03546 -0.137037,0.04126 -0.20339,0.0678 -0.300037,0.120015 0.05451,0.02317 -0.338983,0.135593 -0.478662,0.136761 -0.209815,0.02469 -0.949152,0.135594 -0.227915,0.03419 -0.451978,0.0904 -0.677967,0.135593 -0.338983,0.0226 -0.679291,0.03028 -1.016949,0.0678 -0.273245,0.03036 -0.540941,0.100035 -0.813559,0.135594 -0.247516,0.03228 -0.498078,0.03684 -0.745763,0.0678 -1.221746,0.152718 -0.842352,0.207415 -2.372881,0.271187 -0.587061,0.02446 -1.177013,-0.04686 -1.762712,0 -0.548103,0.04385 -1.077704,0.249209 -1.627119,0.271186 -0.588835,0.02355 -1.173755,-0.115284 -1.762711,-0.135593 -0.722735,-0.02492 -1.446681,0.02259 -2.169492,0 C 39.688288,44.45638 40.844767,44.401073 38.101653,44.13561 37.425383,44.07014 36.743401,44.07239 36.067797,44 c -0.591101,-0.06333 -1.172819,-0.19745 -1.762712,-0.271186 -0.49537,-0.06192 -0.996878,-0.06814 -1.491526,-0.135594 -0.500692,-0.06828 -0.987944,-0.229221 -1.491525,-0.271186 -0.585541,-0.0488 -1.175611,0.02348 -1.762712,0 -0.485875,-0.01944 -2.415835,-0.209866 -2.983051,-0.271187 -0.384589,-0.04158 -0.766514,-0.110688 -1.152542,-0.135593 -2.028523,0 0.09836,0.04811 -1.830509,-0.135593 -0.179976,-0.01714 -0.361934,0.01128 -0.542373,0 -0.181843,-0.01136 -0.360638,-0.05482 -0.542372,-0.0678 -0.135249,-0.0097 -0.271187,0 -0.40678,0 -0.361582,0 -0.723164,0 -1.084746,0 -0.248587,0 -0.497558,0.01379 -0.745763,0 -0.159552,-0.0089 -0.315248,-0.05554 -0.474576,-0.0678 -0.135194,-0.0104 -0.271186,0 -0.406779,0 -0.356433,0 -0.735424,0.01996 -1.084746,0 -3.255936,-0.186054 -0.08956,-0.135593 -3.593221,-0.135593 -0.451977,0 -0.904835,-0.02819 -1.355932,0 -1.296002,0.081 -0.344423,0.126685 -1.355932,0.271186 -0.13423,0.01918 -0.273031,-0.02229 -0.40678,0 -1.149468,0.191578 0.323075,0.100059 -0.813559,0.20339 -0.901526,0 0.0788,-0.03573 -0.542373,0.0678 -0.06687,0.01115 -0.135593,0 -0.20339,0 -0.112994,0 -0.2259884,0 -0.3389827,0 -0.3163842,0 -0.6327684,0 -0.9491526,0 -0.338983,0 -0.6779661,0 -1.0169491,0 -0.057535,0 -0.3694049,0.01246 -0.4067797,0 -0.03032,-0.01011 -0.037477,-0.05769 -0.067797,-0.0678 -0.042878,-0.01429 -0.091745,0.01096 -0.1355932,0 -0.049024,-0.01226 -0.086569,-0.05554 -0.1355932,-0.0678 -0.043848,-0.01096 -0.092715,0.01429 -0.1355933,0 -0.03032,-0.01011 -0.037477,-0.05769 -0.067797,-0.0678 -0.042878,-0.01429 -0.092715,0.01429 -0.1355932,0 -0.03032,-0.01011 -0.045198,-0.0452 -0.067797,-0.0678 -0.045198,-0.0452 -0.090395,-0.09039 -0.1355932,-0.135593 -0.045198,-0.0452 -0.080783,-0.102707 -0.1355932,-0.135593 -0.06128,-0.03677 -0.1394706,-0.03584 -0.2033899,-0.0678 -0.072879,-0.03644 -0.1305106,-0.09915 -0.2033898,-0.135593 -0.063919,-0.03196 -0.1377041,-0.03965 -0.2033898,-0.0678 -0.092894,-0.03981 -0.180791,-0.0904 -0.2711865,-0.135593 -0.1355932,-0.0678 -0.2711864,-0.135593 -0.4067796,-0.20339 -0.090395,-0.0452 -0.1765562,-0.100107 -0.2711865,-0.135593 -0.087245,-0.03272 -0.192172,-0.01841 -0.2711864,-0.0678 C 4.3661694,41.627161 4.2995981,41.507911 4.2033898,41.423729 4.1183529,41.349321 3.9970014,41.312908 3.9322034,41.220339 3.8635312,41.122236 3.552777,40.28545 3.5254237,40.20339 3.4733972,40.04731 3.4634071,39.875967 3.3898305,39.728814 3.3469522,39.643057 3.229319,39.61118 3.1864407,39.525424 3.1349073,39.422357 3.1550837,39.295759 3.1186441,39.186441 2.9955986,38.817304 2.9355647,38.949105 2.7118644,38.576271 2.649251,38.471915 2.6306965,38.346139 2.5762712,38.237288 2.5173405,38.119427 2.4235633,38.019942 2.3728814,37.898305 2.3096036,37.746438 2.292623,37.578666 2.2372881,37.423729 2.1215159,37.099566 1.9317375,36.80357 1.8305085,36.474576 c -0.040426,-0.131385 -0.048356,-0.270697 -0.067797,-0.406779 -0.087418,-0.611926 -0.067797,-0.436075 -0.067797,-1.01695 0,-0.135593 0,-0.271186 0,-0.406779 0,-0.112995 -0.00938,-0.226379 0,-0.338983 0.013271,-0.159246 0.045198,-0.316384 0.067797,-0.474577 0.022599,-0.158192 0.020802,-0.321844 0.067797,-0.474576 0.044583,-0.144894 0.1470878,-0.266024 0.2033898,-0.406779 0.034605,-0.08651 0.042199,-0.181595 0.067797,-0.271187 0.019633,-0.06871 0.05769,-0.132644 0.067797,-0.20339 0.022372,-0.156602 -0.022372,-0.317974 0,-0.474576 0.013177,-0.09224 0.047584,-0.180228 0.067797,-0.271186 0.024997,-0.112489 0.020997,-0.233683 0.067797,-0.338984 0.045891,-0.103255 0.1614248,-0.166273 0.2033899,-0.271186 0.3242145,-0.810536 -0.2444881,0.0144 0.2033898,-0.881356 0.042878,-0.08576 0.1605115,-0.117633 0.2033898,-0.20339 0.03032,-0.06064 -0.00675,-0.135929 0,-0.20339 0.0159,-0.159005 0.043498,-0.316636 0.067797,-0.474576 0.020902,-0.135865 0.037977,-0.272589 0.067797,-0.406779 0.031005,-0.139525 0.1075627,-0.266628 0.1355932,-0.40678 0.024514,-0.122573 -0.036772,-0.155124 0,-0.338983 0.00991,-0.04955 0.045198,-0.0904 0.067797,-0.135593 0.022599,-0.0452 0.045198,-0.0904 0.067797,-0.135594 0.4497061,-0.899412 -0.095879,0.223718 0.2033898,-0.474576 0.039812,-0.09289 0.094547,-0.178832 0.1355933,-0.271186 0.045198,-0.112995 0.090395,-0.225989 0.1355932,-0.338983 0,-0.0452 -0.010962,-0.09174 0,-0.135594 0.012256,-0.04902 0.049029,-0.08867 0.067797,-0.135593 0.026541,-0.06635 0.041256,-0.137037 0.067797,-0.20339 0.018767,-0.04692 0.049029,-0.08867 0.067797,-0.135593 0.026541,-0.06635 0.041256,-0.137037 0.067797,-0.20339 0.018767,-0.04692 0.049029,-0.08868 0.067797,-0.135593 0.2729837,-0.682459 -0.052935,0.143945 0.067797,-0.338983 0.033659,-0.134636 0.1697308,-0.272143 0.2033899,-0.40678 0.010962,-0.04385 -0.020213,-0.09517 0,-0.135593 0.067797,-0.135593 0.1355932,-0.101695 0.2033898,-0.20339 0.02803,-0.04205 0.045198,-0.0904 0.067797,-0.135593 0.045198,-0.0904 0.098059,-0.17735 0.1355932,-0.271186 0.026541,-0.06635 0.035837,-0.139471 0.067797,-0.20339 0.014293,-0.02859 0.048621,-0.04223 0.067797,-0.0678 0.048889,-0.06518 0.093671,-0.13352 0.1355933,-0.20339 0.025999,-0.04333 0.045198,-0.0904 0.067797,-0.135593 0.022599,-0.0452 0.051817,-0.08765 0.067797,-0.135593 0.00715,-0.02144 -0.01598,-0.05182 0,-0.0678 0.035732,-0.03573 0.099861,-0.03206 0.1355932,-0.0678 0.01598,-0.01598 -0.010107,-0.04758 0,-0.0678 0.014293,-0.02858 0.053504,-0.03921 0.067797,-0.0678 0.010107,-0.02021 -0.00715,-0.04636 0,-0.0678 0.01598,-0.04794 0.051817,-0.08765 0.067797,-0.135593 0.00715,-0.02144 -0.01598,-0.05182 0,-0.0678 0.01598,-0.01598 0.051817,0.01598 0.067797,0 0.01598,-0.01598 -0.010107,-0.04758 0,-0.0678 0.014293,-0.02858 0.053504,-0.03921 0.067797,-0.0678 0.020213,-0.04043 -0.020213,-0.09517 0,-0.135593 0.014293,-0.02859 0.053504,-0.03921 0.067797,-0.0678 0.010107,-0.02021 -0.01598,-0.05182 0,-0.0678 0.090395,-0.09039 0.067797,0.112995 0.067797,-0.0678"
     id="path4614"
     inkscape:connector-curvature="0" /><path
     style="fill:#fe9957;fill-opacity:1;stroke-width:0.06779661"
     d="M 13.801982,31.797974 C 11.748842,31.654325 9.8495888,31.350902 7.9265972,30.859328 7.2055164,30.674999 6.4935074,30.480659 6.3443549,30.427463 l -0.2711865,-0.09672 -0.017765,-2.509525 -0.017765,-2.509525 0.661833,0.1981 c 1.8512563,0.554119 3.9554266,0.968036 6.0177646,1.183771 1.426366,0.149208 5.436349,0.170497 6.949153,0.03689 3.999438,-0.353212 6.138571,-0.713185 15.118644,-2.544166 5.245068,-1.069437 7.929275,-1.495894 11.457627,-1.820346 1.24067,-0.114087 5.613772,-0.115281 6.711864,-0.0018 2.134811,0.220555 3.820814,0.51888 5.432924,0.961315 1.008311,0.276725 2.699667,0.835966 3.261992,1.078566 l 0.322034,0.138933 v 2.506135 2.506134 L 61.577665,29.395206 C 57.900278,27.90095 53.547061,27.177819 48.852829,27.28143 c -4.0754,0.08995 -7.836266,0.62119 -15.152542,2.140357 -7.700926,1.599038 -11.134197,2.146582 -14.915254,2.378714 -1.261004,0.07742 -3.859481,0.07612 -4.983051,-0.0025 z"
     id="path4616"
     inkscape:connector-curvature="0" /><path
     style="fill:#fe9957;fill-opacity:1;stroke-width:0.06779661"
     d="M 13.971474,31.82204 C 11.711386,31.684733 8.9270361,31.201587 6.920626,30.598565 l -0.8474576,-0.254702 -0.017771,-2.522184 -0.017771,-2.522184 0.322856,0.101213 c 2.0571212,0.644893 4.4831896,1.118294 6.7974326,1.326391 1.397166,0.125632 5.325456,0.10492 6.881356,-0.03628 3.62493,-0.328975 5.857856,-0.707697 14.576271,-2.472253 4.962157,-1.004312 7.330892,-1.403064 10.101695,-1.700515 5.013956,-0.538259 9.514031,-0.290042 13.457627,0.742301 0.891067,0.23326 2.626522,0.798522 3.304078,1.076183 l 0.458634,0.187947 0.01777,2.519442 0.01777,2.519442 -0.356756,-0.145154 c -3.645419,-1.483221 -8.380032,-2.267275 -12.865231,-2.13049 -4.333015,0.132145 -7.440055,0.585538 -15.898306,2.319954 -6.967255,1.428677 -10.301126,1.954655 -13.898305,2.192707 -0.932613,0.06172 -4.097276,0.07547 -4.98305,0.02166 z"
     id="path4618"
     inkscape:connector-curvature="0" /><path
     style="fill:#fe9957;fill-opacity:1;stroke-width:0.06779661"
     d="M 14.402247,36.887692 C 11.776211,36.746347 9.1264551,36.309131 7.0050716,35.667142 6.5108387,35.517574 6.0913472,35.3952 6.0728682,35.3952 c -0.018479,0 -0.033598,-1.128814 -0.033598,-2.508475 0,-1.379661 0.025732,-2.508475 0.057183,-2.508475 0.031451,0 0.2235989,0.05726 0.426996,0.127235 1.1663216,0.401273 3.3986295,0.878842 5.3124308,1.136515 1.118129,0.150544 1.617818,0.178066 3.786125,0.208536 4.758066,0.06686 7.894898,-0.32331 16.247774,-2.020968 7.721612,-1.569359 10.158479,-1.987176 13.627118,-2.336462 1.457716,-0.14679 5.37318,-0.206096 6.784897,-0.102769 3.01239,0.220484 6.046507,0.83848 8.401544,1.711244 0.50339,0.186553 1.014407,0.372189 1.135593,0.412524 l 0.220339,0.07334 v 2.4971 c 0,1.373405 -0.02521,2.497099 -0.05603,2.497099 -0.03081,0 -0.451855,-0.149385 -0.935648,-0.331968 -2.211365,-0.834563 -4.751088,-1.431056 -7.449005,-1.749512 -1.288824,-0.15213 -6.161479,-0.1733 -7.661017,-0.03328 -3.269345,0.305267 -6.040537,0.750642 -11.118644,1.786944 -7.61316,1.553638 -10.096815,2.001781 -12.881356,2.324273 -2.457909,0.284663 -5.600079,0.413764 -7.535328,0.3096 z"
     id="path4620"
     inkscape:connector-curvature="0" /><path
     style="fill:#fe9957;fill-opacity:1;stroke-width:0.06779661"
     d="M 13.157914,36.781239 C 10.866416,36.572342 8.6883404,36.158194 6.5817286,35.530819 6.1547796,35.403667 6.1190744,35.378175 6.0822547,35.1742 c -0.02181,-0.120823 -0.039726,-2.396411 -0.039813,-5.056862 -1.383e-4,-4.225229 0.012434,-4.832352 0.099375,-4.798989 0.6338037,0.243213 2.7453449,0.77073 3.9652493,0.99062 2.051575,0.3698 2.682371,0.421501 5.574691,0.456912 5.117514,0.06265 7.451257,-0.237754 17.306665,-2.22777 7.177925,-1.449376 9.560096,-1.843043 13.152542,-2.173536 1.465035,-0.134778 5.963915,-0.11292 7.277076,0.03536 1.52761,0.17249 3.243123,0.475989 4.498065,0.795773 1.160536,0.295728 3.053416,0.901467 3.672333,1.175181 l 0.363892,0.16093 0.04321,4.635083 c 0.02377,2.549295 0.02045,4.806181 -0.0074,5.015303 l -0.05059,0.380219 -1.016949,-0.370273 c -2.788544,-1.015314 -5.769318,-1.629198 -8.677966,-1.787208 -2.016044,-0.10952 -5.530306,-0.04129 -7.220339,0.140184 -3.0671,0.329343 -5.243142,0.700019 -11.56723,1.970413 -8.494868,1.706463 -10.736744,2.060855 -14.567206,2.302759 -1.465795,0.09257 -4.525087,0.07278 -5.729971,-0.03706 z M 12.39379,31.693222 c -0.02253,-0.02253 -0.081,-0.02494 -0.129944,-0.0053 -0.05408,0.02164 -0.03802,0.03771 0.04096,0.04096 0.07147,0.0029 0.111511,-0.01308 0.08898,-0.03561 z m 8.949153,-0.0678 c -0.02253,-0.02253 -0.081,-0.02494 -0.129944,-0.0053 -0.05408,0.02164 -0.03802,0.03771 0.04096,0.04096 0.07147,0.0029 0.111511,-0.01308 0.08898,-0.03561 z m 0.610169,-0.0678 c -0.02253,-0.02253 -0.081,-0.02494 -0.129944,-0.0053 -0.05408,0.02164 -0.03802,0.03771 0.04096,0.04096 0.07147,0.0029 0.111511,-0.01308 0.08898,-0.03561 z m 0.542373,-0.0678 c -0.02253,-0.02253 -0.081,-0.02494 -0.129944,-0.0053 -0.05408,0.02164 -0.03802,0.03771 0.04096,0.04096 0.07147,0.0029 0.111511,-0.01308 0.08898,-0.03561 z m 0.542373,-0.0678 c -0.02253,-0.02253 -0.081,-0.02494 -0.129944,-0.0053 -0.05408,0.02164 -0.03802,0.03771 0.04096,0.04096 0.07147,0.0029 0.111511,-0.01308 0.08898,-0.03561 z m 0.474576,-0.0678 c -0.02253,-0.02253 -0.081,-0.02494 -0.129944,-0.0053 -0.05408,0.02164 -0.03802,0.03771 0.04096,0.04096 0.07147,0.0029 0.111511,-0.01308 0.08898,-0.03561 z m 11.932204,-2.237288 c -0.02253,-0.02253 -0.081,-0.02494 -0.129944,-0.0053 -0.05408,0.02164 -0.03802,0.03771 0.04096,0.04096 0.07147,0.0029 0.111511,-0.01308 0.08898,-0.03561 z m 0.338983,-0.0678 c -0.02253,-0.02253 -0.081,-0.02494 -0.129944,-0.0053 -0.05408,0.02164 -0.03802,0.03771 0.04096,0.04096 0.07147,0.0029 0.111511,-0.01308 0.08898,-0.03561 z m 0.338983,-0.0678 c -0.02253,-0.02253 -0.081,-0.02494 -0.129944,-0.0053 -0.05408,0.02164 -0.03802,0.03771 0.04096,0.04096 0.07147,0.0029 0.111511,-0.01308 0.08898,-0.03561 z m 0.338983,-0.0678 c -0.02253,-0.02253 -0.081,-0.02494 -0.129944,-0.0054 -0.05408,0.02164 -0.03802,0.03771 0.04096,0.04096 0.07147,0.0029 0.111511,-0.01308 0.08898,-0.03561 z m 1.084746,-0.20339 c -0.02253,-0.02253 -0.081,-0.02494 -0.129944,-0.0054 -0.05408,0.02164 -0.03802,0.03771 0.04096,0.04096 0.07147,0.0029 0.111512,-0.01308 0.08898,-0.03561 z m 0.338983,-0.0678 c -0.02253,-0.02253 -0.081,-0.02494 -0.129944,-0.0054 -0.05408,0.02164 -0.03802,0.03771 0.04096,0.04096 0.07147,0.0029 0.111511,-0.01308 0.08898,-0.03561 z m 0.406779,-0.0678 c -0.02253,-0.02253 -0.081,-0.02494 -0.129943,-0.0054 -0.05408,0.02164 -0.03802,0.03771 0.04096,0.04096 0.07147,0.0029 0.111511,-0.01308 0.08898,-0.03561 z m 0.338983,-0.0678 c -0.02253,-0.02253 -0.081,-0.02494 -0.129943,-0.0054 -0.05408,0.02164 -0.03802,0.03771 0.04096,0.04096 0.07147,0.0029 0.111511,-0.01308 0.08898,-0.03561 z m 0.338983,-0.0678 c -0.02253,-0.02253 -0.081,-0.02494 -0.129943,-0.0054 -0.05408,0.02164 -0.03802,0.03771 0.04096,0.04096 0.07147,0.0029 0.111511,-0.01308 0.08898,-0.03561 z m 0.40678,-0.0678 c -0.02253,-0.02253 -0.081,-0.02494 -0.129944,-0.0054 -0.05408,0.02164 -0.03802,0.03771 0.04096,0.04096 0.07147,0.0029 0.111511,-0.01308 0.08898,-0.03561 z m 0.40678,-0.0678 c -0.02253,-0.02253 -0.081,-0.02494 -0.129944,-0.0054 -0.05408,0.02164 -0.03802,0.03771 0.04096,0.04096 0.07147,0.0029 0.111511,-0.01308 0.08898,-0.03561 z m 0.338983,-0.0678 c -0.02253,-0.02253 -0.081,-0.02494 -0.129944,-0.0054 -0.05408,0.02164 -0.03802,0.03771 0.04096,0.04096 0.07147,0.0029 0.111511,-0.01308 0.08898,-0.03561 z m 0.406779,-0.0678 c -0.02253,-0.02253 -0.081,-0.02494 -0.129943,-0.0054 -0.05408,0.02164 -0.03802,0.03771 0.04096,0.04096 0.07147,0.0029 0.111512,-0.01308 0.08898,-0.03561 z m 17.084746,0 c -0.02253,-0.02253 -0.081,-0.02494 -0.129944,-0.0054 -0.05408,0.02164 -0.03802,0.03771 0.04096,0.04096 0.07147,0.0029 0.111511,-0.01308 0.08898,-0.03561 z m -16.677966,-0.0678 c -0.02253,-0.02253 -0.081,-0.02494 -0.129944,-0.0054 -0.05408,0.02164 -0.03802,0.03771 0.04096,0.04096 0.07147,0.0029 0.111511,-0.01308 0.08898,-0.03561 z m 16.40678,0 c -0.02253,-0.02253 -0.081,-0.02494 -0.129944,-0.0054 -0.05408,0.02164 -0.03802,0.03771 0.04096,0.04096 0.07147,0.0029 0.111511,-0.01308 0.08898,-0.03561 z m -16,-0.0678 c -0.02253,-0.02253 -0.081,-0.02494 -0.129944,-0.0054 -0.05408,0.02164 -0.03802,0.03771 0.04096,0.04096 0.07147,0.0029 0.111511,-0.01308 0.08898,-0.03561 z m 15.661017,0 c -0.02253,-0.02253 -0.081,-0.02494 -0.129944,-0.0054 -0.05408,0.02164 -0.03802,0.03771 0.04096,0.04096 0.07147,0.0029 0.111511,-0.01308 0.08898,-0.03561 z m -0.338983,-0.0678 c -0.02253,-0.02253 -0.081,-0.02494 -0.129944,-0.0054 -0.05408,0.02164 -0.03802,0.03771 0.04096,0.04096 0.07147,0.0029 0.111511,-0.01308 0.08898,-0.03561 z m -14.405368,-0.07174 c -0.04661,-0.01881 -0.122881,-0.01881 -0.169491,0 -0.04661,0.01881 -0.0085,0.0342 0.08475,0.0342 0.09322,0 0.131356,-0.01539 0.08475,-0.0342 z m 14.101695,0 c -0.04661,-0.01881 -0.122881,-0.01881 -0.169491,0 -0.04661,0.01881 -0.0085,0.0342 0.08474,0.0342 0.09322,0 0.131356,-0.01539 0.08475,-0.0342 z m -13.662429,-0.06386 c -0.02253,-0.02253 -0.081,-0.02494 -0.129944,-0.0054 -0.05408,0.02164 -0.03802,0.03771 0.04096,0.04096 0.07147,0.0029 0.111511,-0.01308 0.08898,-0.03561 z m 13.288136,0 c -0.02253,-0.02253 -0.081,-0.02494 -0.129944,-0.0054 -0.05408,0.02164 -0.03802,0.03771 0.04096,0.04096 0.07147,0.0029 0.111512,-0.01308 0.08898,-0.03561 z m -12.778249,-0.07174 c -0.04661,-0.01881 -0.122882,-0.01881 -0.169492,0 -0.04661,0.01881 -0.0085,0.0342 0.08475,0.0342 0.09322,0 0.131356,-0.01539 0.08475,-0.0342 z m 12.40807,4.27e-4 c -0.0459,-0.01857 -0.137426,-0.0197 -0.20339,-0.0025 -0.06596,0.01719 -0.02841,0.03238 0.08345,0.03377 0.111865,0.0014 0.165835,-0.01268 0.119935,-0.03125 z m -11.865697,-0.06822 c -0.04661,-0.01881 -0.122882,-0.01881 -0.169492,0 -0.04661,0.01881 -0.0085,0.0342 0.08475,0.0342 0.09322,0 0.131356,-0.01539 0.08475,-0.0342 z m 11.38983,0 c -0.04661,-0.01881 -0.122881,-0.01881 -0.169491,0 -0.04661,0.01881 -0.0085,0.0342 0.08474,0.0342 0.09322,0 0.131356,-0.01539 0.08475,-0.0342 z m -10.847458,-0.0678 c -0.04661,-0.01881 -0.122881,-0.01881 -0.169491,0 -0.04661,0.01881 -0.0085,0.0342 0.08475,0.0342 0.09322,0 0.131356,-0.01539 0.08474,-0.0342 z m 10.441969,4.27e-4 c -0.0459,-0.01857 -0.137426,-0.0197 -0.20339,-0.0025 -0.06596,0.01719 -0.02841,0.03238 0.08346,0.03376 0.111865,0.0014 0.165835,-0.01268 0.119935,-0.03125 z m -9.831799,-0.06822 c -0.04661,-0.01881 -0.122881,-0.01881 -0.169492,0 -0.04661,0.01881 -0.0085,0.0342 0.08475,0.0342 0.09322,0 0.131356,-0.01539 0.08475,-0.0342 z m 9.289426,4.27e-4 c -0.0459,-0.01857 -0.137426,-0.0197 -0.20339,-0.0025 -0.06596,0.01719 -0.02841,0.03238 0.08346,0.03377 0.111865,0.0014 0.165835,-0.01268 0.119935,-0.03125 z m -0.577562,-0.07006 c -0.06525,-0.01705 -0.172034,-0.01705 -0.237288,0 -0.06525,0.01705 -0.01186,0.03101 0.118644,0.03101 0.130509,0 0.183899,-0.01395 0.118644,-0.03101 z m -6.98226,-0.06764 c -0.06482,-0.01697 -0.186854,-0.01759 -0.271186,-0.0014 -0.08433,0.01622 -0.0313,0.0301 0.117853,0.03085 0.149153,7.53e-4 0.218153,-0.01252 0.153333,-0.02948 z m 6.305085,0 c -0.06482,-0.01697 -0.186854,-0.01759 -0.271187,-0.0014 -0.08433,0.01622 -0.0313,0.0301 0.117854,0.03085 0.149152,7.53e-4 0.218152,-0.01252 0.153333,-0.02948 z m -4.438649,-0.07134 c -0.2315,-0.0132 -0.628111,-0.01329 -0.881356,-2.17e-4 -0.253246,0.01308 -0.06384,0.02388 0.420909,0.024 0.484746,1.15e-4 0.691947,-0.01058 0.460447,-0.02378 z m 3.422701,8.42e-4 c -0.138845,-0.01457 -0.382913,-0.01477 -0.542373,-4.47e-4 -0.15946,0.01432 -0.04586,0.02624 0.252445,0.02649 0.298306,2.44e-4 0.428773,-0.01147 0.289928,-0.02604 z m -1.659989,-0.06864 c -0.231501,-0.0132 -0.628111,-0.01329 -0.881356,-2.17e-4 -0.253246,0.01308 -0.06384,0.02388 0.420909,0.024 0.484746,1.15e-4 0.691946,-0.01058 0.460447,-0.02378 z"
     id="path4622"
     inkscape:connector-curvature="0" /><path
     style="fill:#000000;fill-opacity:1;stroke-width:0.06779661"
     d="m 14.378253,41.931888 c -0.167796,-0.01402 -0.732203,-0.0591 -1.254237,-0.10018 C 11.123018,41.674233 8.7647494,41.239219 6.9315858,40.689432 L 6.0731684,40.431983 6.0554042,37.923676 6.03764,35.415369 6.9028618,35.677122 c 1.6520037,0.499778 3.6145422,0.88498 5.7126792,1.121271 1.309199,0.147442 5.83218,0.169493 7.220339,0.0352 3.922633,-0.379476 6.400655,-0.787174 13.03448,-2.144503 9.772945,-1.999617 12.30635,-2.326232 17.510718,-2.257543 2.921016,0.03855 3.592023,0.09578 5.707697,0.486797 1.719466,0.317788 4.044099,0.980889 5.442021,1.552335 l 0.406779,0.166284 0.01902,1.887592 c 0.01046,1.038175 0.0038,1.948609 -0.0147,2.023185 -0.04022,0.16173 -0.673468,0.867572 -0.728749,0.81229 -0.02117,-0.02117 -0.492262,-0.191429 -1.046863,-0.378344 -5.126997,-1.727938 -10.628906,-2.063089 -17.618534,-1.073241 -2.624404,0.371659 -4.749699,0.767276 -10.711865,1.993978 -5.479933,1.127485 -8.793703,1.657762 -12.101695,1.936539 -0.854004,0.07197 -4.789355,0.140248 -5.355932,0.09292 z"
     id="path4630"
     inkscape:connector-curvature="0" /></g><g
   inkscape:groupmode="layer"
   id="layer4"
   inkscape:label="Layer 4"
   style="display:inline"><path
     inkscape:connector-curvature="0"
     class="st2"
     d="m 4,24.53 c 19.33,8.010001 38.67,-8.01 58,0 0,1.68 0,3.37 0,5.05 -19.33,-8.009999 -38.67,8.010002 -58,0 0,-1.68 0,-3.36 0,-5.05 z"
     id="path10-9"
     style="fill:#d161a7;fill-opacity:1" /><path
     inkscape:connector-curvature="0"
     class="st2"
     d="m 4,29.58 c 19.33,8.01 38.67,-8.01 58,0 0,1.68 0,3.37 0,5.05 -19.33,-8.01 -38.67,8.01 -58,0 0,-1.68 0,-3.36 0,-5.05 z"
     id="path10-1"
     style="fill:#b65591;fill-opacity:1" /><path
     inkscape:connector-curvature="0"
     class="st2"
     d="m 4,34.63 c 19.33,8.01 38.67,-8.01 58,0 0,1.68 0,3.37 0,5.05 -19.33,-8.01 -38.67,8.01 -58,0 C 4,38 4,36.32 4,34.63 Z"
     id="path10-2"
     style="fill:#a50262;fill-opacity:1" /><path
     inkscape:connector-curvature="0"
     class="st4"
     d="m 2.99,2.27 c 0.57,0.32 1,0.91 1,1.8199999 L 4,61.97 H 6 V 4.0899999 C 6,2.18 4.18,1.6 2.99,2.27 Z"
     id="path14-7"
     style="fill:#6e8189" /></g></svg>