<?xml version="1.0" encoding="UTF-8" standalone="no"?>
<!-- Generator: Adobe Illustrator 21.0.0, SVG Export Plug-In . SVG Version: 6.00 Build 0)  -->

<svg
   xmlns:dc="http://purl.org/dc/elements/1.1/"
   xmlns:cc="http://creativecommons.org/ns#"
   xmlns:rdf="http://www.w3.org/1999/02/22-rdf-syntax-ns#"
   xmlns:svg="http://www.w3.org/2000/svg"
   xmlns="http://www.w3.org/2000/svg"
   xmlns:sodipodi="http://sodipodi.sourceforge.net/DTD/sodipodi-0.dtd"
   xmlns:inkscape="http://www.inkscape.org/namespaces/inkscape"
   version="1.1"
   id="Layer_1"
   x="0px"
   y="0px"
   width="64px"
   height="64px"
   viewBox="0 0 64 64"
   style="enable-background:new 0 0 64 64;"
   xml:space="preserve"
   sodipodi:docname="masc-flag.svg"
   inkscape:version="0.92.4 (5da689c313, 2019-01-14)"><metadata
   id="metadata19"><rdf:RDF><cc:Work
       rdf:about=""><dc:format>image/svg+xml</dc:format><dc:type
         rdf:resource="http://purl.org/dc/dcmitype/StillImage" /><dc:title></dc:title></cc:Work></rdf:RDF></metadata><defs
   id="defs17" /><sodipodi:namedview
   pagecolor="#ffffff"
   bordercolor="#666666"
   borderopacity="1"
   objecttolerance="10"
   gridtolerance="10"
   guidetolerance="10"
   inkscape:pageopacity="0"
   inkscape:pageshadow="2"
   inkscape:window-width="1920"
   inkscape:window-height="1012"
   id="namedview15"
   showgrid="false"
   inkscape:zoom="3.6875"
   inkscape:cx="32.542373"
   inkscape:cy="32"
   inkscape:window-x="1080"
   inkscape:window-y="31"
   inkscape:window-maximized="1"
   inkscape:current-layer="Layer_1" />
<style
   type="text/css"
   id="style2">
	.st0{fill:#FF148C;}
	.st1{fill:#FFDA00;}
	.st2{fill:#05AEFF;}
	.st3{fill:#99A8AE;}
	.st4{fill:#6E8189;}
</style>
<path
   class="st0"
   d="M4,4.38c0,4.56,0,8.17,0,12.73c19.33,8.23,38.67-8.22,58,0c0-4.56,0-8.16,0-12.73C42.67-3.85,23.33,12.6,4,4.38  z"
   id="path4"
   style="fill:#05aeff;fill-opacity:1" />
<path
   class="st1"
   d="M4,16.13c0,4.52,0,8.15,0,12.73c19.33,8.23,38.67-8.23,58,0c0-7.71,0-4.93,0-12.73  C42.67,7.9,23.33,24.35,4,16.13z"
   id="path6"
   style="fill:#784f17;fill-opacity:1" />
<path
   class="st2"
   d="M4,27.88c0,2.37,0,9.38,0,11.75c19.33,8.23,38.67-8.23,58,0c0-5.33,0-6.43,0-11.75  C42.67,19.65,23.33,36.1,4,27.88z"
   id="path8"
   style="fill:#b57edc;fill-opacity:1" />
<path
   class="st3"
   d="M2,4.12V62l4,0V4.12C6,1.3,2,1.29,2,4.12z"
   id="path10" />
<path
   class="st4"
   d="M2.99,2.27c0.57,0.32,1,0.91,1,1.82L4,61.97l2,0V4.09C6,2.18,4.18,1.6,2.99,2.27z"
   id="path12" />
</svg>