<?xml version="1.0" encoding="UTF-8" standalone="no"?>
<!-- Created with Inkscape (http://www.inkscape.org/) -->

<svg
   xmlns:dc="http://purl.org/dc/elements/1.1/"
   xmlns:cc="http://creativecommons.org/ns#"
   xmlns:rdf="http://www.w3.org/1999/02/22-rdf-syntax-ns#"
   xmlns:svg="http://www.w3.org/2000/svg"
   xmlns="http://www.w3.org/2000/svg"
   xmlns:sodipodi="http://sodipodi.sourceforge.net/DTD/sodipodi-0.dtd"
   xmlns:inkscape="http://www.inkscape.org/namespaces/inkscape"
   version="1.1"
   id="svg815"
   width="512"
   height="512"
   viewBox="0 0 512 512"
   sodipodi:docname="polysexualflag.svg"
   inkscape:version="0.92.4 (5da689c313, 2019-01-14)"
   inkscape:export-filename="polysexualflag.png"
   inkscape:export-xdpi="600"
   inkscape:export-ydpi="600">
  <metadata
     id="metadata821">
    <rdf:RDF>
      <cc:Work
         rdf:about="">
        <dc:format>image/svg+xml</dc:format>
        <dc:type
           rdf:resource="http://purl.org/dc/dcmitype/StillImage" />
        <dc:title></dc:title>
      </cc:Work>
    </rdf:RDF>
  </metadata>
  <defs
     id="defs819" />
  <sodipodi:namedview
     pagecolor="#ffffff"
     bordercolor="#666666"
     borderopacity="1"
     objecttolerance="10"
     gridtolerance="10"
     guidetolerance="10"
     inkscape:pageopacity="0"
     inkscape:pageshadow="2"
     inkscape:window-width="1920"
     inkscape:window-height="1001"
     id="namedview817"
     showgrid="false"
     inkscape:zoom="0.7890625"
     inkscape:cx="2.8332778"
     inkscape:cy="229.21528"
     inkscape:window-x="-9"
     inkscape:window-y="-9"
     inkscape:window-maximized="1"
     inkscape:current-layer="svg815"
     showguides="false"
     inkscape:pagecheckerboard="true" />
  <path
     style="opacity:1;fill:#6e8189;fill-opacity:1;stroke:none;stroke-width:0.2634443;stroke-miterlimit:4;stroke-dasharray:none;stroke-dashoffset:0;stroke-opacity:1"
     d="m 36.932823,253.52051 0.25015,-233.029708 -1.45464,-3.168317 c -0.80005,-1.742574 -2.3257,-4.256523 -3.39034,-5.586553 -1.06464,-1.33003 -1.522603,-2.217624 -1.283413,-2.45591 0.23918,-0.238287 2.260293,-0.81767 4.757083,-0.804039 13.666861,0.03304 14.964119,13.673492 15.30554,25.090036 0.376932,17.539246 0.359502,53.053226 0.52278,127.598051 0.166414,75.97624 0.14593,180.26931 -0.0455,231.76238 l -0.34808,93.62376 h -7.28185 -7.28186 z"
     id="path1438"
     inkscape:connector-curvature="0"
     sodipodi:nodetypes="ccsscccsscccc" />
  <path
     style="opacity:1;fill:#99a8ae;fill-opacity:1;stroke:none;stroke-width:0.26357049;stroke-miterlimit:4;stroke-dasharray:none;stroke-dashoffset:0;stroke-opacity:1"
     d="M 22.86457,255.53553 C 23.083569,86.074416 23.053347,38.850592 24.067124,23.939023 c 0.136847,-6.462485 2.763465,-10.72507 6.987456,-14.659001 5.885521,6.402037 6.566345,6.192377 6.789098,13.702561 0.768888,13.532123 0.05572,49.641101 0.05552,154.967827 -1.63e-4,86.53956 -0.18986,191.38118 -0.42156,232.98141 L 37.05637,486.56857 H 29.81119 22.566 Z"
     id="path1440"
     inkscape:connector-curvature="0"
     sodipodi:nodetypes="scccsscccs" />
  <path
     sodipodi:nodetypes="scccscccccccss"
     inkscape:connector-curvature="0"
     id="path845"
     d="M 111.6402,141.48019 C 89.643867,140.32087 59.176693,133.95112 51.244171,128.85323 50.635254,116.79102 50.903695,48.570266 50.978999,40.278461 c 28.929553,11.439414 54.908571,11.484338 76.388181,11.54618 40.57219,-0.0237 78.7674,-5.16259 135.64287,-18.2496 72.52551,-16.68807 131.14476,-21.41331 181.1434,-14.60181 18.25488,2.48691 40.87485,8.37049 50.10172,13.03167 l 3.37006,1.70248 v 44.3587 44.358639 l -3.40185,-1.73058 c -5.88951,-2.99607 -21.12613,-7.93218 -31.75187,-10.28641 -51.9733,-11.515209 -116.48569,-7.62168 -198.50427,11.98052 -65.33245,15.61428 -110.61843,21.2902 -152.32704,19.09194 z"
     style="opacity:1;fill:#ff00ff;fill-opacity:0.99141636;stroke:#000000;stroke-width:0;stroke-miterlimit:4;stroke-dasharray:none;stroke-dashoffset:0;stroke-opacity:1" />
  <path
     inkscape:connector-curvature="0"
     id="path847"
     d="m 104.47022,325.3644 c -17.29104,-1.42023 -33.32449,-4.22184 -46.82307,-8.18164 l -6.49698,-1.90589 V 267.97883 220.6808 l 5.5632,2.1802 c 3.05976,1.19911 10.41927,3.38272 16.35447,4.85247 44.62679,11.05106 110.61788,6.64072 187.778,-12.54965 31.36718,-7.80129 63.1644,-13.67936 89.51776,-16.54837 56.58458,-6.16019 109.17747,-1.3784 140.11687,12.73955 l 6.9451,3.16908 v 47.01827 c 0,44.4214 -0.087,46.98356 -1.5682,46.38958 -27.6508,-11.08511 -72.69908,-17.61084 -112.24099,-16.25935 -37.18957,1.27111 -61.79846,4.83548 -109.74242,15.8952 -36.57374,8.43682 -65.88128,13.44362 -96.58371,16.50002 -16.58719,1.65123 -59.25329,2.41093 -72.82003,1.2966 z"
     style="opacity:1;fill:#1e53ff;fill-opacity:0.99141634;stroke:#000000;stroke-width:0;stroke-miterlimit:4;stroke-dasharray:none;stroke-dashoffset:0;stroke-opacity:1" />
  <path
     inkscape:connector-curvature="0"
     id="path849"
     d="M 108.50874,233.2492 C 88.57863,231.79239 67.10447,227.39799 55.48137,222.39787 l -4.3312,-1.86324 V 174.52587 128.5171 l 4.14546,1.77695 c 18.1429,7.77696 53.62057,12.46207 85.02001,11.22759 37.75548,-1.48438 71.32143,-6.61275 120.59252,-18.42472 51.12414,-12.2562 84.59646,-17.43127 120.99499,-18.70672 46.39573,-1.62576 83.58902,3.46818 108.57732,14.87059 l 6.9451,3.16908 v 46.04448 46.04447 l -3.3922,-1.73059 c -1.8658,-0.95183 -7.4577,-3.14567 -12.4266,-4.87522 -38.3287,-13.34135 -93.66787,-15.43372 -155.79112,-5.89044 -18.19847,2.79562 -37.22076,6.68323 -65.41788,13.36954 -27.41074,6.49983 -52.39805,11.48459 -69.31936,13.82862 -27.82118,3.85395 -62.08651,5.52571 -82.56967,4.02847 z"
     style="opacity:1;fill:#03c923;fill-opacity:0.99141634;stroke:#000000;stroke-width:0;stroke-miterlimit:4;stroke-dasharray:none;stroke-dashoffset:0;stroke-opacity:1" />
</svg>
