<?xml version="1.0" encoding="UTF-8" standalone="no"?>
<!-- Generator: Adobe Illustrator 21.0.0, SVG Export Plug-In . SVG Version: 6.00 Build 0)  -->

<svg
   xmlns:dc="http://purl.org/dc/elements/1.1/"
   xmlns:cc="http://creativecommons.org/ns#"
   xmlns:rdf="http://www.w3.org/1999/02/22-rdf-syntax-ns#"
   xmlns:svg="http://www.w3.org/2000/svg"
   xmlns="http://www.w3.org/2000/svg"
   xmlns:sodipodi="http://sodipodi.sourceforge.net/DTD/sodipodi-0.dtd"
   xmlns:inkscape="http://www.inkscape.org/namespaces/inkscape"
   version="1.1"
   id="Layer_1"
   x="0px"
   y="0px"
   width="64px"
   height="64px"
   viewBox="0 0 64 64"
   style="enable-background:new 0 0 64 64;"
   xml:space="preserve"
   sodipodi:docname="progresspride-flag.svg"
   inkscape:version="0.92.4 (5da689c313, 2019-01-14)"><metadata
   id="metadata21"><rdf:RDF><cc:Work
       rdf:about=""><dc:format>image/svg+xml</dc:format><dc:type
         rdf:resource="http://purl.org/dc/dcmitype/StillImage" /><dc:title></dc:title></cc:Work></rdf:RDF></metadata><defs
   id="defs19" /><sodipodi:namedview
   pagecolor="#ffffff"
   bordercolor="#666666"
   borderopacity="1"
   objecttolerance="10"
   gridtolerance="10"
   guidetolerance="10"
   inkscape:pageopacity="0"
   inkscape:pageshadow="2"
   inkscape:window-width="1920"
   inkscape:window-height="1012"
   id="namedview17"
   showgrid="false"
   inkscape:zoom="7.375"
   inkscape:cx="10.614665"
   inkscape:cy="33.818068"
   inkscape:window-x="1080"
   inkscape:window-y="31"
   inkscape:window-maximized="1"
   inkscape:current-layer="g867" />
<style
   type="text/css"
   id="style2">
	.st0{fill:#D2D2D2;}
	.st1{fill:#6E0070;}
	.st2{fill:#FFFFFF;}
	.st3{fill:#99A8AE;}
	.st4{fill:#6E8189;}
</style>
<path
   class="st0"
   d="M5,22.61c19.33,7.81,38.67-7.81,58,0c0,11.83,0,5.3,0,17.13c-19.33-7.81-38.67,7.81-58,0"
   id="path4" />
<path
   class="st1"
   d="M5,5.27c22.19,10.97,45.08,0.85,58,13.77v5.92c-19.33-7.81-38.67,7.81-58,0"
   id="path6" />
<path
   class="st2"
   d="M5,4.25c19.33,7.81,38.67-7.81,58,0c0,4.93,0,9.86,0,14.79c-19.33-7.81-38.67,7.81-58,0"
   id="path8" />
<path
   d="M7,4.98c0,0,6.17,9.12,20.18,18.32c0,0-10.37,11.69-20.18,17.17c0,0-2-13.37-2-17.86C5,12.07,7,4.98,7,4.98z"
   id="path10" />
<path
   class="st3"
   d="M3,4.12V62l4,0V4.12C7,1.3,3,1.29,3,4.12z"
   id="path12" />
<path
   class="st4"
   d="M4,2.27c0.57,0.32,1,0.91,1,1.82L5,61.97l2,0V4.09C7,2.18,5.18,1.6,4,2.27z"
   id="path14" />
<g
   inkscape:groupmode="layer"
   id="layer1"
   inkscape:label="Layer 1" /><g
   inkscape:groupmode="layer"
   id="layer2"
   inkscape:label="Layer 2"
   style="display:inline"><g
     id="g867"
     transform="translate(1)"><path
       id="path835"
       d="M 62,11.23 C 42.67,3 23.33,19.46 4,11.23 4,9.27 4,6.33 4,4.38 c 19.33,8.23 38.67,-8.23 58,0 0,1.95 0,4.89 0,6.85 z"
       class="st0"
       inkscape:connector-curvature="0"
       style="fill:#e81c27" /><path
       id="path837"
       d="m 62,17.1 c -19.33,-8.23 -38.67,8.23 -58,0 0,-1.96 0,-4.9 0,-6.85 19.33,8.23 38.67,-8.23 58,0 0,1.96 0,4.9 0,6.85 z"
       class="st1"
       inkscape:connector-curvature="0"
       style="fill:#ea8800" /><path
       id="path839"
       d="m 62,22.98 c -19.33,-8.23 -38.67,8.23 -58,0 0,-1.96 0,-4.9 0,-6.85 19.33,8.23 38.67,-8.23 58,0 0,1.95 0,4.89 0,6.85 z"
       class="st2"
       inkscape:connector-curvature="0"
       style="fill:#ffe12c" /><path
       id="path841"
       d="m 62,28.85 c -19.33,-8.23 -38.67,8.23 -58,0 0,-1.96 0,-4.9 0,-6.85 19.33,8.23 38.67,-8.23 58,0 0,1.96 0,4.9 0,6.85 z"
       class="st3"
       inkscape:connector-curvature="0"
       style="fill:#2eb219;fill-opacity:1" /><path
       id="path843"
       d="m 62,34.73 c -19.33,-8.23 -38.67,8.23 -58,0 0,-1.96 0,-4.9 0,-6.85 19.33,8.23 38.67,-8.23 58,0 0,1.95 0,4.89 0,6.85 z"
       class="st4"
       inkscape:connector-curvature="0"
       style="fill:#005bae;fill-opacity:1" /><path
       id="path845"
       d="m 62,39.63 c -19.33,-8.23 -38.67,8.23 -58,0 0,-1.96 0,-3.92 0,-5.88 19.33,8.23 38.67,-8.23 58,0 0,1.96 0,3.92 0,5.88 z"
       class="st5"
       inkscape:connector-curvature="0"
       style="fill:#7d0c7a" /><path
       id="path847"
       d="M 2,4.12 V 62 H 6 V 4.12 C 6,1.29 2,1.29 2,4.12 Z"
       class="st6"
       inkscape:connector-curvature="0"
       style="fill:#99a8ae" /><path
       id="path849"
       d="m 2.99,2.27 c 0.57,0.32 1,0.91 1,1.82 L 4,61.97 H 6 V 4.09 C 6,2.18 4.18,1.6 2.99,2.27 Z"
       class="st7"
       inkscape:connector-curvature="0"
       style="fill:#6e8189" /></g></g><g
   inkscape:groupmode="layer"
   id="layer3"
   inkscape:label="Layer 3"
   style="display:inline"><path
     inkscape:connector-curvature="0"
     d="m 7,4.98 c 0,0 6.17,9.12 20.18,18.32 0,0 -10.37,11.69 -20.18,17.17 C 7,40.47 5,27.1 5,22.61 5,12.07 7,4.98 7,4.98 Z"
     id="path10-6" /><path
     inkscape:connector-curvature="0"
     d="m 3.1811862,4.9668644 c 0,0 6.17,9.1199996 20.1799998,18.3199996 0,0 -10.37,11.69 -20.1799998,17.17 0,0 -2,-13.37 -2,-17.86 0,-10.54 2,-17.6299996 2,-17.6299996 z"
     id="path10-7"
     style="fill:#603814;fill-opacity:1" /><path
     inkscape:connector-curvature="0"
     d="m -0.88661028,5.034661 c 0,0 6.16999998,9.12 20.18000028,18.32 0,0 -10.3700003,11.69 -20.18000028,17.17 0,0 -2.00000002,-13.37 -2.00000002,-17.86 0,-10.54 2.00000002,-17.63 2.00000002,-17.63 z"
     id="path10-5"
     style="fill:#74d7ec;fill-opacity:1" /><path
     inkscape:connector-curvature="0"
     d="m -5.0899998,5.170254 c 0,0 6.17,9.12 20.1799998,18.32 0,0 -10.3699998,11.69 -20.1799998,17.17 0,0 -2,-13.37 -2,-17.86 0,-10.54 2,-17.63 2,-17.63 z"
     id="path10-3"
     style="fill:#ffafc8;fill-opacity:1" /><path
     inkscape:connector-curvature="0"
     d="m -9.3611861,5.3058471 c 0,0 6.17,9.1199999 20.1800001,18.3199999 0,0 -10.37000014,11.69 -20.1800001,17.17 0,0 -1.9999999,-13.37 -1.9999999,-17.86 0,-10.54 1.9999999,-17.6299999 1.9999999,-17.6299999 z"
     id="path10-56"
     style="fill:#ffffff" /><path
     id="path847-1"
     d="M 3,4.12 V 62 H 7 V 4.12 C 7,1.2900001 3,1.2900001 3,4.12 Z"
     class="st6"
     inkscape:connector-curvature="0"
     style="display:inline;fill:#99a8ae" /><path
     id="path849-2"
     d="m 3.99,2.2700001 c 0.57,0.32 1,0.91 1,1.8199999 L 5,61.97 H 7 V 4.09 C 7,2.1800001 5.18,1.6000001 3.99,2.2700001 Z"
     class="st7"
     inkscape:connector-curvature="0"
     style="display:inline;fill:#6e8189" /><rect
     style="fill:#ffffff;fill-opacity:1"
     id="rect945"
     width="19.957106"
     height="67.865707"
     x="-14.957107"
     y="-5.8957076" /><rect
     style="fill:#ffffff;fill-opacity:1"
     id="rect947"
     width="4.985702"
     height="3.2598822"
     x="-9.1084938"
     y="6.5685477" /></g><g
   inkscape:groupmode="layer"
   id="layer4"
   inkscape:label="Layer 4"><path
     id="path849-2-7"
     d="m 4,2.27 c 0.57,0.32 1,0.91 1,1.82 l 0.01,57.879999 h 2 V 4.09 C 7.01,2.18 5.19,1.6 4,2.27 Z"
     class="st7"
     inkscape:connector-curvature="0"
     style="display:inline;fill:#6e8189" /><path
     id="path847-0"
     d="M 3,4.12 V 62 H 7 V 4.12 C 7,1.29 3,1.29 3,4.12 Z"
     class="st6"
     inkscape:connector-curvature="0"
     style="display:inline;fill:#99a8ae" /><path
     id="path849-2-7-9"
     d="m 4,2.27 c 0.57,0.32 1,0.91 1,1.82 l 0.01,57.879999 h 2 V 4.09 C 7.01,2.18 5.19,1.6 4,2.27 Z"
     class="st7"
     inkscape:connector-curvature="0"
     style="display:inline;fill:#6e8189" /></g><style
   id="style833"
   type="text/css">
	.st0{fill:#E81C27;}
	.st1{fill:#EA8800;}
	.st2{fill:#FFE12C;}
	.st3{fill:#7AB51D;}
	.st4{fill:#006DAE;}
	.st5{fill:#7D0C7A;}
	.st6{fill:#99A8AE;}
	.st7{fill:#6E8189;}
</style></svg>