<?xml version="1.0" encoding="UTF-8" standalone="no"?>
<!-- Generator: Adobe Illustrator 21.0.0, SVG Export Plug-In . SVG Version: 6.00 Build 0)  -->

<svg
   xmlns:dc="http://purl.org/dc/elements/1.1/"
   xmlns:cc="http://creativecommons.org/ns#"
   xmlns:rdf="http://www.w3.org/1999/02/22-rdf-syntax-ns#"
   xmlns:svg="http://www.w3.org/2000/svg"
   xmlns="http://www.w3.org/2000/svg"
   xmlns:sodipodi="http://sodipodi.sourceforge.net/DTD/sodipodi-0.dtd"
   xmlns:inkscape="http://www.inkscape.org/namespaces/inkscape"
   version="1.1"
   id="Layer_1"
   x="0px"
   y="0px"
   width="64px"
   height="64px"
   viewBox="0 0 64 64"
   style="enable-background:new 0 0 64 64;"
   xml:space="preserve"
   sodipodi:docname="transmasculine-flag.svg"
   inkscape:version="0.92.4 (5da689c313, 2019-01-14)"
   inkscape:export-filename="/home/nils/Documents/pride-emoji-flags/png/transmasculine-flag.png"
   inkscape:export-xdpi="819.16589"
   inkscape:export-ydpi="819.16589"><metadata
   id="metadata21"><rdf:RDF><cc:Work
       rdf:about=""><dc:format>image/svg+xml</dc:format><dc:type
         rdf:resource="http://purl.org/dc/dcmitype/StillImage" /><dc:title></dc:title></cc:Work></rdf:RDF></metadata><defs
   id="defs19" /><sodipodi:namedview
   pagecolor="#ffffff"
   bordercolor="#666666"
   borderopacity="1"
   objecttolerance="10"
   gridtolerance="10"
   guidetolerance="10"
   inkscape:pageopacity="0"
   inkscape:pageshadow="2"
   inkscape:window-width="1920"
   inkscape:window-height="1012"
   id="namedview17"
   showgrid="false"
   inkscape:zoom="10.429825"
   inkscape:cx="13.770867"
   inkscape:cy="34.97544"
   inkscape:window-x="1080"
   inkscape:window-y="31"
   inkscape:window-maximized="1"
   inkscape:current-layer="Layer_1" />
<style
   type="text/css"
   id="style2">
	.st0{fill:#B9B9B9;}
	.st1{fill:#FFFFFF;}
	.st2{fill:#B8F483;}
	.st3{fill:#99A8AE;}
	.st4{fill:#6E8189;}
</style>
<path
   d="M4,4.31c19.33,8.01,38.67-8.01,58,0c0,11.79,0,23.58,0,35.37c-19.33-8.01-38.67,8.01-58,0C4,27.9,4,16.1,4,4.31z"
   id="path4"
   style="fill:#ff8abd;fill-opacity:1" />
<path
   class="st0"
   d="M4,9.37c19.33,8.01,38.67-8.01,58,0c0,8.42,0,16.85,0,25.27c-19.33-8.01-38.67,8.01-58,0  C4,26.21,4,17.79,4,9.37z"
   id="path6"
   style="fill:#cdf5fe;fill-opacity:1" />
<path
   class="st1"
   d="M4,14.42c19.33,8.01,38.67-8.01,58,0c0,5.05,0,10.11,0,15.16c-19.33-8.01-38.67,8.01-58,0  C4,24.53,4,19.47,4,14.42z"
   id="path8"
   style="fill:#9aebff;fill-opacity:1" />
<path
   class="st2"
   d="M4,19.47c19.33,8.01,38.67-8.01,58,0c0,1.68,0,3.37,0,5.05c-19.33-8.01-38.67,8.01-58,0  C4,22.84,4,21.16,4,19.47z"
   id="path10"
   style="fill:#74dfff;fill-opacity:0.94117647" />
<path
   class="st3"
   d="M2,4.12V62l4,0V4.12C6,1.29,2,1.29,2,4.12z"
   id="path12" />
<path
   class="st4"
   d="M2.99,2.27c0.57,0.32,1,0.91,1,1.82L4,61.97l2,0V4.09C6,2.18,4.18,1.6,2.99,2.27z"
   id="path14" />
</svg>