<?xml version="1.0" encoding="UTF-8" standalone="no"?>
<svg
   xmlns:dc="http://purl.org/dc/elements/1.1/"
   xmlns:cc="http://creativecommons.org/ns#"
   xmlns:rdf="http://www.w3.org/1999/02/22-rdf-syntax-ns#"
   xmlns:svg="http://www.w3.org/2000/svg"
   xmlns="http://www.w3.org/2000/svg"
   xmlns:sodipodi="http://sodipodi.sourceforge.net/DTD/sodipodi-0.dtd"
   xmlns:inkscape="http://www.inkscape.org/namespaces/inkscape"
   version="1.1"
   id="Layer_1"
   x="0px"
   y="0px"
   width="64px"
   height="64px"
   viewBox="0 0 64 64"
   style="enable-background:new 0 0 64 64;"
   xml:space="preserve"
   sodipodi:docname="transfeminine-flag.svg"
   inkscape:version="1.0.1 (c497b03c, 2020-09-10)"
   inkscape:export-filename="/Users/y.haupenthal/repos/github/foreign/pride-emoji-flags/png/transfeminine-flag.png"
   inkscape:export-xdpi="768"
   inkscape:export-ydpi="768"><metadata
   id="metadata1865"><rdf:RDF><cc:Work
       rdf:about=""><dc:format>image/svg+xml</dc:format><dc:type
         rdf:resource="http://purl.org/dc/dcmitype/StillImage" /><dc:title></dc:title></cc:Work></rdf:RDF></metadata><defs
   id="defs1863" /><sodipodi:namedview
   pagecolor="#ffffff"
   bordercolor="#666666"
   borderopacity="1"
   objecttolerance="10"
   gridtolerance="10"
   guidetolerance="10"
   inkscape:pageopacity="0"
   inkscape:pageshadow="2"
   inkscape:window-width="1792"
   inkscape:window-height="1075"
   id="namedview1861"
   showgrid="false"
   inkscape:zoom="13.546875"
   inkscape:cx="33.919262"
   inkscape:cy="31.704729"
   inkscape:window-x="0"
   inkscape:window-y="23"
   inkscape:window-maximized="1"
   inkscape:current-layer="Layer_1" />
<style
   type="text/css"
   id="style1846">
	.st0{fill:#B9B9B9;}
	.st1{fill:#FFFFFF;}
	.st2{fill:#B8F483;}
	.st3{fill:#99A8AE;}
	.st4{fill:#6E8189;}
</style>
<path
   d="M4,4.31c19.33,8.01,38.67-8.01,58,0c0,11.79,0,23.58,0,35.37c-19.33-8.01-38.67,8.01-58,0C4,27.9,4,16.1,4,4.31z"
   id="path1848"
   style="fill:#74dfff;fill-opacity:1" />
<path
   class="st0"
   d="M4,9.37c19.33,8.01,38.67-8.01,58,0c0,8.42,0,16.85,0,25.27c-19.33-8.01-38.67,8.01-58,0  C4,26.21,4,17.79,4,9.37z"
   id="path1850"
   style="fill:#fee1ed;fill-opacity:1" />
<path
   class="st1"
   d="M4,14.42c19.33,8.01,38.67-8.01,58,0c0,5.05,0,10.11,0,15.16c-19.33-8.01-38.67,8.01-58,0  C4,24.53,4,19.47,4,14.42z"
   id="path1852"
   style="fill:#ffb5d7;fill-opacity:1" />
<path
   class="st2"
   d="M4,19.47c19.33,8.01,38.67-8.01,58,0c0,1.68,0,3.37,0,5.05c-19.33-8.01-38.67,8.01-58,0  C4,22.84,4,21.16,4,19.47z"
   id="path1854"
   style="fill:#fe8dbf;fill-opacity:1" />
<path
   class="st3"
   d="M2,4.12V62l4,0V4.12C6,1.29,2,1.29,2,4.12z"
   id="path1856" />
<path
   class="st4"
   d="M2.99,2.27c0.57,0.32,1,0.91,1,1.82L4,61.97l2,0V4.09C6,2.18,4.18,1.6,2.99,2.27z"
   id="path1858" />
</svg>
